<svg width="307" height="197" viewBox="0 0 307 197" fill="none" xmlns="http://www.w3.org/2000/svg">
<path d="M73.8558 11.96V16.16H79.4958V18.824H73.8558V23.264H80.2158V26H70.4958V9.224H80.2158V11.96H73.8558ZM97.5973 26H94.2373L86.6293 14.504V26H83.2693V9.224H86.6293L94.2373 20.744V9.224H97.5973V26ZM112.318 9.248V11.96H107.854V26H104.494V11.96H100.03V9.248H112.318ZM126.272 26.168C125.104 26.168 124.048 25.968 123.104 25.568C122.176 25.168 121.44 24.592 120.896 23.84C120.352 23.088 120.072 22.2 120.056 21.176H123.656C123.704 21.864 123.944 22.408 124.376 22.808C124.824 23.208 125.432 23.408 126.2 23.408C126.984 23.408 127.6 23.224 128.048 22.856C128.496 22.472 128.72 21.976 128.72 21.368C128.72 20.872 128.568 20.464 128.264 20.144C127.96 19.824 127.576 19.576 127.112 19.4C126.664 19.208 126.04 19 125.24 18.776C124.152 18.456 123.264 18.144 122.576 17.84C121.904 17.52 121.32 17.048 120.824 16.424C120.344 15.784 120.104 14.936 120.104 13.88C120.104 12.888 120.352 12.024 120.848 11.288C121.344 10.552 122.04 9.992 122.936 9.608C123.832 9.208 124.856 9.008 126.008 9.008C127.736 9.008 129.136 9.432 130.208 10.28C131.296 11.112 131.896 12.28 132.008 13.784H128.312C128.28 13.208 128.032 12.736 127.568 12.368C127.12 11.984 126.52 11.792 125.768 11.792C125.112 11.792 124.584 11.96 124.184 12.296C123.8 12.632 123.608 13.12 123.608 13.76C123.608 14.208 123.752 14.584 124.04 14.888C124.344 15.176 124.712 15.416 125.144 15.608C125.592 15.784 126.216 15.992 127.016 16.232C128.104 16.552 128.992 16.872 129.68 17.192C130.368 17.512 130.96 17.992 131.456 18.632C131.952 19.272 132.2 20.112 132.2 21.152C132.2 22.048 131.968 22.88 131.504 23.648C131.04 24.416 130.36 25.032 129.464 25.496C128.568 25.944 127.504 26.168 126.272 26.168ZM138.473 14.624C138.905 14.016 139.497 13.512 140.249 13.112C141.017 12.696 141.889 12.488 142.865 12.488C144.001 12.488 145.025 12.768 145.937 13.328C146.865 13.888 147.593 14.688 148.121 15.728C148.665 16.752 148.937 17.944 148.937 19.304C148.937 20.664 148.665 21.872 148.121 22.928C147.593 23.968 146.865 24.776 145.937 25.352C145.025 25.928 144.001 26.216 142.865 26.216C141.889 26.216 141.025 26.016 140.273 25.616C139.537 25.216 138.937 24.712 138.473 24.104V32.336H135.113V12.704H138.473V14.624ZM145.505 19.304C145.505 18.504 145.337 17.816 145.001 17.24C144.681 16.648 144.249 16.2 143.705 15.896C143.177 15.592 142.601 15.44 141.977 15.44C141.369 15.44 140.793 15.6 140.249 15.92C139.721 16.224 139.289 16.672 138.953 17.264C138.633 17.856 138.473 18.552 138.473 19.352C138.473 20.152 138.633 20.848 138.953 21.44C139.289 22.032 139.721 22.488 140.249 22.808C140.793 23.112 141.369 23.264 141.977 23.264C142.601 23.264 143.177 23.104 143.705 22.784C144.249 22.464 144.681 22.008 145.001 21.416C145.337 20.824 145.505 20.12 145.505 19.304ZM163.739 19.064C163.739 19.544 163.707 19.976 163.643 20.36H153.923C154.003 21.32 154.339 22.072 154.931 22.616C155.523 23.16 156.251 23.432 157.115 23.432C158.363 23.432 159.251 22.896 159.779 21.824H163.403C163.019 23.104 162.283 24.16 161.195 24.992C160.107 25.808 158.771 26.216 157.187 26.216C155.907 26.216 154.755 25.936 153.731 25.376C152.723 24.8 151.931 23.992 151.355 22.952C150.795 21.912 150.515 20.712 150.515 19.352C150.515 17.976 150.795 16.768 151.355 15.728C151.915 14.688 152.699 13.888 153.707 13.328C154.715 12.768 155.875 12.488 157.187 12.488C158.451 12.488 159.579 12.76 160.571 13.304C161.579 13.848 162.355 14.624 162.899 15.632C163.459 16.624 163.739 17.768 163.739 19.064ZM160.259 18.104C160.243 17.24 159.931 16.552 159.323 16.04C158.715 15.512 157.971 15.248 157.091 15.248C156.259 15.248 155.555 15.504 154.979 16.016C154.419 16.512 154.075 17.208 153.947 18.104H160.259ZM165.327 19.352C165.327 17.976 165.607 16.776 166.167 15.752C166.727 14.712 167.503 13.912 168.495 13.352C169.487 12.776 170.623 12.488 171.903 12.488C173.551 12.488 174.911 12.904 175.983 13.736C177.071 14.552 177.799 15.704 178.167 17.192H174.543C174.351 16.616 174.023 16.168 173.559 15.848C173.111 15.512 172.551 15.344 171.879 15.344C170.919 15.344 170.159 15.696 169.599 16.4C169.039 17.088 168.759 18.072 168.759 19.352C168.759 20.616 169.039 21.6 169.599 22.304C170.159 22.992 170.919 23.336 171.879 23.336C173.239 23.336 174.127 22.728 174.543 21.512H178.167C177.799 22.952 177.071 24.096 175.983 24.944C174.895 25.792 173.535 26.216 171.903 26.216C170.623 26.216 169.487 25.936 168.495 25.376C167.503 24.8 166.727 24 166.167 22.976C165.607 21.936 165.327 20.728 165.327 19.352ZM182.333 11.12C181.741 11.12 181.245 10.936 180.845 10.568C180.461 10.184 180.269 9.712 180.269 9.152C180.269 8.592 180.461 8.128 180.845 7.76C181.245 7.376 181.741 7.184 182.333 7.184C182.925 7.184 183.413 7.376 183.797 7.76C184.197 8.128 184.397 8.592 184.397 9.152C184.397 9.712 184.197 10.184 183.797 10.568C183.413 10.936 182.925 11.12 182.333 11.12ZM183.989 12.704V26H180.629V12.704H183.989ZM186.444 19.304C186.444 17.96 186.708 16.768 187.236 15.728C187.78 14.688 188.508 13.888 189.42 13.328C190.348 12.768 191.38 12.488 192.516 12.488C193.508 12.488 194.372 12.688 195.108 13.088C195.86 13.488 196.46 13.992 196.908 14.6V12.704H200.292V26H196.908V24.056C196.476 24.68 195.876 25.2 195.108 25.616C194.356 26.016 193.484 26.216 192.492 26.216C191.372 26.216 190.348 25.928 189.42 25.352C188.508 24.776 187.78 23.968 187.236 22.928C186.708 21.872 186.444 20.664 186.444 19.304ZM196.908 19.352C196.908 18.536 196.748 17.84 196.428 17.264C196.108 16.672 195.676 16.224 195.132 15.92C194.588 15.6 194.004 15.44 193.38 15.44C192.756 15.44 192.18 15.592 191.652 15.896C191.124 16.2 190.692 16.648 190.356 17.24C190.036 17.816 189.876 18.504 189.876 19.304C189.876 20.104 190.036 20.808 190.356 21.416C190.692 22.008 191.124 22.464 191.652 22.784C192.196 23.104 192.772 23.264 193.38 23.264C194.004 23.264 194.588 23.112 195.132 22.808C195.676 22.488 196.108 22.04 196.428 21.464C196.748 20.872 196.908 20.168 196.908 19.352ZM206.934 8.24V26H203.574V8.24H206.934ZM211.958 11.12C211.366 11.12 210.87 10.936 210.47 10.568C210.086 10.184 209.894 9.712 209.894 9.152C209.894 8.592 210.086 8.128 210.47 7.76C210.87 7.376 211.366 7.184 211.958 7.184C212.55 7.184 213.038 7.376 213.422 7.76C213.822 8.128 214.022 8.592 214.022 9.152C214.022 9.712 213.822 10.184 213.422 10.568C213.038 10.936 212.55 11.12 211.958 11.12ZM213.614 12.704V26H210.254V12.704H213.614ZM222.021 26.216C220.933 26.216 219.957 26.024 219.093 25.64C218.229 25.24 217.541 24.704 217.029 24.032C216.533 23.36 216.261 22.616 216.213 21.8H219.597C219.661 22.312 219.909 22.736 220.341 23.072C220.789 23.408 221.341 23.576 221.997 23.576C222.637 23.576 223.133 23.448 223.485 23.192C223.853 22.936 224.037 22.608 224.037 22.208C224.037 21.776 223.813 21.456 223.365 21.248C222.933 21.024 222.237 20.784 221.277 20.528C220.285 20.288 219.469 20.04 218.829 19.784C218.205 19.528 217.661 19.136 217.197 18.608C216.749 18.08 216.525 17.368 216.525 16.472C216.525 15.736 216.733 15.064 217.149 14.456C217.581 13.848 218.189 13.368 218.973 13.016C219.773 12.664 220.709 12.488 221.781 12.488C223.365 12.488 224.629 12.888 225.573 13.688C226.517 14.472 227.037 15.536 227.133 16.88H223.917C223.869 16.352 223.645 15.936 223.245 15.632C222.861 15.312 222.341 15.152 221.685 15.152C221.077 15.152 220.605 15.264 220.269 15.488C219.949 15.712 219.789 16.024 219.789 16.424C219.789 16.872 220.013 17.216 220.461 17.456C220.909 17.68 221.605 17.912 222.549 18.152C223.509 18.392 224.301 18.64 224.925 18.896C225.549 19.152 226.085 19.552 226.533 20.096C226.997 20.624 227.237 21.328 227.253 22.208C227.253 22.976 227.037 23.664 226.605 24.272C226.189 24.88 225.581 25.36 224.781 25.712C223.997 26.048 223.077 26.216 222.021 26.216ZM233.923 15.464V21.896C233.923 22.344 234.027 22.672 234.235 22.88C234.459 23.072 234.827 23.168 235.339 23.168H236.899V26H234.787C231.955 26 230.539 24.624 230.539 21.872V15.464H228.955V12.704H230.539V9.416H233.923V12.704H236.899V15.464H233.923Z" fill="#FFF4ED"/>
<path d="M157.122 45.5188C140.339 45.5188 124.87 58.1188 121.648 72.0032C120.931 75.086 120.125 83.1516 120.125 83.1516L112.414 102.605C112.223 103.058 112.148 103.551 112.194 104.041C112.24 104.53 112.406 105.001 112.678 105.41C112.95 105.82 113.319 106.156 113.752 106.389C114.185 106.621 114.669 106.743 115.161 106.744H115.98C115.884 106.419 115.876 106.075 115.955 105.745C116.034 105.416 116.199 105.113 116.431 104.867C117.566 103.685 118.818 102.623 120.169 101.695C120.383 101.55 120.623 101.448 120.877 101.396C121.13 101.343 121.391 101.341 121.645 101.39C121.899 101.438 122.142 101.537 122.358 101.679C122.574 101.821 122.76 102.004 122.905 102.218C123.051 102.432 123.153 102.673 123.205 102.926C123.257 103.179 123.259 103.44 123.211 103.695C123.162 103.949 123.064 104.191 122.922 104.407C122.78 104.623 122.597 104.809 122.383 104.955C121.608 105.48 120.856 106.117 120.125 106.798V114.034H121.864C122.387 114.034 122.888 114.242 123.257 114.612C123.627 114.981 123.834 115.482 123.834 116.005C123.834 116.527 123.627 117.028 123.257 117.398C122.888 117.767 122.387 117.975 121.864 117.975H120.169C120.63 125.614 126.953 131.672 134.714 131.672H140.5V143.003H149.161V141.527C149.15 141.261 149.194 140.997 149.288 140.748C149.382 140.5 149.525 140.273 149.709 140.082C149.893 139.89 150.114 139.738 150.359 139.634C150.603 139.53 150.866 139.476 151.131 139.476C151.397 139.476 151.66 139.53 151.904 139.634C152.148 139.738 152.369 139.89 152.553 140.082C152.737 140.273 152.88 140.5 152.975 140.748C153.069 140.997 153.112 141.261 153.102 141.527V143.003H156.644V141.53C156.633 141.264 156.676 141 156.771 140.751C156.865 140.503 157.008 140.276 157.192 140.085C157.376 139.893 157.597 139.741 157.841 139.637C158.086 139.533 158.349 139.479 158.614 139.479C158.88 139.479 159.142 139.533 159.387 139.637C159.631 139.741 159.852 139.893 160.036 140.085C160.22 140.276 160.363 140.503 160.458 140.751C160.552 141 160.595 141.264 160.584 141.53V143.003H179.977V111.602C188.58 104.834 194.111 94.3125 194.111 82.5126C194.109 62.0829 177.559 45.5188 157.122 45.5188ZM129.242 82.1766C129.784 82.1766 130.321 82.2835 130.822 82.4912C131.323 82.6989 131.778 83.0033 132.161 83.387C132.544 83.7707 132.848 84.2262 133.055 84.7274C133.262 85.2286 133.368 85.7656 133.367 86.3079C133.367 87.4022 132.933 88.4517 132.159 89.2258C131.386 89.9999 130.336 90.4352 129.242 90.436C128.147 90.436 127.097 90.0009 126.322 89.2264C125.548 88.452 125.112 87.4016 125.112 86.3063C125.112 85.211 125.548 84.1606 126.322 83.3862C127.097 82.6117 128.147 82.1766 129.242 82.1766ZM124.705 101.369C124.633 101.12 124.611 100.86 124.64 100.603C124.669 100.346 124.748 100.097 124.874 99.8706C124.999 99.6442 125.168 99.4447 125.37 99.2836C125.572 99.1224 125.804 99.0027 126.053 98.9313C127.634 98.4818 129.259 98.2031 130.9 98.1C131.159 98.0805 131.419 98.1128 131.665 98.1948C131.911 98.2769 132.138 98.4072 132.334 98.5782C132.529 98.7491 132.688 98.9572 132.802 99.1903C132.916 99.4235 132.982 99.6769 132.997 99.936C133.014 100.194 132.981 100.454 132.898 100.699C132.816 100.944 132.685 101.171 132.515 101.366C132.345 101.561 132.137 101.72 131.905 101.835C131.673 101.95 131.421 102.017 131.162 102.034C129.803 102.118 128.457 102.349 127.147 102.722C126.644 102.865 126.105 102.803 125.647 102.549C125.19 102.296 124.852 101.871 124.706 101.369H124.705ZM132.281 117.973H127.775C127.252 117.973 126.751 117.766 126.382 117.396C126.012 117.027 125.805 116.526 125.805 116.003C125.805 115.481 126.012 114.979 126.382 114.61C126.751 114.24 127.252 114.033 127.775 114.033H132.281C132.804 114.033 133.305 114.24 133.674 114.61C134.044 114.979 134.252 115.481 134.252 116.003C134.252 116.526 134.044 117.027 133.674 117.396C133.305 117.766 132.804 117.973 132.281 117.973ZM157.992 90.7985H162.498C163.021 90.7985 163.522 91.0061 163.892 91.3756C164.261 91.7451 164.469 92.2462 164.469 92.7688C164.469 93.2914 164.261 93.7925 163.892 94.162C163.522 94.5315 163.021 94.7391 162.498 94.7391H157.992C157.47 94.7391 156.968 94.5315 156.599 94.162C156.229 93.7925 156.022 93.2914 156.022 92.7688C156.022 92.2462 156.229 91.7451 156.599 91.3756C156.968 91.0061 157.47 90.7985 157.992 90.7985ZM147.319 95.9922C148.222 94.3704 149.617 93.036 151.356 92.1438C151.818 91.9308 152.343 91.9041 152.824 92.0692C153.304 92.2344 153.702 92.5786 153.935 93.0301C154.168 93.4816 154.218 94.0056 154.074 94.4928C153.93 94.9801 153.603 95.3929 153.162 95.6454C152.119 96.186 151.289 96.9672 150.763 97.911C150.637 98.1374 150.468 98.3368 150.265 98.4979C150.063 98.6589 149.83 98.7784 149.581 98.8495C149.333 98.9207 149.072 98.942 148.815 98.9123C148.558 98.8826 148.309 98.8025 148.083 98.6766C147.626 98.4217 147.289 97.9958 147.145 97.4925C147.002 96.9892 147.064 96.4496 147.319 95.9922ZM134.97 100.038C135.012 99.7818 135.104 99.5368 135.24 99.3166C135.377 99.0963 135.555 98.9052 135.766 98.7539C135.976 98.6027 136.214 98.4945 136.467 98.4354C136.719 98.3763 136.98 98.3674 137.236 98.4094C138.832 98.671 140.401 99.0725 141.927 99.6094C142.171 99.695 142.396 99.8278 142.588 100C142.781 100.173 142.938 100.382 143.05 100.615C143.162 100.848 143.227 101.101 143.241 101.359C143.255 101.618 143.219 101.876 143.133 102.12C142.96 102.613 142.598 103.018 142.127 103.244C141.657 103.471 141.115 103.501 140.622 103.328C139.312 102.872 137.966 102.528 136.598 102.3C136.343 102.258 136.098 102.167 135.878 102.031C135.658 101.895 135.467 101.716 135.316 101.506C135.164 101.296 135.056 101.058 134.997 100.806C134.938 100.554 134.929 100.293 134.97 100.038ZM144.111 118.833C143.861 119.291 143.439 119.632 142.938 119.781C142.437 119.929 141.897 119.873 141.438 119.625C140.285 119.001 139.047 118.55 137.764 118.286C137.511 118.233 137.27 118.131 137.056 117.986C136.842 117.84 136.659 117.654 136.517 117.437C136.375 117.221 136.277 116.979 136.229 116.724C136.18 116.47 136.183 116.209 136.235 115.956C136.288 115.702 136.39 115.462 136.535 115.248C136.681 115.034 136.867 114.85 137.084 114.708C137.3 114.566 137.542 114.468 137.797 114.42C138.051 114.372 138.312 114.374 138.566 114.427C140.247 114.778 141.848 115.361 143.317 116.159C144.275 116.681 144.628 117.878 144.109 118.831L144.111 118.833ZM144.919 102.986C145.303 102.383 145.964 102.092 146.631 102.106C146.83 101.48 147.308 100.95 147.992 100.775C148.243 100.711 148.504 100.697 148.76 100.734C149.017 100.771 149.263 100.858 149.486 100.99C149.708 101.122 149.903 101.297 150.058 101.504C150.213 101.712 150.325 101.948 150.389 102.198C150.881 104.127 151.883 105.788 151.892 105.805C152.146 106.215 152.24 106.705 152.157 107.181C152.074 107.656 151.819 108.085 151.44 108.385C151.062 108.685 150.586 108.835 150.104 108.808C149.622 108.781 149.167 108.577 148.825 108.236C147.798 107.3 146.693 106.454 145.522 105.708C145.082 105.427 144.771 104.983 144.658 104.472C144.544 103.962 144.638 103.427 144.919 102.986ZM147.464 126.28C146.917 125.065 146.214 123.928 145.372 122.895C145.207 122.695 145.084 122.465 145.009 122.217C144.934 121.97 144.908 121.71 144.933 121.452C144.959 121.194 145.035 120.944 145.157 120.716C145.279 120.488 145.445 120.286 145.645 120.122C145.845 119.957 146.076 119.834 146.323 119.758C146.571 119.683 146.831 119.657 147.089 119.683C147.346 119.708 147.597 119.784 147.825 119.907C148.053 120.029 148.255 120.195 148.419 120.395C149.477 121.692 150.361 123.121 151.05 124.645C151.188 124.945 151.248 125.275 151.225 125.604C151.202 125.933 151.097 126.251 150.919 126.529C150.74 126.807 150.495 127.035 150.205 127.193C149.916 127.351 149.591 127.433 149.261 127.433C148.882 127.432 148.512 127.323 148.193 127.119C147.875 126.914 147.622 126.624 147.464 126.28ZM153.102 135.613C153.102 136.135 152.894 136.636 152.524 137.006C152.155 137.375 151.654 137.583 151.131 137.583C150.609 137.583 150.108 137.375 149.738 137.006C149.369 136.636 149.161 136.135 149.161 135.613V134.511C149.161 133.456 149.086 132.413 148.942 131.405C148.868 130.887 149.002 130.361 149.315 129.942C149.627 129.523 150.094 129.245 150.611 129.169C150.867 129.131 151.129 129.144 151.38 129.207C151.632 129.271 151.868 129.384 152.075 129.539C152.283 129.695 152.458 129.89 152.589 130.113C152.721 130.337 152.807 130.584 152.842 130.841C153.017 132.033 153.102 133.267 153.102 134.511V135.613ZM154.467 115.952C153.888 114.69 153.2 113.481 152.411 112.339C152.132 111.909 152.032 111.387 152.131 110.884C152.231 110.381 152.522 109.936 152.944 109.645C153.366 109.353 153.885 109.237 154.39 109.322C154.896 109.406 155.349 109.684 155.653 110.097C156.57 111.425 157.378 112.841 158.05 114.306C158.268 114.781 158.289 115.324 158.108 115.814C157.926 116.305 157.557 116.703 157.082 116.921C156.607 117.14 156.065 117.16 155.574 116.979C155.084 116.797 154.686 116.427 154.467 115.952ZM156.634 125.256C156.597 123.869 156.439 122.488 156.162 121.128C156.111 120.875 156.11 120.613 156.159 120.359C156.209 120.105 156.308 119.863 156.451 119.648C156.594 119.432 156.778 119.246 156.992 119.102C157.207 118.957 157.448 118.856 157.702 118.805C157.955 118.753 158.216 118.752 158.47 118.802C158.724 118.851 158.966 118.95 159.182 119.093C159.398 119.236 159.583 119.42 159.728 119.635C159.873 119.849 159.973 120.09 160.025 120.344C160.345 121.92 160.531 123.539 160.575 125.15C160.582 125.408 160.539 125.666 160.447 125.907C160.355 126.149 160.216 126.37 160.038 126.558C159.861 126.746 159.648 126.896 159.412 127.002C159.175 127.107 158.921 127.165 158.662 127.172C158.642 127.175 158.625 127.175 158.605 127.175C157.544 127.175 156.667 126.325 156.636 125.258L156.634 125.256ZM160.584 135.617C160.584 136.14 160.377 136.641 160.007 137.01C159.638 137.38 159.137 137.588 158.614 137.588C158.091 137.588 157.59 137.38 157.221 137.01C156.851 136.641 156.644 136.14 156.644 135.617V131.116C156.633 130.85 156.676 130.586 156.771 130.337C156.865 130.089 157.008 129.862 157.192 129.671C157.376 129.479 157.597 129.327 157.841 129.223C158.086 129.119 158.349 129.065 158.614 129.065C158.88 129.065 159.142 129.119 159.387 129.223C159.631 129.327 159.852 129.479 160.036 129.671C160.22 129.862 160.363 130.089 160.458 130.337C160.552 130.586 160.595 130.85 160.584 131.116V135.617ZM161.666 103.714V100.356L162.316 100.35C164.332 100.343 166.264 99.5409 167.691 98.1169C169.118 96.693 169.925 94.7629 169.936 92.7469C169.925 90.7309 169.118 88.8009 167.691 87.3769C166.264 85.953 164.332 85.1504 162.316 85.1438L161.666 85.1407V81.7875H162.32C168.373 81.7875 173.297 86.7016 173.297 92.7485C173.297 98.7938 168.373 103.716 162.32 103.716L161.666 103.714Z" fill="#FFF4ED"/>
<path d="M45.5414 170.112C44.8054 170.112 44.1441 169.984 43.5574 169.728C42.9814 169.461 42.5281 169.099 42.1974 168.64C41.8668 168.171 41.6961 167.632 41.6854 167.024H43.2374C43.2908 167.547 43.5041 167.989 43.8774 168.352C44.2614 168.704 44.8161 168.88 45.5414 168.88C46.2348 168.88 46.7788 168.709 47.1734 168.368C47.5788 168.016 47.7814 167.568 47.7814 167.024C47.7814 166.597 47.6641 166.251 47.4294 165.984C47.1948 165.717 46.9014 165.515 46.5494 165.376C46.1974 165.237 45.7228 165.088 45.1254 164.928C44.3894 164.736 43.7974 164.544 43.3494 164.352C42.9121 164.16 42.5334 163.861 42.2134 163.456C41.9041 163.04 41.7494 162.485 41.7494 161.792C41.7494 161.184 41.9041 160.645 42.2134 160.176C42.5228 159.707 42.9548 159.344 43.5094 159.088C44.0748 158.832 44.7201 158.704 45.4454 158.704C46.4908 158.704 47.3441 158.965 48.0054 159.488C48.6774 160.011 49.0561 160.704 49.1414 161.568H47.5414C47.4881 161.141 47.2641 160.768 46.8694 160.448C46.4748 160.117 45.9521 159.952 45.3014 159.952C44.6934 159.952 44.1974 160.112 43.8134 160.432C43.4294 160.741 43.2374 161.179 43.2374 161.744C43.2374 162.149 43.3494 162.48 43.5734 162.736C43.8081 162.992 44.0908 163.189 44.4214 163.328C44.7628 163.456 45.2374 163.605 45.8454 163.776C46.5814 163.979 47.1734 164.181 47.6214 164.384C48.0694 164.576 48.4534 164.88 48.7734 165.296C49.0934 165.701 49.2534 166.256 49.2534 166.96C49.2534 167.504 49.1094 168.016 48.8214 168.496C48.5334 168.976 48.1068 169.365 47.5414 169.664C46.9761 169.963 46.3094 170.112 45.5414 170.112ZM52.8521 162.848C53.1401 162.347 53.5667 161.931 54.1321 161.6C54.7081 161.259 55.3747 161.088 56.1321 161.088C56.9107 161.088 57.6147 161.275 58.2441 161.648C58.8841 162.021 59.3854 162.549 59.7481 163.232C60.1107 163.904 60.2921 164.688 60.2921 165.584C60.2921 166.469 60.1107 167.259 59.7481 167.952C59.3854 168.645 58.8841 169.184 58.2441 169.568C57.6147 169.952 56.9107 170.144 56.1321 170.144C55.3854 170.144 54.7241 169.979 54.1481 169.648C53.5827 169.307 53.1507 168.885 52.8521 168.384V174.16H51.3961V161.232H52.8521V162.848ZM58.8041 165.584C58.8041 164.923 58.6707 164.347 58.4041 163.856C58.1374 163.365 57.7747 162.992 57.3161 162.736C56.8681 162.48 56.3721 162.352 55.8281 162.352C55.2947 162.352 54.7987 162.485 54.3401 162.752C53.8921 163.008 53.5294 163.387 53.2521 163.888C52.9854 164.379 52.8521 164.949 52.8521 165.6C52.8521 166.261 52.9854 166.843 53.2521 167.344C53.5294 167.835 53.8921 168.213 54.3401 168.48C54.7987 168.736 55.2947 168.864 55.8281 168.864C56.3721 168.864 56.8681 168.736 57.3161 168.48C57.7747 168.213 58.1374 167.835 58.4041 167.344C58.6707 166.843 58.8041 166.256 58.8041 165.584ZM70.2086 165.28C70.2086 165.557 70.1926 165.851 70.1606 166.16H63.1526C63.2059 167.024 63.4992 167.701 64.0326 168.192C64.5766 168.672 65.2326 168.912 66.0006 168.912C66.6299 168.912 67.1526 168.768 67.5686 168.48C67.9952 168.181 68.2939 167.787 68.4646 167.296H70.0326C69.7979 168.139 69.3286 168.827 68.6246 169.36C67.9206 169.883 67.0459 170.144 66.0006 170.144C65.1686 170.144 64.4219 169.957 63.7606 169.584C63.1099 169.211 62.5979 168.683 62.2246 168C61.8512 167.307 61.6646 166.507 61.6646 165.6C61.6646 164.693 61.8459 163.899 62.2086 163.216C62.5712 162.533 63.0779 162.011 63.7286 161.648C64.3899 161.275 65.1472 161.088 66.0006 161.088C66.8326 161.088 67.5686 161.269 68.2086 161.632C68.8486 161.995 69.3392 162.496 69.6806 163.136C70.0326 163.765 70.2086 164.48 70.2086 165.28ZM68.7046 164.976C68.7046 164.421 68.5819 163.947 68.3366 163.552C68.0912 163.147 67.7552 162.843 67.3286 162.64C66.9126 162.427 66.4486 162.32 65.9366 162.32C65.2006 162.32 64.5712 162.555 64.0486 163.024C63.5366 163.493 63.2432 164.144 63.1686 164.976H68.7046ZM71.5864 165.6C71.5864 164.693 71.7678 163.904 72.1304 163.232C72.4931 162.549 72.9944 162.021 73.6344 161.648C74.2851 161.275 75.0264 161.088 75.8584 161.088C76.9358 161.088 77.8211 161.349 78.5144 161.872C79.2184 162.395 79.6824 163.12 79.9064 164.048H78.3384C78.1891 163.515 77.8958 163.093 77.4584 162.784C77.0318 162.475 76.4984 162.32 75.8584 162.32C75.0264 162.32 74.3544 162.608 73.8424 163.184C73.3304 163.749 73.0744 164.555 73.0744 165.6C73.0744 166.656 73.3304 167.472 73.8424 168.048C74.3544 168.624 75.0264 168.912 75.8584 168.912C76.4984 168.912 77.0318 168.763 77.4584 168.464C77.8851 168.165 78.1784 167.739 78.3384 167.184H79.9064C79.6718 168.08 79.2024 168.8 78.4984 169.344C77.7944 169.877 76.9144 170.144 75.8584 170.144C75.0264 170.144 74.2851 169.957 73.6344 169.584C72.9944 169.211 72.4931 168.683 72.1304 168C71.7678 167.317 71.5864 166.517 71.5864 165.6ZM82.6012 159.808C82.3239 159.808 82.0892 159.712 81.8972 159.52C81.7052 159.328 81.6092 159.093 81.6092 158.816C81.6092 158.539 81.7052 158.304 81.8972 158.112C82.0892 157.92 82.3239 157.824 82.6012 157.824C82.8679 157.824 83.0919 157.92 83.2732 158.112C83.4652 158.304 83.5612 158.539 83.5612 158.816C83.5612 159.093 83.4652 159.328 83.2732 159.52C83.0919 159.712 82.8679 159.808 82.6012 159.808ZM83.3052 161.232V170H81.8492V161.232H83.3052ZM85.2427 165.584C85.2427 164.688 85.424 163.904 85.7867 163.232C86.1494 162.549 86.6454 162.021 87.2747 161.648C87.9147 161.275 88.624 161.088 89.4027 161.088C90.1707 161.088 90.8374 161.253 91.4027 161.584C91.968 161.915 92.3894 162.331 92.6667 162.832V161.232H94.1387V170H92.6667V168.368C92.3787 168.88 91.9467 169.307 91.3707 169.648C90.8054 169.979 90.144 170.144 89.3867 170.144C88.608 170.144 87.904 169.952 87.2747 169.568C86.6454 169.184 86.1494 168.645 85.7867 167.952C85.424 167.259 85.2427 166.469 85.2427 165.584ZM92.6667 165.6C92.6667 164.939 92.5334 164.363 92.2667 163.872C92 163.381 91.6374 163.008 91.1787 162.752C90.7307 162.485 90.2347 162.352 89.6907 162.352C89.1467 162.352 88.6507 162.48 88.2027 162.736C87.7547 162.992 87.3974 163.365 87.1307 163.856C86.864 164.347 86.7307 164.923 86.7307 165.584C86.7307 166.256 86.864 166.843 87.1307 167.344C87.3974 167.835 87.7547 168.213 88.2027 168.48C88.6507 168.736 89.1467 168.864 89.6907 168.864C90.2347 168.864 90.7307 168.736 91.1787 168.48C91.6374 168.213 92 167.835 92.2667 167.344C92.5334 166.843 92.6667 166.261 92.6667 165.6ZM98.0552 158.16V170H96.5992V158.16H98.0552ZM101.289 159.808C101.011 159.808 100.777 159.712 100.585 159.52C100.393 159.328 100.297 159.093 100.297 158.816C100.297 158.539 100.393 158.304 100.585 158.112C100.777 157.92 101.011 157.824 101.289 157.824C101.555 157.824 101.779 157.92 101.961 158.112C102.153 158.304 102.249 158.539 102.249 158.816C102.249 159.093 102.153 159.328 101.961 159.52C101.779 159.712 101.555 159.808 101.289 159.808ZM101.993 161.232V170H100.537V161.232H101.993ZM105.562 168.8H109.866V170H103.898V168.8L108.154 162.416H103.93V161.232H109.834V162.416L105.562 168.8ZM119.755 165.28C119.755 165.557 119.739 165.851 119.707 166.16H112.699C112.753 167.024 113.046 167.701 113.579 168.192C114.123 168.672 114.779 168.912 115.547 168.912C116.177 168.912 116.699 168.768 117.115 168.48C117.542 168.181 117.841 167.787 118.011 167.296H119.579C119.345 168.139 118.875 168.827 118.171 169.36C117.467 169.883 116.593 170.144 115.547 170.144C114.715 170.144 113.969 169.957 113.307 169.584C112.657 169.211 112.145 168.683 111.771 168C111.398 167.307 111.211 166.507 111.211 165.6C111.211 164.693 111.393 163.899 111.755 163.216C112.118 162.533 112.625 162.011 113.275 161.648C113.937 161.275 114.694 161.088 115.547 161.088C116.379 161.088 117.115 161.269 117.755 161.632C118.395 161.995 118.886 162.496 119.227 163.136C119.579 163.765 119.755 164.48 119.755 165.28ZM118.251 164.976C118.251 164.421 118.129 163.947 117.883 163.552C117.638 163.147 117.302 162.843 116.875 162.64C116.459 162.427 115.995 162.32 115.483 162.32C114.747 162.32 114.118 162.555 113.595 163.024C113.083 163.493 112.79 164.144 112.715 164.976H118.251ZM121.133 165.584C121.133 164.688 121.315 163.904 121.677 163.232C122.04 162.549 122.536 162.021 123.165 161.648C123.805 161.275 124.52 161.088 125.309 161.088C125.992 161.088 126.627 161.248 127.213 161.568C127.8 161.877 128.248 162.288 128.557 162.8V158.16H130.029V170H128.557V168.352C128.269 168.875 127.843 169.307 127.277 169.648C126.712 169.979 126.051 170.144 125.293 170.144C124.515 170.144 123.805 169.952 123.165 169.568C122.536 169.184 122.04 168.645 121.677 167.952C121.315 167.259 121.133 166.469 121.133 165.584ZM128.557 165.6C128.557 164.939 128.424 164.363 128.157 163.872C127.891 163.381 127.528 163.008 127.069 162.752C126.621 162.485 126.125 162.352 125.581 162.352C125.037 162.352 124.541 162.48 124.093 162.736C123.645 162.992 123.288 163.365 123.021 163.856C122.755 164.347 122.621 164.923 122.621 165.584C122.621 166.256 122.755 166.843 123.021 167.344C123.288 167.835 123.645 168.213 124.093 168.48C124.541 168.736 125.037 168.864 125.581 168.864C126.125 168.864 126.621 168.736 127.069 168.48C127.528 168.213 127.891 167.835 128.157 167.344C128.424 166.843 128.557 166.261 128.557 165.6ZM139.859 170.144C139.187 170.144 138.585 170.032 138.051 169.808C137.518 169.573 137.097 169.253 136.787 168.848C136.478 168.432 136.307 167.957 136.275 167.424H137.779C137.822 167.861 138.025 168.219 138.387 168.496C138.761 168.773 139.246 168.912 139.843 168.912C140.398 168.912 140.835 168.789 141.155 168.544C141.475 168.299 141.635 167.989 141.635 167.616C141.635 167.232 141.465 166.949 141.123 166.768C140.782 166.576 140.254 166.389 139.539 166.208C138.889 166.037 138.355 165.867 137.939 165.696C137.534 165.515 137.182 165.253 136.883 164.912C136.595 164.56 136.451 164.101 136.451 163.536C136.451 163.088 136.585 162.677 136.851 162.304C137.118 161.931 137.497 161.637 137.987 161.424C138.478 161.2 139.038 161.088 139.667 161.088C140.638 161.088 141.422 161.333 142.019 161.824C142.617 162.315 142.937 162.987 142.979 163.84H141.523C141.491 163.381 141.305 163.013 140.963 162.736C140.633 162.459 140.185 162.32 139.619 162.32C139.097 162.32 138.681 162.432 138.371 162.656C138.062 162.88 137.907 163.173 137.907 163.536C137.907 163.824 137.998 164.064 138.179 164.256C138.371 164.437 138.606 164.587 138.883 164.704C139.171 164.811 139.566 164.933 140.067 165.072C140.697 165.243 141.209 165.413 141.603 165.584C141.998 165.744 142.334 165.989 142.611 166.32C142.899 166.651 143.049 167.083 143.059 167.616C143.059 168.096 142.926 168.528 142.659 168.912C142.393 169.296 142.014 169.6 141.523 169.824C141.043 170.037 140.489 170.144 139.859 170.144ZM152.891 161.232V170H151.435V168.704C151.157 169.152 150.768 169.504 150.267 169.76C149.776 170.005 149.232 170.128 148.635 170.128C147.952 170.128 147.339 169.989 146.795 169.712C146.251 169.424 145.819 168.997 145.499 168.432C145.189 167.867 145.035 167.179 145.035 166.368V161.232H146.475V166.176C146.475 167.04 146.693 167.707 147.131 168.176C147.568 168.635 148.165 168.864 148.923 168.864C149.701 168.864 150.315 168.624 150.763 168.144C151.211 167.664 151.435 166.965 151.435 166.048V161.232H152.891ZM156.805 162.656C157.061 162.155 157.424 161.765 157.893 161.488C158.373 161.211 158.955 161.072 159.637 161.072V162.576H159.253C157.621 162.576 156.805 163.461 156.805 165.232V170H155.349V161.232H156.805V162.656ZM164.934 161.088C165.691 161.088 166.353 161.253 166.918 161.584C167.494 161.915 167.921 162.331 168.198 162.832V161.232H169.67V170.192C169.67 170.992 169.499 171.701 169.158 172.32C168.817 172.949 168.326 173.44 167.686 173.792C167.057 174.144 166.321 174.32 165.478 174.32C164.326 174.32 163.366 174.048 162.598 173.504C161.83 172.96 161.377 172.219 161.238 171.28H162.678C162.838 171.813 163.169 172.24 163.67 172.56C164.171 172.891 164.774 173.056 165.478 173.056C166.278 173.056 166.929 172.805 167.43 172.304C167.942 171.803 168.198 171.099 168.198 170.192V168.352C167.91 168.864 167.483 169.291 166.918 169.632C166.353 169.973 165.691 170.144 164.934 170.144C164.155 170.144 163.446 169.952 162.806 169.568C162.177 169.184 161.681 168.645 161.318 167.952C160.955 167.259 160.774 166.469 160.774 165.584C160.774 164.688 160.955 163.904 161.318 163.232C161.681 162.549 162.177 162.021 162.806 161.648C163.446 161.275 164.155 161.088 164.934 161.088ZM168.198 165.6C168.198 164.939 168.065 164.363 167.798 163.872C167.531 163.381 167.169 163.008 166.71 162.752C166.262 162.485 165.766 162.352 165.222 162.352C164.678 162.352 164.182 162.48 163.734 162.736C163.286 162.992 162.929 163.365 162.662 163.856C162.395 164.347 162.262 164.923 162.262 165.584C162.262 166.256 162.395 166.843 162.662 167.344C162.929 167.835 163.286 168.213 163.734 168.48C164.182 168.736 164.678 168.864 165.222 168.864C165.766 168.864 166.262 168.736 166.71 168.48C167.169 168.213 167.531 167.835 167.798 167.344C168.065 166.843 168.198 166.261 168.198 165.6ZM172.882 159.808C172.605 159.808 172.37 159.712 172.178 159.52C171.986 159.328 171.89 159.093 171.89 158.816C171.89 158.539 171.986 158.304 172.178 158.112C172.37 157.92 172.605 157.824 172.882 157.824C173.149 157.824 173.373 157.92 173.554 158.112C173.746 158.304 173.842 158.539 173.842 158.816C173.842 159.093 173.746 159.328 173.554 159.52C173.373 159.712 173.149 159.808 172.882 159.808ZM173.586 161.232V170H172.13V161.232H173.586ZM175.524 165.6C175.524 164.693 175.705 163.904 176.068 163.232C176.431 162.549 176.932 162.021 177.572 161.648C178.223 161.275 178.964 161.088 179.796 161.088C180.873 161.088 181.759 161.349 182.452 161.872C183.156 162.395 183.62 163.12 183.844 164.048H182.276C182.127 163.515 181.833 163.093 181.396 162.784C180.969 162.475 180.436 162.32 179.796 162.32C178.964 162.32 178.292 162.608 177.78 163.184C177.268 163.749 177.012 164.555 177.012 165.6C177.012 166.656 177.268 167.472 177.78 168.048C178.292 168.624 178.964 168.912 179.796 168.912C180.436 168.912 180.969 168.763 181.396 168.464C181.823 168.165 182.116 167.739 182.276 167.184H183.844C183.609 168.08 183.14 168.8 182.436 169.344C181.732 169.877 180.852 170.144 179.796 170.144C178.964 170.144 178.223 169.957 177.572 169.584C176.932 169.211 176.431 168.683 176.068 168C175.705 167.317 175.524 166.517 175.524 165.6ZM185.243 165.584C185.243 164.688 185.424 163.904 185.787 163.232C186.149 162.549 186.645 162.021 187.275 161.648C187.915 161.275 188.624 161.088 189.403 161.088C190.171 161.088 190.837 161.253 191.403 161.584C191.968 161.915 192.389 162.331 192.667 162.832V161.232H194.139V170H192.667V168.368C192.379 168.88 191.947 169.307 191.371 169.648C190.805 169.979 190.144 170.144 189.387 170.144C188.608 170.144 187.904 169.952 187.275 169.568C186.645 169.184 186.149 168.645 185.787 167.952C185.424 167.259 185.243 166.469 185.243 165.584ZM192.667 165.6C192.667 164.939 192.533 164.363 192.267 163.872C192 163.381 191.637 163.008 191.179 162.752C190.731 162.485 190.235 162.352 189.691 162.352C189.147 162.352 188.651 162.48 188.203 162.736C187.755 162.992 187.397 163.365 187.131 163.856C186.864 164.347 186.731 164.923 186.731 165.584C186.731 166.256 186.864 166.843 187.131 167.344C187.397 167.835 187.755 168.213 188.203 168.48C188.651 168.736 189.147 168.864 189.691 168.864C190.235 168.864 190.731 168.736 191.179 168.48C191.637 168.213 192 167.835 192.267 167.344C192.533 166.843 192.667 166.261 192.667 165.6ZM198.055 158.16V170H196.599V158.16H198.055ZM204.258 165.6C204.258 164.693 204.44 163.904 204.802 163.232C205.165 162.549 205.666 162.021 206.306 161.648C206.957 161.275 207.698 161.088 208.53 161.088C209.608 161.088 210.493 161.349 211.186 161.872C211.89 162.395 212.354 163.12 212.578 164.048H211.01C210.861 163.515 210.568 163.093 210.13 162.784C209.704 162.475 209.17 162.32 208.53 162.32C207.698 162.32 207.026 162.608 206.514 163.184C206.002 163.749 205.746 164.555 205.746 165.6C205.746 166.656 206.002 167.472 206.514 168.048C207.026 168.624 207.698 168.912 208.53 168.912C209.17 168.912 209.704 168.763 210.13 168.464C210.557 168.165 210.85 167.739 211.01 167.184H212.578C212.344 168.08 211.874 168.8 211.17 169.344C210.466 169.877 209.586 170.144 208.53 170.144C207.698 170.144 206.957 169.957 206.306 169.584C205.666 169.211 205.165 168.683 204.802 168C204.44 167.317 204.258 166.517 204.258 165.6ZM213.977 165.584C213.977 164.688 214.158 163.904 214.521 163.232C214.884 162.549 215.38 162.021 216.009 161.648C216.649 161.275 217.358 161.088 218.137 161.088C218.905 161.088 219.572 161.253 220.137 161.584C220.702 161.915 221.124 162.331 221.401 162.832V161.232H222.873V170H221.401V168.368C221.113 168.88 220.681 169.307 220.105 169.648C219.54 169.979 218.878 170.144 218.121 170.144C217.342 170.144 216.638 169.952 216.009 169.568C215.38 169.184 214.884 168.645 214.521 167.952C214.158 167.259 213.977 166.469 213.977 165.584ZM221.401 165.6C221.401 164.939 221.268 164.363 221.001 163.872C220.734 163.381 220.372 163.008 219.913 162.752C219.465 162.485 218.969 162.352 218.425 162.352C217.881 162.352 217.385 162.48 216.937 162.736C216.489 162.992 216.132 163.365 215.865 163.856C215.598 164.347 215.465 164.923 215.465 165.584C215.465 166.256 215.598 166.843 215.865 167.344C216.132 167.835 216.489 168.213 216.937 168.48C217.385 168.736 217.881 168.864 218.425 168.864C218.969 168.864 219.465 168.736 219.913 168.48C220.372 168.213 220.734 167.835 221.001 167.344C221.268 166.843 221.401 166.261 221.401 165.6ZM226.79 162.656C227.046 162.155 227.408 161.765 227.878 161.488C228.358 161.211 228.939 161.072 229.622 161.072V162.576H229.238C227.606 162.576 226.79 163.461 226.79 165.232V170H225.334V161.232H226.79V162.656ZM239.302 165.28C239.302 165.557 239.286 165.851 239.254 166.16H232.246C232.3 167.024 232.593 167.701 233.126 168.192C233.67 168.672 234.326 168.912 235.094 168.912C235.724 168.912 236.246 168.768 236.662 168.48C237.089 168.181 237.388 167.787 237.558 167.296H239.126C238.892 168.139 238.422 168.827 237.718 169.36C237.014 169.883 236.14 170.144 235.094 170.144C234.262 170.144 233.516 169.957 232.854 169.584C232.204 169.211 231.692 168.683 231.318 168C230.945 167.307 230.758 166.507 230.758 165.6C230.758 164.693 230.94 163.899 231.302 163.216C231.665 162.533 232.172 162.011 232.822 161.648C233.484 161.275 234.241 161.088 235.094 161.088C235.926 161.088 236.662 161.269 237.302 161.632C237.942 161.995 238.433 162.496 238.774 163.136C239.126 163.765 239.302 164.48 239.302 165.28ZM237.798 164.976C237.798 164.421 237.676 163.947 237.43 163.552C237.185 163.147 236.849 162.843 236.422 162.64C236.006 162.427 235.542 162.32 235.03 162.32C234.294 162.32 233.665 162.555 233.142 163.024C232.63 163.493 232.337 164.144 232.262 164.976H237.798ZM249.058 162.432H247.218V170H245.762V162.432H244.626V161.232H245.762V160.608C245.762 159.627 246.012 158.912 246.514 158.464C247.026 158.005 247.842 157.776 248.962 157.776V158.992C248.322 158.992 247.868 159.12 247.602 159.376C247.346 159.621 247.218 160.032 247.218 160.608V161.232H249.058V162.432ZM254.579 170.144C253.758 170.144 253.011 169.957 252.339 169.584C251.678 169.211 251.155 168.683 250.771 168C250.398 167.307 250.211 166.507 250.211 165.6C250.211 164.704 250.403 163.915 250.787 163.232C251.182 162.539 251.715 162.011 252.387 161.648C253.059 161.275 253.811 161.088 254.643 161.088C255.475 161.088 256.227 161.275 256.899 161.648C257.571 162.011 258.099 162.533 258.483 163.216C258.878 163.899 259.075 164.693 259.075 165.6C259.075 166.507 258.873 167.307 258.467 168C258.073 168.683 257.534 169.211 256.851 169.584C256.169 169.957 255.411 170.144 254.579 170.144ZM254.579 168.864C255.102 168.864 255.593 168.741 256.051 168.496C256.51 168.251 256.878 167.883 257.155 167.392C257.443 166.901 257.587 166.304 257.587 165.6C257.587 164.896 257.449 164.299 257.171 163.808C256.894 163.317 256.531 162.955 256.083 162.72C255.635 162.475 255.15 162.352 254.627 162.352C254.094 162.352 253.603 162.475 253.155 162.72C252.718 162.955 252.366 163.317 252.099 163.808C251.833 164.299 251.699 164.896 251.699 165.6C251.699 166.315 251.827 166.917 252.083 167.408C252.35 167.899 252.702 168.267 253.139 168.512C253.577 168.747 254.057 168.864 254.579 168.864ZM262.446 162.656C262.702 162.155 263.064 161.765 263.534 161.488C264.014 161.211 264.595 161.072 265.278 161.072V162.576H264.894C263.262 162.576 262.446 163.461 262.446 165.232V170H260.99V161.232H262.446V162.656ZM31.7583 184.032V187.76H35.8223V188.96H31.7583V192.8H36.3023V194H30.3023V182.832H36.3023V184.032H31.7583ZM47.2734 194H45.8174L39.9614 185.12V194H38.5054V182.832H39.9614L45.8174 191.696V182.832H47.2734V194ZM56.6194 182.848V184.032H53.5794V194H52.1234V184.032H49.0674V182.848H56.6194ZM62.1333 189.584C62.1333 188.688 62.3146 187.904 62.6773 187.232C63.04 186.549 63.536 186.021 64.1653 185.648C64.8053 185.275 65.5146 185.088 66.2933 185.088C67.0613 185.088 67.728 185.253 68.2933 185.584C68.8586 185.915 69.28 186.331 69.5573 186.832V185.232H71.0293V194H69.5573V192.368C69.2693 192.88 68.8373 193.307 68.2613 193.648C67.696 193.979 67.0346 194.144 66.2773 194.144C65.4986 194.144 64.7946 193.952 64.1653 193.568C63.536 193.184 63.04 192.645 62.6773 191.952C62.3146 191.259 62.1333 190.469 62.1333 189.584ZM69.5573 189.6C69.5573 188.939 69.424 188.363 69.1573 187.872C68.8906 187.381 68.528 187.008 68.0693 186.752C67.6213 186.485 67.1253 186.352 66.5813 186.352C66.0373 186.352 65.5413 186.48 65.0933 186.736C64.6453 186.992 64.288 187.365 64.0213 187.856C63.7546 188.347 63.6213 188.923 63.6213 189.584C63.6213 190.256 63.7546 190.843 64.0213 191.344C64.288 191.835 64.6453 192.213 65.0933 192.48C65.5413 192.736 66.0373 192.864 66.5813 192.864C67.1253 192.864 67.6213 192.736 68.0693 192.48C68.528 192.213 68.8906 191.835 69.1573 191.344C69.424 190.843 69.5573 190.261 69.5573 189.6ZM77.7618 185.072C78.8285 185.072 79.6925 185.397 80.3538 186.048C81.0151 186.688 81.3458 187.616 81.3458 188.832V194H79.9058V189.04C79.9058 188.165 79.6871 187.499 79.2498 187.04C78.8125 186.571 78.2151 186.336 77.4578 186.336C76.6898 186.336 76.0765 186.576 75.6178 187.056C75.1698 187.536 74.9458 188.235 74.9458 189.152V194H73.4898V185.232H74.9458V186.48C75.2338 186.032 75.6231 185.685 76.1138 185.44C76.6151 185.195 77.1645 185.072 77.7618 185.072ZM83.1802 189.584C83.1802 188.688 83.3615 187.904 83.7242 187.232C84.0869 186.549 84.5829 186.021 85.2122 185.648C85.8522 185.275 86.5669 185.088 87.3562 185.088C88.0389 185.088 88.6735 185.248 89.2602 185.568C89.8469 185.877 90.2949 186.288 90.6042 186.8V182.16H92.0762V194H90.6042V192.352C90.3162 192.875 89.8895 193.307 89.3242 193.648C88.7589 193.979 88.0975 194.144 87.3402 194.144C86.5615 194.144 85.8522 193.952 85.2122 193.568C84.5829 193.184 84.0869 192.645 83.7242 191.952C83.3615 191.259 83.1802 190.469 83.1802 189.584ZM90.6042 189.6C90.6042 188.939 90.4709 188.363 90.2042 187.872C89.9375 187.381 89.5749 187.008 89.1162 186.752C88.6682 186.485 88.1722 186.352 87.6282 186.352C87.0842 186.352 86.5882 186.48 86.1402 186.736C85.6922 186.992 85.3349 187.365 85.0682 187.856C84.8015 188.347 84.6682 188.923 84.6682 189.584C84.6682 190.256 84.8015 190.843 85.0682 191.344C85.3349 191.835 85.6922 192.213 86.1402 192.48C86.5882 192.736 87.0842 192.864 87.6282 192.864C88.1722 192.864 88.6682 192.736 89.1162 192.48C89.5749 192.213 89.9375 191.835 90.2042 191.344C90.4709 190.843 90.6042 190.261 90.6042 189.6ZM103.154 185.072C103.816 185.072 104.413 185.216 104.946 185.504C105.48 185.781 105.896 186.203 106.194 186.768C106.504 187.333 106.658 188.021 106.658 188.832V194H105.218V189.04C105.218 188.165 105 187.499 104.562 187.04C104.125 186.571 103.528 186.336 102.77 186.336C102.002 186.336 101.389 186.576 100.93 187.056C100.482 187.536 100.258 188.235 100.258 189.152V194H98.8023V182.16H100.258V186.48C100.546 186.032 100.941 185.685 101.442 185.44C101.954 185.195 102.525 185.072 103.154 185.072ZM117.037 189.28C117.037 189.557 117.021 189.851 116.989 190.16H109.981C110.034 191.024 110.327 191.701 110.861 192.192C111.405 192.672 112.061 192.912 112.829 192.912C113.458 192.912 113.981 192.768 114.397 192.48C114.823 192.181 115.122 191.787 115.293 191.296H116.861C116.626 192.139 116.157 192.827 115.453 193.36C114.749 193.883 113.874 194.144 112.829 194.144C111.997 194.144 111.25 193.957 110.589 193.584C109.938 193.211 109.426 192.683 109.053 192C108.679 191.307 108.493 190.507 108.493 189.6C108.493 188.693 108.674 187.899 109.037 187.216C109.399 186.533 109.906 186.011 110.557 185.648C111.218 185.275 111.975 185.088 112.829 185.088C113.661 185.088 114.397 185.269 115.037 185.632C115.677 185.995 116.167 186.496 116.509 187.136C116.861 187.765 117.037 188.48 117.037 189.28ZM115.533 188.976C115.533 188.421 115.41 187.947 115.165 187.552C114.919 187.147 114.583 186.843 114.157 186.64C113.741 186.427 113.277 186.32 112.765 186.32C112.029 186.32 111.399 186.555 110.877 187.024C110.365 187.493 110.071 188.144 109.997 188.976H115.533ZM118.415 189.584C118.415 188.688 118.596 187.904 118.959 187.232C119.321 186.549 119.817 186.021 120.447 185.648C121.087 185.275 121.796 185.088 122.575 185.088C123.343 185.088 124.009 185.253 124.575 185.584C125.14 185.915 125.561 186.331 125.839 186.832V185.232H127.311V194H125.839V192.368C125.551 192.88 125.119 193.307 124.543 193.648C123.977 193.979 123.316 194.144 122.559 194.144C121.78 194.144 121.076 193.952 120.447 193.568C119.817 193.184 119.321 192.645 118.959 191.952C118.596 191.259 118.415 190.469 118.415 189.584ZM125.839 189.6C125.839 188.939 125.705 188.363 125.439 187.872C125.172 187.381 124.809 187.008 124.351 186.752C123.903 186.485 123.407 186.352 122.863 186.352C122.319 186.352 121.823 186.48 121.375 186.736C120.927 186.992 120.569 187.365 120.303 187.856C120.036 188.347 119.903 188.923 119.903 189.584C119.903 190.256 120.036 190.843 120.303 191.344C120.569 191.835 120.927 192.213 121.375 192.48C121.823 192.736 122.319 192.864 122.863 192.864C123.407 192.864 123.903 192.736 124.351 192.48C124.809 192.213 125.172 191.835 125.439 191.344C125.705 190.843 125.839 190.261 125.839 189.6ZM129.227 189.584C129.227 188.688 129.408 187.904 129.771 187.232C130.134 186.549 130.63 186.021 131.259 185.648C131.899 185.275 132.614 185.088 133.403 185.088C134.086 185.088 134.72 185.248 135.307 185.568C135.894 185.877 136.342 186.288 136.651 186.8V182.16H138.123V194H136.651V192.352C136.363 192.875 135.936 193.307 135.371 193.648C134.806 193.979 134.144 194.144 133.387 194.144C132.608 194.144 131.899 193.952 131.259 193.568C130.63 193.184 130.134 192.645 129.771 191.952C129.408 191.259 129.227 190.469 129.227 189.584ZM136.651 189.6C136.651 188.939 136.518 188.363 136.251 187.872C135.984 187.381 135.622 187.008 135.163 186.752C134.715 186.485 134.219 186.352 133.675 186.352C133.131 186.352 132.635 186.48 132.187 186.736C131.739 186.992 131.382 187.365 131.115 187.856C130.848 188.347 130.715 188.923 130.715 189.584C130.715 190.256 130.848 190.843 131.115 191.344C131.382 191.835 131.739 192.213 132.187 192.48C132.635 192.736 133.131 192.864 133.675 192.864C134.219 192.864 134.715 192.736 135.163 192.48C135.622 192.213 135.984 191.835 136.251 191.344C136.518 190.843 136.651 190.261 136.651 189.6ZM146.664 187.52V188.752H140.28V187.52H146.664ZM153.668 185.072C154.735 185.072 155.599 185.397 156.26 186.048C156.921 186.688 157.252 187.616 157.252 188.832V194H155.812V189.04C155.812 188.165 155.593 187.499 155.156 187.04C154.719 186.571 154.121 186.336 153.364 186.336C152.596 186.336 151.983 186.576 151.524 187.056C151.076 187.536 150.852 188.235 150.852 189.152V194H149.396V185.232H150.852V186.48C151.14 186.032 151.529 185.685 152.02 185.44C152.521 185.195 153.071 185.072 153.668 185.072ZM167.63 189.28C167.63 189.557 167.614 189.851 167.582 190.16H160.574C160.628 191.024 160.921 191.701 161.454 192.192C161.998 192.672 162.654 192.912 163.422 192.912C164.052 192.912 164.574 192.768 164.99 192.48C165.417 192.181 165.716 191.787 165.886 191.296H167.454C167.22 192.139 166.75 192.827 166.046 193.36C165.342 193.883 164.468 194.144 163.422 194.144C162.59 194.144 161.844 193.957 161.182 193.584C160.532 193.211 160.02 192.683 159.646 192C159.273 191.307 159.086 190.507 159.086 189.6C159.086 188.693 159.268 187.899 159.63 187.216C159.993 186.533 160.5 186.011 161.15 185.648C161.812 185.275 162.569 185.088 163.422 185.088C164.254 185.088 164.99 185.269 165.63 185.632C166.27 185.995 166.761 186.496 167.102 187.136C167.454 187.765 167.63 188.48 167.63 189.28ZM166.126 188.976C166.126 188.421 166.004 187.947 165.758 187.552C165.513 187.147 165.177 186.843 164.75 186.64C164.334 186.427 163.87 186.32 163.358 186.32C162.622 186.32 161.993 186.555 161.47 187.024C160.958 187.493 160.665 188.144 160.59 188.976H166.126ZM169.008 189.6C169.008 188.693 169.19 187.904 169.552 187.232C169.915 186.549 170.416 186.021 171.056 185.648C171.707 185.275 172.448 185.088 173.28 185.088C174.358 185.088 175.243 185.349 175.936 185.872C176.64 186.395 177.104 187.12 177.328 188.048H175.76C175.611 187.515 175.318 187.093 174.88 186.784C174.454 186.475 173.92 186.32 173.28 186.32C172.448 186.32 171.776 186.608 171.264 187.184C170.752 187.749 170.496 188.555 170.496 189.6C170.496 190.656 170.752 191.472 171.264 192.048C171.776 192.624 172.448 192.912 173.28 192.912C173.92 192.912 174.454 192.763 174.88 192.464C175.307 192.165 175.6 191.739 175.76 191.184H177.328C177.094 192.08 176.624 192.8 175.92 193.344C175.216 193.877 174.336 194.144 173.28 194.144C172.448 194.144 171.707 193.957 171.056 193.584C170.416 193.211 169.915 192.683 169.552 192C169.19 191.317 169.008 190.517 169.008 189.6ZM184.167 194L180.727 190.128V194H179.271V182.16H180.727V189.12L184.103 185.232H186.135L182.007 189.6L186.151 194H184.167ZM191.227 189.6C191.227 188.693 191.408 187.904 191.771 187.232C192.134 186.549 192.635 186.021 193.275 185.648C193.926 185.275 194.667 185.088 195.499 185.088C196.576 185.088 197.462 185.349 198.155 185.872C198.859 186.395 199.323 187.12 199.547 188.048H197.979C197.83 187.515 197.536 187.093 197.099 186.784C196.672 186.475 196.139 186.32 195.499 186.32C194.667 186.32 193.995 186.608 193.483 187.184C192.971 187.749 192.715 188.555 192.715 189.6C192.715 190.656 192.971 191.472 193.483 192.048C193.995 192.624 194.667 192.912 195.499 192.912C196.139 192.912 196.672 192.763 197.099 192.464C197.526 192.165 197.819 191.739 197.979 191.184H199.547C199.312 192.08 198.843 192.8 198.139 193.344C197.435 193.877 196.555 194.144 195.499 194.144C194.667 194.144 193.926 193.957 193.275 193.584C192.635 193.211 192.134 192.683 191.771 192C191.408 191.317 191.227 190.517 191.227 189.6ZM205.314 194.144C204.492 194.144 203.746 193.957 203.074 193.584C202.412 193.211 201.89 192.683 201.506 192C201.132 191.307 200.946 190.507 200.946 189.6C200.946 188.704 201.138 187.915 201.522 187.232C201.916 186.539 202.45 186.011 203.122 185.648C203.794 185.275 204.546 185.088 205.378 185.088C206.21 185.088 206.962 185.275 207.634 185.648C208.306 186.011 208.834 186.533 209.218 187.216C209.612 187.899 209.81 188.693 209.81 189.6C209.81 190.507 209.607 191.307 209.202 192C208.807 192.683 208.268 193.211 207.586 193.584C206.903 193.957 206.146 194.144 205.314 194.144ZM205.314 192.864C205.836 192.864 206.327 192.741 206.786 192.496C207.244 192.251 207.612 191.883 207.89 191.392C208.178 190.901 208.322 190.304 208.322 189.6C208.322 188.896 208.183 188.299 207.906 187.808C207.628 187.317 207.266 186.955 206.818 186.72C206.37 186.475 205.884 186.352 205.362 186.352C204.828 186.352 204.338 186.475 203.89 186.72C203.452 186.955 203.1 187.317 202.834 187.808C202.567 188.299 202.434 188.896 202.434 189.6C202.434 190.315 202.562 190.917 202.818 191.408C203.084 191.899 203.436 192.267 203.874 192.512C204.311 192.747 204.791 192.864 205.314 192.864ZM215.996 185.072C217.063 185.072 217.927 185.397 218.588 186.048C219.25 186.688 219.58 187.616 219.58 188.832V194H218.14V189.04C218.14 188.165 217.922 187.499 217.484 187.04C217.047 186.571 216.45 186.336 215.692 186.336C214.924 186.336 214.311 186.576 213.852 187.056C213.404 187.536 213.18 188.235 213.18 189.152V194H211.724V185.232H213.18V186.48C213.468 186.032 213.858 185.685 214.348 185.44C214.85 185.195 215.399 185.072 215.996 185.072ZM221.415 189.584C221.415 188.688 221.596 187.904 221.959 187.232C222.321 186.549 222.817 186.021 223.447 185.648C224.087 185.275 224.801 185.088 225.591 185.088C226.273 185.088 226.908 185.248 227.495 185.568C228.081 185.877 228.529 186.288 228.839 186.8V182.16H230.311V194H228.839V192.352C228.551 192.875 228.124 193.307 227.559 193.648C226.993 193.979 226.332 194.144 225.575 194.144C224.796 194.144 224.087 193.952 223.447 193.568C222.817 193.184 222.321 192.645 221.959 191.952C221.596 191.259 221.415 190.469 221.415 189.584ZM228.839 189.6C228.839 188.939 228.705 188.363 228.439 187.872C228.172 187.381 227.809 187.008 227.351 186.752C226.903 186.485 226.407 186.352 225.863 186.352C225.319 186.352 224.823 186.48 224.375 186.736C223.927 186.992 223.569 187.365 223.303 187.856C223.036 188.347 222.903 188.923 222.903 189.584C222.903 190.256 223.036 190.843 223.303 191.344C223.569 191.835 223.927 192.213 224.375 192.48C224.823 192.736 225.319 192.864 225.863 192.864C226.407 192.864 226.903 192.736 227.351 192.48C227.809 192.213 228.172 191.835 228.439 191.344C228.705 190.843 228.839 190.261 228.839 189.6ZM233.523 183.808C233.246 183.808 233.011 183.712 232.819 183.52C232.627 183.328 232.531 183.093 232.531 182.816C232.531 182.539 232.627 182.304 232.819 182.112C233.011 181.92 233.246 181.824 233.523 181.824C233.79 181.824 234.014 181.92 234.195 182.112C234.387 182.304 234.483 182.539 234.483 182.816C234.483 183.093 234.387 183.328 234.195 183.52C234.014 183.712 233.79 183.808 233.523 183.808ZM234.227 185.232V194H232.771V185.232H234.227ZM238.485 186.432V191.6C238.485 192.027 238.575 192.331 238.757 192.512C238.938 192.683 239.253 192.768 239.701 192.768H240.773V194H239.461C238.65 194 238.042 193.813 237.637 193.44C237.231 193.067 237.029 192.453 237.029 191.6V186.432H235.893V185.232H237.029V183.024H238.485V185.232H240.773V186.432H238.485ZM243.289 183.808C243.011 183.808 242.777 183.712 242.585 183.52C242.393 183.328 242.297 183.093 242.297 182.816C242.297 182.539 242.393 182.304 242.585 182.112C242.777 181.92 243.011 181.824 243.289 181.824C243.555 181.824 243.779 181.92 243.961 182.112C244.153 182.304 244.249 182.539 244.249 182.816C244.249 183.093 244.153 183.328 243.961 183.52C243.779 183.712 243.555 183.808 243.289 183.808ZM243.993 185.232V194H242.537V185.232H243.993ZM250.298 194.144C249.477 194.144 248.73 193.957 248.058 193.584C247.397 193.211 246.874 192.683 246.49 192C246.117 191.307 245.93 190.507 245.93 189.6C245.93 188.704 246.122 187.915 246.506 187.232C246.901 186.539 247.434 186.011 248.106 185.648C248.778 185.275 249.53 185.088 250.362 185.088C251.194 185.088 251.946 185.275 252.618 185.648C253.29 186.011 253.818 186.533 254.202 187.216C254.597 187.899 254.794 188.693 254.794 189.6C254.794 190.507 254.592 191.307 254.186 192C253.792 192.683 253.253 193.211 252.57 193.584C251.888 193.957 251.13 194.144 250.298 194.144ZM250.298 192.864C250.821 192.864 251.312 192.741 251.77 192.496C252.229 192.251 252.597 191.883 252.874 191.392C253.162 190.901 253.306 190.304 253.306 189.6C253.306 188.896 253.168 188.299 252.89 187.808C252.613 187.317 252.25 186.955 251.802 186.72C251.354 186.475 250.869 186.352 250.346 186.352C249.813 186.352 249.322 186.475 248.874 186.72C248.437 186.955 248.085 187.317 247.818 187.808C247.552 188.299 247.418 188.896 247.418 189.6C247.418 190.315 247.546 190.917 247.802 191.408C248.069 191.899 248.421 192.267 248.858 192.512C249.296 192.747 249.776 192.864 250.298 192.864ZM260.981 185.072C262.047 185.072 262.911 185.397 263.573 186.048C264.234 186.688 264.565 187.616 264.565 188.832V194H263.125V189.04C263.125 188.165 262.906 187.499 262.469 187.04C262.031 186.571 261.434 186.336 260.677 186.336C259.909 186.336 259.295 186.576 258.837 187.056C258.389 187.536 258.165 188.235 258.165 189.152V194H256.709V185.232H258.165V186.48C258.453 186.032 258.842 185.685 259.333 185.44C259.834 185.195 260.383 185.072 260.981 185.072ZM270.047 194.144C269.375 194.144 268.772 194.032 268.239 193.808C267.706 193.573 267.284 193.253 266.975 192.848C266.666 192.432 266.495 191.957 266.463 191.424H267.967C268.01 191.861 268.212 192.219 268.575 192.496C268.948 192.773 269.434 192.912 270.031 192.912C270.586 192.912 271.023 192.789 271.343 192.544C271.663 192.299 271.823 191.989 271.823 191.616C271.823 191.232 271.652 190.949 271.311 190.768C270.97 190.576 270.442 190.389 269.727 190.208C269.076 190.037 268.543 189.867 268.127 189.696C267.722 189.515 267.37 189.253 267.071 188.912C266.783 188.56 266.639 188.101 266.639 187.536C266.639 187.088 266.772 186.677 267.039 186.304C267.306 185.931 267.684 185.637 268.175 185.424C268.666 185.2 269.226 185.088 269.855 185.088C270.826 185.088 271.61 185.333 272.207 185.824C272.804 186.315 273.124 186.987 273.167 187.84H271.711C271.679 187.381 271.492 187.013 271.151 186.736C270.82 186.459 270.372 186.32 269.807 186.32C269.284 186.32 268.868 186.432 268.559 186.656C268.25 186.88 268.095 187.173 268.095 187.536C268.095 187.824 268.186 188.064 268.367 188.256C268.559 188.437 268.794 188.587 269.071 188.704C269.359 188.811 269.754 188.933 270.255 189.072C270.884 189.243 271.396 189.413 271.791 189.584C272.186 189.744 272.522 189.989 272.799 190.32C273.087 190.651 273.236 191.083 273.247 191.616C273.247 192.096 273.114 192.528 272.847 192.912C272.58 193.296 272.202 193.6 271.711 193.824C271.231 194.037 270.676 194.144 270.047 194.144ZM275.766 194.096C275.489 194.096 275.254 194 275.062 193.808C274.87 193.616 274.774 193.381 274.774 193.104C274.774 192.827 274.87 192.592 275.062 192.4C275.254 192.208 275.489 192.112 275.766 192.112C276.033 192.112 276.257 192.208 276.438 192.4C276.63 192.592 276.726 192.827 276.726 193.104C276.726 193.381 276.63 193.616 276.438 193.808C276.257 194 276.033 194.096 275.766 194.096Z" fill="#FFF4ED"/>
</svg>
