<svg width="335" height="176" viewBox="0 0 335 176" fill="none" xmlns="http://www.w3.org/2000/svg">
<path d="M26.0414 26.168C24.4734 26.168 23.0334 25.8 21.7214 25.064C20.4094 24.328 19.3694 23.312 18.6014 22.016C17.8334 20.704 17.4494 19.224 17.4494 17.576C17.4494 15.944 17.8334 14.48 18.6014 13.184C19.3694 11.872 20.4094 10.848 21.7214 10.112C23.0334 9.376 24.4734 9.008 26.0414 9.008C27.6254 9.008 29.0654 9.376 30.3614 10.112C31.6734 10.848 32.7054 11.872 33.4574 13.184C34.2254 14.48 34.6094 15.944 34.6094 17.576C34.6094 19.224 34.2254 20.704 33.4574 22.016C32.7054 23.312 31.6734 24.328 30.3614 25.064C29.0494 25.8 27.6094 26.168 26.0414 26.168ZM26.0414 23.168C27.0494 23.168 27.9374 22.944 28.7054 22.496C29.4734 22.032 30.0734 21.376 30.5054 20.528C30.9374 19.68 31.1534 18.696 31.1534 17.576C31.1534 16.456 30.9374 15.48 30.5054 14.648C30.0734 13.8 29.4734 13.152 28.7054 12.704C27.9374 12.256 27.0494 12.032 26.0414 12.032C25.0334 12.032 24.1374 12.256 23.3534 12.704C22.5854 13.152 21.9854 13.8 21.5534 14.648C21.1214 15.48 20.9054 16.456 20.9054 17.576C20.9054 18.696 21.1214 19.68 21.5534 20.528C21.9854 21.376 22.5854 22.032 23.3534 22.496C24.1374 22.944 25.0334 23.168 26.0414 23.168ZM40.4691 14.648C40.9011 14.008 41.4931 13.488 42.2451 13.088C43.0131 12.688 43.8851 12.488 44.8611 12.488C45.9971 12.488 47.0211 12.768 47.9331 13.328C48.8611 13.888 49.5891 14.688 50.1171 15.728C50.6611 16.752 50.9331 17.944 50.9331 19.304C50.9331 20.664 50.6611 21.872 50.1171 22.928C49.5891 23.968 48.8611 24.776 47.9331 25.352C47.0211 25.928 45.9971 26.216 44.8611 26.216C43.8691 26.216 42.9971 26.024 42.2451 25.64C41.5091 25.24 40.9171 24.728 40.4691 24.104V26H37.1091V8.24H40.4691V14.648ZM47.5011 19.304C47.5011 18.504 47.3331 17.816 46.9971 17.24C46.6771 16.648 46.2451 16.2 45.7011 15.896C45.1731 15.592 44.5971 15.44 43.9731 15.44C43.3651 15.44 42.7891 15.6 42.2451 15.92C41.7171 16.224 41.2851 16.672 40.9491 17.264C40.6291 17.856 40.4691 18.552 40.4691 19.352C40.4691 20.152 40.6291 20.848 40.9491 21.44C41.2851 22.032 41.7171 22.488 42.2451 22.808C42.7891 23.112 43.3651 23.264 43.9731 23.264C44.5971 23.264 45.1731 23.104 45.7011 22.784C46.2451 22.464 46.6771 22.008 46.9971 21.416C47.3331 20.824 47.5011 20.12 47.5011 19.304ZM58.4628 26.216C57.3748 26.216 56.3988 26.024 55.5348 25.64C54.6708 25.24 53.9828 24.704 53.4708 24.032C52.9748 23.36 52.7028 22.616 52.6548 21.8H56.0388C56.1028 22.312 56.3508 22.736 56.7828 23.072C57.2308 23.408 57.7828 23.576 58.4388 23.576C59.0788 23.576 59.5748 23.448 59.9268 23.192C60.2948 22.936 60.4788 22.608 60.4788 22.208C60.4788 21.776 60.2548 21.456 59.8068 21.248C59.3748 21.024 58.6788 20.784 57.7188 20.528C56.7268 20.288 55.9108 20.04 55.2708 19.784C54.6468 19.528 54.1028 19.136 53.6388 18.608C53.1908 18.08 52.9668 17.368 52.9668 16.472C52.9668 15.736 53.1748 15.064 53.5908 14.456C54.0228 13.848 54.6308 13.368 55.4148 13.016C56.2148 12.664 57.1508 12.488 58.2228 12.488C59.8068 12.488 61.0708 12.888 62.0148 13.688C62.9588 14.472 63.4788 15.536 63.5748 16.88H60.3588C60.3108 16.352 60.0868 15.936 59.6868 15.632C59.3028 15.312 58.7828 15.152 58.1268 15.152C57.5188 15.152 57.0468 15.264 56.7108 15.488C56.3908 15.712 56.2308 16.024 56.2308 16.424C56.2308 16.872 56.4548 17.216 56.9028 17.456C57.3508 17.68 58.0468 17.912 58.9908 18.152C59.9508 18.392 60.7428 18.64 61.3668 18.896C61.9908 19.152 62.5268 19.552 62.9748 20.096C63.4388 20.624 63.6788 21.328 63.6948 22.208C63.6948 22.976 63.4788 23.664 63.0468 24.272C62.6308 24.88 62.0228 25.36 61.2228 25.712C60.4388 26.048 59.5188 26.216 58.4628 26.216ZM70.3649 15.464V21.896C70.3649 22.344 70.4689 22.672 70.6769 22.88C70.9009 23.072 71.2689 23.168 71.7809 23.168H73.3409V26H71.2289C68.3969 26 66.9809 24.624 66.9809 21.872V15.464H65.3969V12.704H66.9809V9.416H70.3649V12.704H73.3409V15.464H70.3649ZM88.1176 19.064C88.1176 19.544 88.0856 19.976 88.0216 20.36H78.3016C78.3816 21.32 78.7176 22.072 79.3096 22.616C79.9016 23.16 80.6296 23.432 81.4936 23.432C82.7416 23.432 83.6296 22.896 84.1576 21.824H87.7816C87.3976 23.104 86.6616 24.16 85.5736 24.992C84.4856 25.808 83.1496 26.216 81.5656 26.216C80.2856 26.216 79.1336 25.936 78.1096 25.376C77.1016 24.8 76.3096 23.992 75.7336 22.952C75.1736 21.912 74.8936 20.712 74.8936 19.352C74.8936 17.976 75.1736 16.768 75.7336 15.728C76.2936 14.688 77.0776 13.888 78.0856 13.328C79.0936 12.768 80.2536 12.488 81.5656 12.488C82.8296 12.488 83.9576 12.76 84.9496 13.304C85.9576 13.848 86.7336 14.624 87.2776 15.632C87.8376 16.624 88.1176 17.768 88.1176 19.064ZM84.6376 18.104C84.6216 17.24 84.3096 16.552 83.7016 16.04C83.0936 15.512 82.3496 15.248 81.4696 15.248C80.6376 15.248 79.9336 15.504 79.3576 16.016C78.7976 16.512 78.4536 17.208 78.3256 18.104H84.6376ZM94.4821 15.464V21.896C94.4821 22.344 94.5861 22.672 94.7941 22.88C95.0181 23.072 95.3861 23.168 95.8981 23.168H97.4581V26H95.3461C92.5141 26 91.0981 24.624 91.0981 21.872V15.464H89.5141V12.704H91.0981V9.416H94.4821V12.704H97.4581V15.464H94.4821ZM103.235 14.768C103.667 14.064 104.227 13.512 104.915 13.112C105.619 12.712 106.419 12.512 107.315 12.512V16.04H106.427C105.371 16.04 104.571 16.288 104.027 16.784C103.499 17.28 103.235 18.144 103.235 19.376V26H99.8748V12.704H103.235V14.768ZM111.282 11.12C110.69 11.12 110.194 10.936 109.794 10.568C109.41 10.184 109.218 9.712 109.218 9.152C109.218 8.592 109.41 8.128 109.794 7.76C110.194 7.376 110.69 7.184 111.282 7.184C111.874 7.184 112.362 7.376 112.746 7.76C113.146 8.128 113.346 8.592 113.346 9.152C113.346 9.712 113.146 10.184 112.746 10.568C112.362 10.936 111.874 11.12 111.282 11.12ZM112.938 12.704V26H109.578V12.704H112.938ZM115.394 19.352C115.394 17.976 115.674 16.776 116.234 15.752C116.794 14.712 117.57 13.912 118.562 13.352C119.554 12.776 120.69 12.488 121.97 12.488C123.618 12.488 124.978 12.904 126.05 13.736C127.138 14.552 127.866 15.704 128.234 17.192H124.61C124.418 16.616 124.09 16.168 123.626 15.848C123.178 15.512 122.618 15.344 121.946 15.344C120.986 15.344 120.226 15.696 119.666 16.4C119.106 17.088 118.826 18.072 118.826 19.352C118.826 20.616 119.106 21.6 119.666 22.304C120.226 22.992 120.986 23.336 121.946 23.336C123.306 23.336 124.194 22.728 124.61 21.512H128.234C127.866 22.952 127.138 24.096 126.05 24.944C124.962 25.792 123.602 26.216 121.97 26.216C120.69 26.216 119.554 25.936 118.562 25.376C117.57 24.8 116.794 24 116.234 22.976C115.674 21.936 115.394 20.728 115.394 19.352ZM135.783 26.216C134.695 26.216 133.719 26.024 132.855 25.64C131.991 25.24 131.303 24.704 130.791 24.032C130.295 23.36 130.023 22.616 129.975 21.8H133.359C133.423 22.312 133.671 22.736 134.103 23.072C134.551 23.408 135.103 23.576 135.759 23.576C136.399 23.576 136.895 23.448 137.247 23.192C137.615 22.936 137.799 22.608 137.799 22.208C137.799 21.776 137.575 21.456 137.127 21.248C136.695 21.024 135.999 20.784 135.039 20.528C134.047 20.288 133.231 20.04 132.591 19.784C131.967 19.528 131.423 19.136 130.959 18.608C130.511 18.08 130.287 17.368 130.287 16.472C130.287 15.736 130.495 15.064 130.911 14.456C131.343 13.848 131.951 13.368 132.735 13.016C133.535 12.664 134.471 12.488 135.543 12.488C137.127 12.488 138.391 12.888 139.335 13.688C140.279 14.472 140.799 15.536 140.895 16.88H137.679C137.631 16.352 137.407 15.936 137.007 15.632C136.623 15.312 136.103 15.152 135.447 15.152C134.839 15.152 134.367 15.264 134.031 15.488C133.711 15.712 133.551 16.024 133.551 16.424C133.551 16.872 133.775 17.216 134.223 17.456C134.671 17.68 135.367 17.912 136.311 18.152C137.271 18.392 138.063 18.64 138.687 18.896C139.311 19.152 139.847 19.552 140.295 20.096C140.759 20.624 140.999 21.328 141.015 22.208C141.015 22.976 140.799 23.664 140.367 24.272C139.951 24.88 139.343 25.36 138.543 25.712C137.759 26.048 136.839 26.216 135.783 26.216ZM162.38 26L160.556 24.2C159.004 25.592 157.108 26.288 154.868 26.288C153.636 26.288 152.548 26.08 151.604 25.664C150.676 25.232 149.956 24.632 149.444 23.864C148.932 23.08 148.676 22.176 148.676 21.152C148.676 20.048 148.988 19.056 149.612 18.176C150.236 17.296 151.156 16.584 152.372 16.04C151.94 15.512 151.628 15.008 151.436 14.528C151.244 14.032 151.148 13.504 151.148 12.944C151.148 12.176 151.348 11.488 151.748 10.88C152.148 10.256 152.716 9.768 153.452 9.416C154.204 9.064 155.076 8.888 156.068 8.888C157.076 8.888 157.94 9.08 158.66 9.464C159.38 9.848 159.916 10.36 160.268 11C160.62 11.64 160.772 12.352 160.724 13.136H157.46C157.476 12.608 157.348 12.208 157.076 11.936C156.804 11.648 156.436 11.504 155.972 11.504C155.524 11.504 155.148 11.64 154.844 11.912C154.556 12.168 154.412 12.504 154.412 12.92C154.412 13.32 154.532 13.72 154.772 14.12C155.012 14.504 155.404 14.984 155.948 15.56L160.172 19.736C160.204 19.704 160.228 19.672 160.244 19.64C160.26 19.608 160.276 19.576 160.292 19.544L161.66 17.264H165.164L163.484 20.216C163.164 20.84 162.82 21.432 162.452 21.992L166.508 26H162.38ZM154.964 23.504C156.276 23.504 157.436 23.04 158.444 22.112L154.316 18.032C152.764 18.72 151.988 19.696 151.988 20.96C151.988 21.68 152.26 22.288 152.804 22.784C153.348 23.264 154.068 23.504 154.964 23.504ZM185.554 14.288C185.17 13.584 184.642 13.048 183.97 12.68C183.298 12.312 182.514 12.128 181.618 12.128C180.626 12.128 179.746 12.352 178.978 12.8C178.21 13.248 177.61 13.888 177.178 14.72C176.746 15.552 176.53 16.512 176.53 17.6C176.53 18.72 176.746 19.696 177.178 20.528C177.626 21.36 178.242 22 179.026 22.448C179.81 22.896 180.722 23.12 181.762 23.12C183.042 23.12 184.09 22.784 184.906 22.112C185.722 21.424 186.258 20.472 186.514 19.256H180.754V16.688H189.826V19.616C189.602 20.784 189.122 21.864 188.386 22.856C187.65 23.848 186.698 24.648 185.53 25.256C184.378 25.848 183.082 26.144 181.642 26.144C180.026 26.144 178.562 25.784 177.25 25.064C175.954 24.328 174.93 23.312 174.178 22.016C173.442 20.72 173.074 19.248 173.074 17.6C173.074 15.952 173.442 14.48 174.178 13.184C174.93 11.872 175.954 10.856 177.25 10.136C178.562 9.4 180.018 9.032 181.618 9.032C183.506 9.032 185.146 9.496 186.538 10.424C187.93 11.336 188.89 12.624 189.418 14.288H185.554ZM205.032 12.704L196.8 32.288H193.224L196.104 25.664L190.776 12.704H194.544L197.976 21.992L201.456 12.704H205.032ZM214.212 12.512C215.796 12.512 217.076 13.016 218.052 14.024C219.028 15.016 219.516 16.408 219.516 18.2V26H216.156V18.656C216.156 17.6 215.892 16.792 215.364 16.232C214.836 15.656 214.116 15.368 213.204 15.368C212.276 15.368 211.54 15.656 210.996 16.232C210.468 16.792 210.204 17.6 210.204 18.656V26H206.844V12.704H210.204V14.36C210.652 13.784 211.22 13.336 211.908 13.016C212.612 12.68 213.38 12.512 214.212 12.512ZM235.071 19.064C235.071 19.544 235.039 19.976 234.975 20.36H225.255C225.335 21.32 225.671 22.072 226.263 22.616C226.855 23.16 227.583 23.432 228.447 23.432C229.695 23.432 230.583 22.896 231.111 21.824H234.735C234.351 23.104 233.615 24.16 232.527 24.992C231.439 25.808 230.103 26.216 228.519 26.216C227.239 26.216 226.087 25.936 225.063 25.376C224.055 24.8 223.263 23.992 222.687 22.952C222.127 21.912 221.847 20.712 221.847 19.352C221.847 17.976 222.127 16.768 222.687 15.728C223.247 14.688 224.031 13.888 225.039 13.328C226.047 12.768 227.207 12.488 228.519 12.488C229.783 12.488 230.911 12.76 231.903 13.304C232.911 13.848 233.687 14.624 234.231 15.632C234.791 16.624 235.071 17.768 235.071 19.064ZM231.591 18.104C231.575 17.24 231.263 16.552 230.655 16.04C230.047 15.512 229.303 15.248 228.423 15.248C227.591 15.248 226.887 15.504 226.311 16.016C225.751 16.512 225.407 17.208 225.279 18.104H231.591ZM236.659 19.352C236.659 17.976 236.939 16.776 237.499 15.752C238.059 14.712 238.835 13.912 239.827 13.352C240.819 12.776 241.955 12.488 243.235 12.488C244.883 12.488 246.243 12.904 247.315 13.736C248.403 14.552 249.131 15.704 249.499 17.192H245.875C245.683 16.616 245.355 16.168 244.891 15.848C244.443 15.512 243.883 15.344 243.211 15.344C242.251 15.344 241.491 15.696 240.931 16.4C240.371 17.088 240.091 18.072 240.091 19.352C240.091 20.616 240.371 21.6 240.931 22.304C241.491 22.992 242.251 23.336 243.211 23.336C244.571 23.336 245.459 22.728 245.875 21.512H249.499C249.131 22.952 248.403 24.096 247.315 24.944C246.227 25.792 244.867 26.216 243.235 26.216C241.955 26.216 240.819 25.936 239.827 25.376C238.835 24.8 238.059 24 237.499 22.976C236.939 21.936 236.659 20.728 236.659 19.352ZM257.865 26.216C256.585 26.216 255.433 25.936 254.409 25.376C253.385 24.8 252.577 23.992 251.985 22.952C251.409 21.912 251.121 20.712 251.121 19.352C251.121 17.992 251.417 16.792 252.009 15.752C252.617 14.712 253.441 13.912 254.481 13.352C255.521 12.776 256.681 12.488 257.961 12.488C259.241 12.488 260.401 12.776 261.441 13.352C262.481 13.912 263.297 14.712 263.889 15.752C264.497 16.792 264.801 17.992 264.801 19.352C264.801 20.712 264.489 21.912 263.865 22.952C263.257 23.992 262.425 24.8 261.369 25.376C260.329 25.936 259.161 26.216 257.865 26.216ZM257.865 23.288C258.473 23.288 259.041 23.144 259.569 22.856C260.113 22.552 260.545 22.104 260.865 21.512C261.185 20.92 261.345 20.2 261.345 19.352C261.345 18.088 261.009 17.12 260.337 16.448C259.681 15.76 258.873 15.416 257.913 15.416C256.953 15.416 256.145 15.76 255.489 16.448C254.849 17.12 254.529 18.088 254.529 19.352C254.529 20.616 254.841 21.592 255.465 22.28C256.105 22.952 256.905 23.288 257.865 23.288ZM270.625 8.24V26H267.265V8.24H270.625ZM279.849 26.216C278.569 26.216 277.417 25.936 276.393 25.376C275.369 24.8 274.561 23.992 273.969 22.952C273.393 21.912 273.105 20.712 273.105 19.352C273.105 17.992 273.401 16.792 273.993 15.752C274.601 14.712 275.425 13.912 276.465 13.352C277.505 12.776 278.665 12.488 279.945 12.488C281.225 12.488 282.385 12.776 283.425 13.352C284.465 13.912 285.281 14.712 285.873 15.752C286.481 16.792 286.785 17.992 286.785 19.352C286.785 20.712 286.473 21.912 285.849 22.952C285.241 23.992 284.409 24.8 283.353 25.376C282.313 25.936 281.145 26.216 279.849 26.216ZM279.849 23.288C280.457 23.288 281.025 23.144 281.553 22.856C282.097 22.552 282.529 22.104 282.849 21.512C283.169 20.92 283.329 20.2 283.329 19.352C283.329 18.088 282.993 17.12 282.321 16.448C281.665 15.76 280.857 15.416 279.897 15.416C278.937 15.416 278.129 15.76 277.473 16.448C276.833 17.12 276.513 18.088 276.513 19.352C276.513 20.616 276.825 21.592 277.449 22.28C278.089 22.952 278.889 23.288 279.849 23.288ZM294.458 12.488C295.45 12.488 296.322 12.688 297.074 13.088C297.826 13.472 298.418 13.976 298.85 14.6V12.704H302.234V26.096C302.234 27.328 301.986 28.424 301.49 29.384C300.994 30.36 300.25 31.128 299.258 31.688C298.266 32.264 297.066 32.552 295.658 32.552C293.77 32.552 292.218 32.112 291.002 31.232C289.802 30.352 289.122 29.152 288.962 27.632H292.298C292.474 28.24 292.85 28.72 293.426 29.072C294.018 29.44 294.73 29.624 295.562 29.624C296.538 29.624 297.33 29.328 297.938 28.736C298.546 28.16 298.85 27.28 298.85 26.096V24.032C298.418 24.656 297.818 25.176 297.05 25.592C296.298 26.008 295.434 26.216 294.458 26.216C293.338 26.216 292.314 25.928 291.386 25.352C290.458 24.776 289.722 23.968 289.178 22.928C288.65 21.872 288.386 20.664 288.386 19.304C288.386 17.96 288.65 16.768 289.178 15.728C289.722 14.688 290.45 13.888 291.362 13.328C292.29 12.768 293.322 12.488 294.458 12.488ZM298.85 19.352C298.85 18.536 298.69 17.84 298.37 17.264C298.05 16.672 297.618 16.224 297.074 15.92C296.53 15.6 295.946 15.44 295.322 15.44C294.698 15.44 294.122 15.592 293.594 15.896C293.066 16.2 292.634 16.648 292.298 17.24C291.978 17.816 291.818 18.504 291.818 19.304C291.818 20.104 291.978 20.808 292.298 21.416C292.634 22.008 293.066 22.464 293.594 22.784C294.138 23.104 294.714 23.264 295.322 23.264C295.946 23.264 296.53 23.112 297.074 22.808C297.618 22.488 298.05 22.04 298.37 21.464C298.69 20.872 298.85 20.168 298.85 19.352ZM318.235 12.704L310.003 32.288H306.427L309.307 25.664L303.979 12.704H307.747L311.179 21.992L314.659 12.704H318.235Z" fill="#FFF4ED"/>
<path d="M136.836 70.5819C135.508 72.9452 134.453 75.4647 133.887 78.121C133.613 79.3905 133.418 80.7186 133.398 82.0272C133.379 83.414 133.477 84.8007 133.711 86.1483C134.102 88.453 134.844 90.6796 135.82 92.8085C136.855 95.0546 138.184 97.164 139.668 99.1366C141.27 101.246 143.066 103.199 144.961 105.035C146.934 106.93 149.004 108.687 151.152 110.367C152.246 111.207 153.359 112.047 154.492 112.848C154.57 112.906 154.609 112.945 154.707 112.945C154.785 112.945 154.863 112.926 154.922 112.906C155.078 112.887 155.215 112.848 155.371 112.828C155.664 112.769 155.957 112.691 156.27 112.633C156.855 112.496 157.461 112.32 158.027 112.144C160.469 111.383 162.812 110.289 164.941 108.883C166.914 107.574 168.75 105.992 170.156 104.078C171.465 102.32 172.695 100.133 172.187 97.8671C171.973 96.9491 171.543 96.1093 171.113 95.2499C170.742 94.5077 170.391 93.746 170.156 92.9452C169.863 92.0272 169.727 91.0702 169.746 90.1132C169.766 88.8436 170.039 87.6132 170.41 86.4022C171.055 84.3124 171.973 82.3007 172.559 80.1718C173.047 78.3944 173.125 76.578 172.52 74.8007C171.738 72.5155 170.156 70.5624 168.535 68.8046C166.836 66.9686 164.863 65.2694 162.539 64.2343C161.445 63.746 160.273 63.4335 159.082 63.3554C157.793 63.2772 156.504 63.4725 155.234 63.7069C153.086 64.1171 150.996 64.7616 148.809 65.035C146.855 65.2694 144.902 65.1913 142.93 65.1718C142.598 65.1718 142.266 65.1522 141.934 65.1718C141.68 65.1718 141.523 65.2694 141.309 65.4257C140.332 66.1679 139.473 67.1444 138.672 68.0819C137.969 68.8632 137.383 69.6835 136.836 70.5819ZM151.68 82.1444C151.387 81.3632 152.559 80.8163 152.949 81.5585C153.047 81.7343 153.086 81.9296 153.125 82.1249C153.34 83.0233 153.262 83.9804 152.773 84.7811C152.402 85.3866 151.855 85.7772 151.25 86.1093C150.898 86.3046 150.684 86.6561 150.547 87.0468C150.215 88.0233 150.293 89.1366 150.391 90.1327C150.469 90.8944 150.605 91.6366 150.762 92.3788C150.859 92.8476 150.586 93.3554 150.039 93.3163C149.648 93.2772 149.453 92.9843 149.375 92.6327C149.004 90.9335 148.77 89.0585 149.102 87.3397C149.277 86.4022 149.668 85.4257 150.508 84.9179C150.801 84.7421 151.094 84.6054 151.328 84.3515C151.523 84.1366 151.66 83.9022 151.738 83.6288C151.855 83.2186 151.836 82.789 151.738 82.3788C151.738 82.2811 151.68 82.203 151.68 82.1444ZM158.184 86.8905C157.656 87.164 157.109 87.3202 156.543 87.4374C156.309 87.4765 156.055 87.496 155.84 87.5741C155.781 87.5936 155.684 87.6327 155.664 87.6718C155.625 87.7499 155.684 87.7694 155.742 87.8476C156.387 88.5116 156.016 89.5663 155.684 90.3085C156.016 89.8007 156.621 90.0155 157.07 90.2108C157.305 90.3085 157.52 90.4452 157.734 90.5624C157.93 90.6796 158.184 90.8749 158.418 90.914C158.535 90.9335 158.633 90.8554 158.75 90.7968C159.004 90.6796 159.277 90.621 159.57 90.6405C160.078 90.6796 160.527 90.9335 160.898 91.2655C161.211 91.539 161.445 91.871 161.66 92.2226C161.875 92.5741 162.109 92.828 162.48 93.0038C163.262 93.3749 164.18 93.414 164.98 93.7655C165.937 94.1757 166.582 94.9179 167.09 95.8163C167.656 96.8319 168.047 97.9647 168.184 99.1366C168.457 101.266 167.969 103.453 166.816 105.25C165.703 107.027 163.965 108.453 161.973 109.156C159.863 109.879 157.617 109.527 155.684 108.492C154.727 107.984 153.848 107.32 153.086 106.558C152.305 105.777 151.582 104.879 151.133 103.863C150.918 103.375 150.762 102.848 150.801 102.301C150.82 102.086 150.859 101.871 150.957 101.676C150.996 101.578 151.113 101.5 151.074 101.402C151.055 101.344 150.977 101.285 150.937 101.246C150.84 101.148 150.742 101.051 150.645 100.973C150.352 100.719 150.059 100.465 149.766 100.211C147.988 98.746 146.152 97.3397 144.434 95.8163C143.672 95.1327 142.93 94.4101 142.285 93.6093C141.602 92.7304 141.055 91.6952 140.566 90.6991C138.711 86.871 138.184 82.496 139.492 78.3944C140.156 76.3436 141.23 74.4296 142.637 72.789C144.043 71.1483 145.762 69.7421 147.754 68.8632C148.262 68.6483 148.809 68.453 149.355 68.3163C149.609 68.2577 149.844 68.1991 150.098 68.1796C150.215 68.16 150.332 68.1405 150.469 68.1405C150.508 68.1405 150.547 68.1405 150.586 68.121C150.723 68.121 150.703 68.121 150.723 67.9843C150.918 66.9296 151.621 66.0897 152.461 65.4843C153.379 64.8397 154.473 64.4296 155.566 64.1757C156.68 63.9218 157.91 63.8046 159.023 64.0585C159.902 64.2538 160.781 64.7616 160.996 65.6796C161.113 66.1874 161.035 66.6952 160.801 67.1444C160.547 67.6522 160.137 67.9843 159.766 68.3944C159.258 68.9608 158.887 69.7225 159.336 70.4257C159.434 70.5624 159.531 70.7382 159.707 70.7772C159.883 70.8358 160.078 70.914 160.254 70.9725C160.762 71.1679 161.25 71.4022 161.738 71.6561C163.496 72.5741 165.176 73.9413 165.898 75.8358C166.602 77.7108 166.133 79.8007 165.098 81.4608C164.941 81.7147 164.805 82.0077 164.492 82.0858C164.102 82.1835 163.789 81.9686 163.633 81.6366C163.867 82.1054 163.965 82.6522 163.77 83.1405C163.574 83.6483 163.145 83.9999 162.656 84.2147C162.168 84.4296 161.641 84.5272 161.113 84.5858C160.957 84.6054 160.781 84.6249 160.625 84.6249C160.488 84.6444 160.469 84.6444 160.41 84.7616C160.371 84.8397 160.312 84.9179 160.273 84.996C160.098 85.2694 159.902 85.5233 159.687 85.7577C159.199 86.2265 158.711 86.5976 158.184 86.8905C158.945 86.4804 157.422 87.2811 158.184 86.8905ZM156.016 86.0897C156.816 85.953 157.578 85.7186 158.184 85.1913C158.496 84.9374 158.75 84.6249 158.965 84.2733C159.18 83.9218 159.355 83.5897 159.746 83.3749C160.137 83.1601 160.605 83.2186 161.035 83.1601C161.348 83.121 161.66 83.0624 161.934 82.9257C162.07 82.8671 162.246 82.789 162.305 82.6718C162.383 82.5351 162.305 82.3593 162.227 82.2226C162.012 81.871 161.875 81.5585 161.934 81.1288C162.09 80.1522 163.242 79.6054 164.082 80.1522C164.551 79.1561 164.844 78.0624 164.629 76.9491C164.453 76.0116 163.926 75.1913 163.262 74.5077C162.539 73.785 161.66 73.1991 160.742 72.7499C160.312 72.535 159.863 72.3397 159.414 72.164C159.121 72.0468 158.828 71.9882 158.594 71.7733C158.047 71.2655 157.656 70.5819 157.617 69.8202C157.578 68.9999 157.93 68.2186 158.457 67.5936C158.789 67.203 159.277 66.871 159.492 66.3827C159.687 65.953 159.434 65.6405 159.023 65.4843C158.574 65.289 158.047 65.2499 157.559 65.2694C156.992 65.2694 156.426 65.3475 155.859 65.4647C154.805 65.6991 153.691 66.0897 152.871 66.8124C152.52 67.1249 152.207 67.5155 152.07 67.9647C152.012 68.1796 151.992 68.3944 151.992 68.6288C151.992 68.8632 151.973 69.0585 151.797 69.2343C151.504 69.5272 151.094 69.4296 150.742 69.4296C150.254 69.4491 149.785 69.5468 149.316 69.6835C148.262 69.996 147.266 70.5038 146.367 71.1288C142.891 73.5897 140.547 77.5936 140.176 81.7929C140 83.746 140.234 85.6991 140.82 87.5741C141.152 88.6288 141.582 89.6444 142.09 90.6015C142.559 91.5194 143.086 92.4179 143.77 93.1991C145.215 94.8202 146.973 96.1483 148.652 97.496C149.512 98.1991 150.391 98.8827 151.172 99.664C151.66 100.152 152.266 100.777 152.383 101.48C152.422 101.754 152.363 101.988 152.227 102.223C152.012 102.555 152.285 103.023 152.422 103.336C152.891 104.332 153.672 105.211 154.492 105.933C156.035 107.301 158.105 108.277 160.195 108.082C162.285 107.867 164.219 106.5 165.391 104.801C166.582 103.082 167.07 100.933 166.699 98.8827C166.504 97.789 166.074 96.6366 165.352 95.7577C164.746 95.0351 163.828 94.8397 162.969 94.6444C162.148 94.4491 161.328 94.1561 160.781 93.4726C160.547 93.1796 160.391 92.828 160.156 92.5546C160.039 92.3983 159.883 92.2421 159.707 92.1444C159.492 92.0077 159.355 92.0468 159.16 92.1444C158.301 92.6327 157.5 92.0272 156.738 91.6171C156.719 91.5976 156.621 91.539 156.602 91.539C156.562 91.539 156.484 91.6561 156.445 91.6952C156.27 91.871 156.055 91.9882 155.82 92.0468C155.352 92.164 154.844 92.0468 154.492 91.7147C154.141 91.3827 153.984 90.914 154.082 90.4452C154.141 90.1522 154.297 89.8983 154.434 89.6249C154.512 89.4882 154.57 89.3515 154.648 89.1952C154.687 89.1171 154.785 88.9804 154.766 88.9022C154.766 88.8436 154.707 88.8046 154.668 88.7655C154.59 88.6679 154.492 88.5702 154.434 88.453C154.316 88.2577 154.238 88.0429 154.219 87.8085C154.18 87.3397 154.395 86.9296 154.707 86.6171C155.078 86.2655 155.547 86.1679 156.016 86.0897C156.406 86.0311 155.801 86.1288 156.016 86.0897ZM189.375 97.828C188.828 97.2616 189.551 96.3632 190.234 96.7343C190.332 96.7929 190.41 96.871 190.488 96.9491C190.703 97.1835 190.918 97.4374 191.113 97.6913C191.992 98.8046 192.773 99.996 193.437 101.246C194.414 103.062 195.176 104.996 195.625 107.008C196.172 109.43 196.23 111.93 195.781 114.371C195.215 117.418 193.848 120.269 192.031 122.75C191.465 123.512 190.879 124.254 190.234 124.957C189.98 125.25 189.727 125.543 189.297 125.465C188.965 125.387 188.711 125.074 188.75 124.723C188.77 124.312 189.199 124 189.453 123.726C189.766 123.375 190.059 123.004 190.352 122.633C190.898 121.949 191.406 121.226 191.855 120.484C193.379 118.004 194.395 115.211 194.59 112.301C194.766 109.937 194.414 107.574 193.672 105.328C193.086 103.551 192.246 101.871 191.23 100.308C190.684 99.4686 190.098 98.6679 189.434 97.9257C189.434 97.9061 189.414 97.8671 189.375 97.828C189.414 97.8671 189.121 97.5546 189.375 97.828ZM165.41 88.5702C165.098 88.8632 164.59 88.7851 164.355 88.4335C164.16 88.1405 164.219 87.7694 164.473 87.5155C164.609 87.3788 164.766 87.2421 164.902 87.0858C165.684 86.246 166.328 85.2694 166.836 84.2538C167.637 82.6132 168.145 80.7382 168.086 78.9022C168.066 78.1601 167.91 77.4179 167.598 76.7343C167.324 76.1483 166.973 75.621 166.66 75.0741C166.289 74.4491 165.977 73.8046 165.742 73.121C165.586 72.6913 165.469 72.2616 165.391 71.8124C165.332 71.578 165.293 71.3241 165.273 71.0897C165.234 70.8554 165.176 70.5819 165.254 70.3475C165.391 69.9569 165.859 69.7811 166.23 69.9569C166.68 70.1718 166.641 70.7186 166.699 71.1483C166.836 71.9882 167.09 72.8085 167.461 73.5897C168.027 74.7811 168.867 75.8163 169.258 77.1054C169.766 78.8436 169.512 80.7577 169.023 82.4765C168.398 84.703 167.207 86.9101 165.527 88.4921C165.469 88.5116 165.43 88.5311 165.41 88.5702C165.43 88.5507 165.117 88.8241 165.41 88.5702ZM144.883 73.3358C145.41 72.828 146.309 73.3944 146.035 74.0976C145.977 74.2538 145.84 74.371 145.742 74.4882C145.352 74.9179 145 75.3866 144.668 75.8554C143.418 77.6718 142.559 79.8202 142.461 82.0272C142.422 82.7108 142.461 83.414 142.578 84.0976C142.637 84.4686 142.715 84.8202 142.812 85.1718C142.91 85.5038 143.086 85.8554 142.891 86.1874C142.734 86.4804 142.383 86.6171 142.07 86.5194C141.699 86.4022 141.602 86.0897 141.504 85.7577C141.289 85.0546 141.152 84.3319 141.074 83.6093C140.84 81.1679 141.445 78.7265 142.578 76.578C143.184 75.4257 143.926 74.3124 144.824 73.3749C144.863 73.3554 144.863 73.3554 144.883 73.3358C145.156 73.0624 144.863 73.3554 144.883 73.3358ZM165.918 52.5546C166.426 52.5546 166.777 53.121 166.543 53.5702C166.387 53.8632 166.094 53.9608 165.801 53.9608C165.176 53.9608 164.531 53.9608 163.906 53.9608C163.711 53.9608 163.496 53.9608 163.301 53.9608C162.852 53.9413 162.5 53.5507 162.598 53.1015C162.754 52.4179 163.594 52.5546 164.102 52.5546C164.707 52.5546 165.312 52.5546 165.918 52.5546ZM188.965 49.078C188.535 49.078 188.086 49.078 187.656 49.078C186.504 49.078 185.352 49.078 184.199 49.078C182.578 49.078 180.957 49.078 179.355 49.078C177.5 49.078 175.645 49.078 173.789 49.078C171.973 49.078 170.137 49.078 168.32 49.078C166.758 49.078 165.176 49.078 163.613 49.078C162.539 49.078 161.484 49.078 160.41 49.078C160.137 49.078 159.883 49.078 159.609 49.078C159.551 49.078 159.492 49.0585 159.453 49.078C159.395 49.0975 159.355 49.1366 159.297 49.1561C158.906 49.41 158.535 49.664 158.145 49.9179C155.273 51.8515 152.461 53.8827 149.785 56.0897C147.441 58.0233 145.176 60.0741 143.086 62.2811C142.617 62.7694 142.168 63.2772 141.719 63.785C142.852 63.7265 144.004 63.7655 145.137 63.785C146.641 63.8241 148.125 63.7265 149.609 63.4725C152.52 62.9843 155.352 61.9686 158.34 61.91C161.504 61.871 164.453 63.3163 166.855 65.2694C168.125 66.3046 169.277 67.4569 170.332 68.7069C171.367 69.8983 172.324 71.1483 173.066 72.5546C173.672 73.7069 174.16 74.9374 174.316 76.2265C174.473 77.3397 174.375 78.453 174.141 79.5468C173.887 80.6991 173.496 81.8124 173.086 82.9061C172.52 84.4296 171.934 85.953 171.504 87.5351C171.133 88.9218 170.996 90.3866 171.309 91.7929C171.543 92.8671 171.992 93.8632 172.48 94.8397C173.008 95.8944 173.516 96.9686 173.672 98.1405C173.867 99.5858 173.457 100.992 172.812 102.301C171.504 104.996 169.434 107.242 167.07 109.039C164.473 111.012 161.484 112.476 158.379 113.453C157.637 113.687 156.895 113.883 156.133 114.058C158.008 116.539 159.18 119.449 159.805 122.476C160.488 125.816 160.586 129.273 160.43 132.672C160.332 134.762 160.156 136.832 159.941 138.902C160.332 138.902 160.703 138.902 161.094 138.902C162.09 138.902 163.105 138.902 164.102 138.902C165.547 138.902 166.992 138.902 168.437 138.902C170.117 138.902 171.797 138.902 173.477 138.902C175.195 138.902 176.914 138.902 178.633 138.902C180.195 138.902 181.758 138.902 183.34 138.902C184.551 138.902 185.781 138.902 186.992 138.902C187.676 138.902 188.34 138.902 189.023 138.902C189.102 138.902 189.219 138.922 189.238 138.863C189.258 138.824 189.238 138.726 189.238 138.668C189.238 138.551 189.238 138.433 189.238 138.316C189.238 137.984 189.238 137.652 189.238 137.32C189.238 135.953 189.219 134.566 189.238 133.199C189.238 132.672 189.707 132.457 190.078 132.183C190.664 131.754 191.23 131.305 191.777 130.855C192.832 129.976 193.848 129.058 194.785 128.062C196.523 126.246 198.027 124.195 199.16 121.949C200.254 119.801 200.977 117.476 201.328 115.094C201.641 112.867 201.621 110.601 201.348 108.375C201.055 106.09 200.508 103.863 199.766 101.676C198.926 99.1757 197.852 96.7733 196.621 94.4296C195.195 91.7147 193.594 89.1171 191.855 86.5976C191.387 85.914 190.918 85.2499 190.43 84.5858C190.176 84.2343 189.922 83.8827 189.648 83.5311C189.473 83.2968 189.316 83.0819 189.219 82.8085C188.594 81.246 188.027 79.6444 187.559 78.0233C186.66 74.9179 186.074 71.7147 185.84 68.4725C185.605 65.2108 185.762 61.91 186.27 58.6679C186.523 57.0468 186.875 55.4647 187.285 53.8827C186.602 53.8827 185.937 53.8827 185.254 53.8827C183.672 53.8827 182.09 53.8827 180.508 53.8827C178.691 53.8827 176.855 53.8827 175.039 53.8827C173.633 53.8827 172.207 53.8827 170.801 53.8827C170.449 53.8827 170.117 53.8827 169.766 53.8827C169.707 53.8827 169.648 53.8827 169.609 53.8827C168.926 53.8436 168.691 52.9061 169.297 52.5741C169.531 52.4569 169.824 52.4765 170.078 52.4765C170.527 52.4765 170.996 52.4765 171.445 52.4765C172.969 52.4765 174.512 52.4765 176.035 52.4765C177.871 52.4765 179.687 52.4765 181.523 52.4765C183.027 52.4765 184.531 52.4765 186.035 52.4765C186.465 52.4765 186.895 52.4765 187.324 52.4765C187.422 52.4765 187.539 52.496 187.617 52.4765C187.637 52.4765 187.656 52.4765 187.676 52.4765C187.715 52.4569 187.754 52.2421 187.773 52.1835C187.832 51.9686 187.91 51.7538 187.988 51.5194C188.34 50.7577 188.633 49.9179 188.965 49.078ZM160.645 116.617C160.195 116.266 160.352 115.504 160.898 115.367C161.113 115.308 161.348 115.387 161.523 115.523C161.641 115.621 161.758 115.719 161.875 115.816C162.461 116.344 162.988 116.93 163.457 117.555C164.238 118.57 164.883 119.664 165.41 120.836C166.094 122.379 166.543 124.019 166.758 125.699C167.031 127.867 166.934 130.094 166.562 132.242C166.445 132.867 166.309 133.512 166.152 134.137C166.074 134.41 166.055 134.762 165.82 134.957C165.625 135.133 165.312 135.172 165.078 135.074C164.434 134.781 164.727 134.058 164.863 133.551C165.02 132.926 165.137 132.281 165.234 131.637C165.566 129.527 165.625 127.359 165.273 125.25C165.02 123.668 164.531 122.125 163.789 120.699C163.281 119.683 162.637 118.726 161.895 117.848C161.523 117.418 161.133 117.008 160.703 116.656C160.684 116.656 160.664 116.637 160.645 116.617C160.664 116.637 160.332 116.383 160.645 116.617Z" fill="#FFF4ED"/>
<path d="M26.9321 170.112C26.1961 170.112 25.5347 169.984 24.9481 169.728C24.3721 169.461 23.9187 169.099 23.5881 168.64C23.2574 168.171 23.0867 167.632 23.0761 167.024H24.6281C24.6814 167.547 24.8947 167.989 25.2681 168.352C25.6521 168.704 26.2067 168.88 26.9321 168.88C27.6254 168.88 28.1694 168.709 28.5641 168.368C28.9694 168.016 29.1721 167.568 29.1721 167.024C29.1721 166.597 29.0547 166.251 28.8201 165.984C28.5854 165.717 28.2921 165.515 27.9401 165.376C27.5881 165.237 27.1134 165.088 26.5161 164.928C25.7801 164.736 25.1881 164.544 24.7401 164.352C24.3027 164.16 23.9241 163.861 23.6041 163.456C23.2947 163.04 23.1401 162.485 23.1401 161.792C23.1401 161.184 23.2947 160.645 23.6041 160.176C23.9134 159.707 24.3454 159.344 24.9001 159.088C25.4654 158.832 26.1107 158.704 26.8361 158.704C27.8814 158.704 28.7347 158.965 29.3961 159.488C30.0681 160.011 30.4467 160.704 30.5321 161.568H28.9321C28.8787 161.141 28.6547 160.768 28.2601 160.448C27.8654 160.117 27.3427 159.952 26.6921 159.952C26.0841 159.952 25.5881 160.112 25.2041 160.432C24.8201 160.741 24.6281 161.179 24.6281 161.744C24.6281 162.149 24.7401 162.48 24.9641 162.736C25.1987 162.992 25.4814 163.189 25.8121 163.328C26.1534 163.456 26.6281 163.605 27.2361 163.776C27.9721 163.979 28.5641 164.181 29.0121 164.384C29.4601 164.576 29.8441 164.88 30.1641 165.296C30.4841 165.701 30.6441 166.256 30.6441 166.96C30.6441 167.504 30.5001 168.016 30.2121 168.496C29.9241 168.976 29.4974 169.365 28.9321 169.664C28.3667 169.963 27.7001 170.112 26.9321 170.112ZM34.2427 162.848C34.5307 162.347 34.9574 161.931 35.5227 161.6C36.0987 161.259 36.7654 161.088 37.5227 161.088C38.3014 161.088 39.0054 161.275 39.6347 161.648C40.2747 162.021 40.776 162.549 41.1387 163.232C41.5014 163.904 41.6827 164.688 41.6827 165.584C41.6827 166.469 41.5014 167.259 41.1387 167.952C40.776 168.645 40.2747 169.184 39.6347 169.568C39.0054 169.952 38.3014 170.144 37.5227 170.144C36.776 170.144 36.1147 169.979 35.5387 169.648C34.9734 169.307 34.5414 168.885 34.2427 168.384V174.16H32.7867V161.232H34.2427V162.848ZM40.1947 165.584C40.1947 164.923 40.0614 164.347 39.7947 163.856C39.528 163.365 39.1654 162.992 38.7067 162.736C38.2587 162.48 37.7627 162.352 37.2187 162.352C36.6854 162.352 36.1894 162.485 35.7307 162.752C35.2827 163.008 34.92 163.387 34.6427 163.888C34.376 164.379 34.2427 164.949 34.2427 165.6C34.2427 166.261 34.376 166.843 34.6427 167.344C34.92 167.835 35.2827 168.213 35.7307 168.48C36.1894 168.736 36.6854 168.864 37.2187 168.864C37.7627 168.864 38.2587 168.736 38.7067 168.48C39.1654 168.213 39.528 167.835 39.7947 167.344C40.0614 166.843 40.1947 166.256 40.1947 165.584ZM51.5992 165.28C51.5992 165.557 51.5832 165.851 51.5512 166.16H44.5432C44.5965 167.024 44.8899 167.701 45.4232 168.192C45.9672 168.672 46.6232 168.912 47.3912 168.912C48.0205 168.912 48.5432 168.768 48.9592 168.48C49.3859 168.181 49.6845 167.787 49.8552 167.296H51.4232C51.1885 168.139 50.7192 168.827 50.0152 169.36C49.3112 169.883 48.4365 170.144 47.3912 170.144C46.5592 170.144 45.8125 169.957 45.1512 169.584C44.5005 169.211 43.9885 168.683 43.6152 168C43.2419 167.307 43.0552 166.507 43.0552 165.6C43.0552 164.693 43.2365 163.899 43.5992 163.216C43.9619 162.533 44.4685 162.011 45.1192 161.648C45.7805 161.275 46.5379 161.088 47.3912 161.088C48.2232 161.088 48.9592 161.269 49.5992 161.632C50.2392 161.995 50.7299 162.496 51.0712 163.136C51.4232 163.765 51.5992 164.48 51.5992 165.28ZM50.0952 164.976C50.0952 164.421 49.9725 163.947 49.7272 163.552C49.4819 163.147 49.1459 162.843 48.7192 162.64C48.3032 162.427 47.8392 162.32 47.3272 162.32C46.5912 162.32 45.9619 162.555 45.4392 163.024C44.9272 163.493 44.6339 164.144 44.5592 164.976H50.0952ZM52.9771 165.6C52.9771 164.693 53.1584 163.904 53.5211 163.232C53.8837 162.549 54.3851 162.021 55.0251 161.648C55.6757 161.275 56.4171 161.088 57.2491 161.088C58.3264 161.088 59.2117 161.349 59.9051 161.872C60.6091 162.395 61.0731 163.12 61.2971 164.048H59.7291C59.5797 163.515 59.2864 163.093 58.8491 162.784C58.4224 162.475 57.8891 162.32 57.2491 162.32C56.4171 162.32 55.7451 162.608 55.2331 163.184C54.7211 163.749 54.4651 164.555 54.4651 165.6C54.4651 166.656 54.7211 167.472 55.2331 168.048C55.7451 168.624 56.4171 168.912 57.2491 168.912C57.8891 168.912 58.4224 168.763 58.8491 168.464C59.2757 168.165 59.5691 167.739 59.7291 167.184H61.2971C61.0624 168.08 60.5931 168.8 59.8891 169.344C59.1851 169.877 58.3051 170.144 57.2491 170.144C56.4171 170.144 55.6757 169.957 55.0251 169.584C54.3851 169.211 53.8837 168.683 53.5211 168C53.1584 167.317 52.9771 166.517 52.9771 165.6ZM63.9918 159.808C63.7145 159.808 63.4798 159.712 63.2878 159.52C63.0958 159.328 62.9998 159.093 62.9998 158.816C62.9998 158.539 63.0958 158.304 63.2878 158.112C63.4798 157.92 63.7145 157.824 63.9918 157.824C64.2585 157.824 64.4825 157.92 64.6638 158.112C64.8558 158.304 64.9518 158.539 64.9518 158.816C64.9518 159.093 64.8558 159.328 64.6638 159.52C64.4825 159.712 64.2585 159.808 63.9918 159.808ZM64.6958 161.232V170H63.2398V161.232H64.6958ZM66.6333 165.584C66.6333 164.688 66.8146 163.904 67.1773 163.232C67.54 162.549 68.036 162.021 68.6653 161.648C69.3053 161.275 70.0146 161.088 70.7933 161.088C71.5613 161.088 72.228 161.253 72.7933 161.584C73.3586 161.915 73.78 162.331 74.0573 162.832V161.232H75.5293V170H74.0573V168.368C73.7693 168.88 73.3373 169.307 72.7613 169.648C72.196 169.979 71.5346 170.144 70.7773 170.144C69.9986 170.144 69.2946 169.952 68.6653 169.568C68.036 169.184 67.54 168.645 67.1773 167.952C66.8146 167.259 66.6333 166.469 66.6333 165.584ZM74.0573 165.6C74.0573 164.939 73.924 164.363 73.6573 163.872C73.3906 163.381 73.028 163.008 72.5693 162.752C72.1213 162.485 71.6253 162.352 71.0813 162.352C70.5373 162.352 70.0413 162.48 69.5933 162.736C69.1453 162.992 68.788 163.365 68.5213 163.856C68.2546 164.347 68.1213 164.923 68.1213 165.584C68.1213 166.256 68.2546 166.843 68.5213 167.344C68.788 167.835 69.1453 168.213 69.5933 168.48C70.0413 168.736 70.5373 168.864 71.0813 168.864C71.6253 168.864 72.1213 168.736 72.5693 168.48C73.028 168.213 73.3906 167.835 73.6573 167.344C73.924 166.843 74.0573 166.261 74.0573 165.6ZM79.4458 158.16V170H77.9898V158.16H79.4458ZM82.6793 159.808C82.402 159.808 82.1673 159.712 81.9753 159.52C81.7833 159.328 81.6873 159.093 81.6873 158.816C81.6873 158.539 81.7833 158.304 81.9753 158.112C82.1673 157.92 82.402 157.824 82.6793 157.824C82.946 157.824 83.17 157.92 83.3513 158.112C83.5433 158.304 83.6393 158.539 83.6393 158.816C83.6393 159.093 83.5433 159.328 83.3513 159.52C83.17 159.712 82.946 159.808 82.6793 159.808ZM83.3833 161.232V170H81.9273V161.232H83.3833ZM86.9528 168.8H91.2568V170H85.2888V168.8L89.5448 162.416H85.3208V161.232H91.2248V162.416L86.9528 168.8ZM101.146 165.28C101.146 165.557 101.13 165.851 101.098 166.16H94.0901C94.1434 167.024 94.4367 167.701 94.9701 168.192C95.5141 168.672 96.1701 168.912 96.9381 168.912C97.5674 168.912 98.0901 168.768 98.5061 168.48C98.9327 168.181 99.2314 167.787 99.4021 167.296H100.97C100.735 168.139 100.266 168.827 99.5621 169.36C98.8581 169.883 97.9834 170.144 96.9381 170.144C96.1061 170.144 95.3594 169.957 94.6981 169.584C94.0474 169.211 93.5354 168.683 93.1621 168C92.7887 167.307 92.6021 166.507 92.6021 165.6C92.6021 164.693 92.7834 163.899 93.1461 163.216C93.5087 162.533 94.0154 162.011 94.6661 161.648C95.3274 161.275 96.0847 161.088 96.9381 161.088C97.7701 161.088 98.5061 161.269 99.1461 161.632C99.7861 161.995 100.277 162.496 100.618 163.136C100.97 163.765 101.146 164.48 101.146 165.28ZM99.6421 164.976C99.6421 164.421 99.5194 163.947 99.2741 163.552C99.0287 163.147 98.6927 162.843 98.2661 162.64C97.8501 162.427 97.3861 162.32 96.8741 162.32C96.1381 162.32 95.5087 162.555 94.9861 163.024C94.4741 163.493 94.1807 164.144 94.1061 164.976H99.6421ZM102.524 165.584C102.524 164.688 102.705 163.904 103.068 163.232C103.431 162.549 103.927 162.021 104.556 161.648C105.196 161.275 105.911 161.088 106.7 161.088C107.383 161.088 108.017 161.248 108.604 161.568C109.191 161.877 109.639 162.288 109.948 162.8V158.16H111.42V170H109.948V168.352C109.66 168.875 109.233 169.307 108.668 169.648C108.103 169.979 107.441 170.144 106.684 170.144C105.905 170.144 105.196 169.952 104.556 169.568C103.927 169.184 103.431 168.645 103.068 167.952C102.705 167.259 102.524 166.469 102.524 165.584ZM109.948 165.6C109.948 164.939 109.815 164.363 109.548 163.872C109.281 163.381 108.919 163.008 108.46 162.752C108.012 162.485 107.516 162.352 106.972 162.352C106.428 162.352 105.932 162.48 105.484 162.736C105.036 162.992 104.679 163.365 104.412 163.856C104.145 164.347 104.012 164.923 104.012 165.584C104.012 166.256 104.145 166.843 104.412 167.344C104.679 167.835 105.036 168.213 105.484 168.48C105.932 168.736 106.428 168.864 106.972 168.864C107.516 168.864 108.012 168.736 108.46 168.48C108.919 168.213 109.281 167.835 109.548 167.344C109.815 166.843 109.948 166.261 109.948 165.6ZM117.602 165.6C117.602 164.693 117.783 163.904 118.146 163.232C118.509 162.549 119.01 162.021 119.65 161.648C120.301 161.275 121.042 161.088 121.874 161.088C122.951 161.088 123.837 161.349 124.53 161.872C125.234 162.395 125.698 163.12 125.922 164.048H124.354C124.205 163.515 123.911 163.093 123.474 162.784C123.047 162.475 122.514 162.32 121.874 162.32C121.042 162.32 120.37 162.608 119.858 163.184C119.346 163.749 119.09 164.555 119.09 165.6C119.09 166.656 119.346 167.472 119.858 168.048C120.37 168.624 121.042 168.912 121.874 168.912C122.514 168.912 123.047 168.763 123.474 168.464C123.901 168.165 124.194 167.739 124.354 167.184H125.922C125.687 168.08 125.218 168.8 124.514 169.344C123.81 169.877 122.93 170.144 121.874 170.144C121.042 170.144 120.301 169.957 119.65 169.584C119.01 169.211 118.509 168.683 118.146 168C117.783 167.317 117.602 166.517 117.602 165.6ZM127.321 165.584C127.321 164.688 127.502 163.904 127.865 163.232C128.227 162.549 128.723 162.021 129.353 161.648C129.993 161.275 130.702 161.088 131.481 161.088C132.249 161.088 132.915 161.253 133.481 161.584C134.046 161.915 134.467 162.331 134.745 162.832V161.232H136.217V170H134.745V168.368C134.457 168.88 134.025 169.307 133.449 169.648C132.883 169.979 132.222 170.144 131.465 170.144C130.686 170.144 129.982 169.952 129.353 169.568C128.723 169.184 128.227 168.645 127.865 167.952C127.502 167.259 127.321 166.469 127.321 165.584ZM134.745 165.6C134.745 164.939 134.611 164.363 134.345 163.872C134.078 163.381 133.715 163.008 133.257 162.752C132.809 162.485 132.313 162.352 131.769 162.352C131.225 162.352 130.729 162.48 130.281 162.736C129.833 162.992 129.475 163.365 129.209 163.856C128.942 164.347 128.809 164.923 128.809 165.584C128.809 166.256 128.942 166.843 129.209 167.344C129.475 167.835 129.833 168.213 130.281 168.48C130.729 168.736 131.225 168.864 131.769 168.864C132.313 168.864 132.809 168.736 133.257 168.48C133.715 168.213 134.078 167.835 134.345 167.344C134.611 166.843 134.745 166.261 134.745 165.6ZM140.133 162.656C140.389 162.155 140.752 161.765 141.221 161.488C141.701 161.211 142.283 161.072 142.965 161.072V162.576H142.581C140.949 162.576 140.133 163.461 140.133 165.232V170H138.677V161.232H140.133V162.656ZM152.646 165.28C152.646 165.557 152.63 165.851 152.598 166.16H145.59C145.643 167.024 145.937 167.701 146.47 168.192C147.014 168.672 147.67 168.912 148.438 168.912C149.067 168.912 149.59 168.768 150.006 168.48C150.433 168.181 150.731 167.787 150.902 167.296H152.47C152.235 168.139 151.766 168.827 151.062 169.36C150.358 169.883 149.483 170.144 148.438 170.144C147.606 170.144 146.859 169.957 146.198 169.584C145.547 169.211 145.035 168.683 144.662 168C144.289 167.307 144.102 166.507 144.102 165.6C144.102 164.693 144.283 163.899 144.646 163.216C145.009 162.533 145.515 162.011 146.166 161.648C146.827 161.275 147.585 161.088 148.438 161.088C149.27 161.088 150.006 161.269 150.646 161.632C151.286 161.995 151.777 162.496 152.118 163.136C152.47 163.765 152.646 164.48 152.646 165.28ZM151.142 164.976C151.142 164.421 151.019 163.947 150.774 163.552C150.529 163.147 150.193 162.843 149.766 162.64C149.35 162.427 148.886 162.32 148.374 162.32C147.638 162.32 147.009 162.555 146.486 163.024C145.974 163.493 145.681 164.144 145.606 164.976H151.142ZM162.402 162.432H160.562V170H159.106V162.432H157.97V161.232H159.106V160.608C159.106 159.627 159.356 158.912 159.858 158.464C160.37 158.005 161.186 157.776 162.306 157.776V158.992C161.666 158.992 161.212 159.12 160.946 159.376C160.69 159.621 160.562 160.032 160.562 160.608V161.232H162.402V162.432ZM167.923 170.144C167.102 170.144 166.355 169.957 165.683 169.584C165.022 169.211 164.499 168.683 164.115 168C163.742 167.307 163.555 166.507 163.555 165.6C163.555 164.704 163.747 163.915 164.131 163.232C164.526 162.539 165.059 162.011 165.731 161.648C166.403 161.275 167.155 161.088 167.987 161.088C168.819 161.088 169.571 161.275 170.243 161.648C170.915 162.011 171.443 162.533 171.827 163.216C172.222 163.899 172.419 164.693 172.419 165.6C172.419 166.507 172.217 167.307 171.811 168C171.417 168.683 170.878 169.211 170.195 169.584C169.513 169.957 168.755 170.144 167.923 170.144ZM167.923 168.864C168.446 168.864 168.937 168.741 169.395 168.496C169.854 168.251 170.222 167.883 170.499 167.392C170.787 166.901 170.931 166.304 170.931 165.6C170.931 164.896 170.793 164.299 170.515 163.808C170.238 163.317 169.875 162.955 169.427 162.72C168.979 162.475 168.494 162.352 167.971 162.352C167.438 162.352 166.947 162.475 166.499 162.72C166.062 162.955 165.71 163.317 165.443 163.808C165.177 164.299 165.043 164.896 165.043 165.6C165.043 166.315 165.171 166.917 165.427 167.408C165.694 167.899 166.046 168.267 166.483 168.512C166.921 168.747 167.401 168.864 167.923 168.864ZM175.79 162.656C176.046 162.155 176.408 161.765 176.878 161.488C177.358 161.211 177.939 161.072 178.622 161.072V162.576H178.238C176.606 162.576 175.79 163.461 175.79 165.232V170H174.334V161.232H175.79V162.656ZM196.248 161.232L193.512 170H192.008L189.896 163.04L187.784 170H186.28L183.528 161.232H185.016L187.032 168.592L189.208 161.232H190.696L192.824 168.608L194.808 161.232H196.248ZM201.517 170.144C200.696 170.144 199.949 169.957 199.277 169.584C198.616 169.211 198.093 168.683 197.709 168C197.336 167.307 197.149 166.507 197.149 165.6C197.149 164.704 197.341 163.915 197.725 163.232C198.12 162.539 198.653 162.011 199.325 161.648C199.997 161.275 200.749 161.088 201.581 161.088C202.413 161.088 203.165 161.275 203.837 161.648C204.509 162.011 205.037 162.533 205.421 163.216C205.816 163.899 206.013 164.693 206.013 165.6C206.013 166.507 205.81 167.307 205.405 168C205.01 168.683 204.472 169.211 203.789 169.584C203.106 169.957 202.349 170.144 201.517 170.144ZM201.517 168.864C202.04 168.864 202.53 168.741 202.989 168.496C203.448 168.251 203.816 167.883 204.093 167.392C204.381 166.901 204.525 166.304 204.525 165.6C204.525 164.896 204.386 164.299 204.109 163.808C203.832 163.317 203.469 162.955 203.021 162.72C202.573 162.475 202.088 162.352 201.565 162.352C201.032 162.352 200.541 162.475 200.093 162.72C199.656 162.955 199.304 163.317 199.037 163.808C198.77 164.299 198.637 164.896 198.637 165.6C198.637 166.315 198.765 166.917 199.021 167.408C199.288 167.899 199.64 168.267 200.077 168.512C200.514 168.747 200.994 168.864 201.517 168.864ZM218.471 161.072C219.154 161.072 219.762 161.216 220.295 161.504C220.829 161.781 221.25 162.203 221.559 162.768C221.869 163.333 222.023 164.021 222.023 164.832V170H220.583V165.04C220.583 164.165 220.365 163.499 219.927 163.04C219.501 162.571 218.919 162.336 218.183 162.336C217.426 162.336 216.823 162.581 216.375 163.072C215.927 163.552 215.703 164.251 215.703 165.168V170H214.263V165.04C214.263 164.165 214.045 163.499 213.607 163.04C213.181 162.571 212.599 162.336 211.863 162.336C211.106 162.336 210.503 162.581 210.055 163.072C209.607 163.552 209.383 164.251 209.383 165.168V170H207.927V161.232H209.383V162.496C209.671 162.037 210.055 161.685 210.535 161.44C211.026 161.195 211.565 161.072 212.151 161.072C212.887 161.072 213.538 161.237 214.103 161.568C214.669 161.899 215.09 162.384 215.367 163.024C215.613 162.405 216.018 161.925 216.583 161.584C217.149 161.243 217.778 161.072 218.471 161.072ZM232.412 165.28C232.412 165.557 232.396 165.851 232.364 166.16H225.356C225.409 167.024 225.702 167.701 226.236 168.192C226.78 168.672 227.436 168.912 228.204 168.912C228.833 168.912 229.356 168.768 229.772 168.48C230.198 168.181 230.497 167.787 230.668 167.296H232.236C232.001 168.139 231.532 168.827 230.828 169.36C230.124 169.883 229.249 170.144 228.204 170.144C227.372 170.144 226.625 169.957 225.964 169.584C225.313 169.211 224.801 168.683 224.428 168C224.054 167.307 223.868 166.507 223.868 165.6C223.868 164.693 224.049 163.899 224.412 163.216C224.774 162.533 225.281 162.011 225.932 161.648C226.593 161.275 227.35 161.088 228.204 161.088C229.036 161.088 229.772 161.269 230.412 161.632C231.052 161.995 231.542 162.496 231.884 163.136C232.236 163.765 232.412 164.48 232.412 165.28ZM230.908 164.976C230.908 164.421 230.785 163.947 230.54 163.552C230.294 163.147 229.958 162.843 229.532 162.64C229.116 162.427 228.652 162.32 228.14 162.32C227.404 162.32 226.774 162.555 226.252 163.024C225.74 163.493 225.446 164.144 225.372 164.976H230.908ZM238.606 161.072C239.672 161.072 240.536 161.397 241.198 162.048C241.859 162.688 242.19 163.616 242.19 164.832V170H240.75V165.04C240.75 164.165 240.531 163.499 240.094 163.04C239.656 162.571 239.059 162.336 238.302 162.336C237.534 162.336 236.92 162.576 236.462 163.056C236.014 163.536 235.79 164.235 235.79 165.152V170H234.334V161.232H235.79V162.48C236.078 162.032 236.467 161.685 236.958 161.44C237.459 161.195 238.008 161.072 238.606 161.072ZM245.304 157.264L245.112 160.448H244.104L243.896 157.264H245.304ZM250.219 170.144C249.547 170.144 248.944 170.032 248.411 169.808C247.877 169.573 247.456 169.253 247.147 168.848C246.837 168.432 246.667 167.957 246.635 167.424H248.139C248.181 167.861 248.384 168.219 248.747 168.496C249.12 168.773 249.605 168.912 250.203 168.912C250.757 168.912 251.195 168.789 251.515 168.544C251.835 168.299 251.995 167.989 251.995 167.616C251.995 167.232 251.824 166.949 251.483 166.768C251.141 166.576 250.613 166.389 249.899 166.208C249.248 166.037 248.715 165.867 248.299 165.696C247.893 165.515 247.541 165.253 247.243 164.912C246.955 164.56 246.811 164.101 246.811 163.536C246.811 163.088 246.944 162.677 247.211 162.304C247.477 161.931 247.856 161.637 248.347 161.424C248.837 161.2 249.397 161.088 250.027 161.088C250.997 161.088 251.781 161.333 252.379 161.824C252.976 162.315 253.296 162.987 253.339 163.84H251.883C251.851 163.381 251.664 163.013 251.323 162.736C250.992 162.459 250.544 162.32 249.979 162.32C249.456 162.32 249.04 162.432 248.731 162.656C248.421 162.88 248.267 163.173 248.267 163.536C248.267 163.824 248.357 164.064 248.539 164.256C248.731 164.437 248.965 164.587 249.243 164.704C249.531 164.811 249.925 164.933 250.427 165.072C251.056 165.243 251.568 165.413 251.963 165.584C252.357 165.744 252.693 165.989 252.971 166.32C253.259 166.651 253.408 167.083 253.419 167.616C253.419 168.096 253.285 168.528 253.019 168.912C252.752 169.296 252.373 169.6 251.883 169.824C251.403 170.037 250.848 170.144 250.219 170.144ZM264.092 161.072C264.753 161.072 265.35 161.216 265.884 161.504C266.417 161.781 266.833 162.203 267.132 162.768C267.441 163.333 267.596 164.021 267.596 164.832V170H266.156V165.04C266.156 164.165 265.937 163.499 265.5 163.04C265.062 162.571 264.465 162.336 263.708 162.336C262.94 162.336 262.326 162.576 261.868 163.056C261.42 163.536 261.196 164.235 261.196 165.152V170H259.74V158.16H261.196V162.48C261.484 162.032 261.878 161.685 262.38 161.44C262.892 161.195 263.462 161.072 264.092 161.072ZM277.974 165.28C277.974 165.557 277.958 165.851 277.926 166.16H270.918C270.972 167.024 271.265 167.701 271.798 168.192C272.342 168.672 272.998 168.912 273.766 168.912C274.396 168.912 274.918 168.768 275.334 168.48C275.761 168.181 276.06 167.787 276.23 167.296H277.798C277.564 168.139 277.094 168.827 276.39 169.36C275.686 169.883 274.812 170.144 273.766 170.144C272.934 170.144 272.188 169.957 271.526 169.584C270.876 169.211 270.364 168.683 269.99 168C269.617 167.307 269.43 166.507 269.43 165.6C269.43 164.693 269.612 163.899 269.974 163.216C270.337 162.533 270.844 162.011 271.494 161.648C272.156 161.275 272.913 161.088 273.766 161.088C274.598 161.088 275.334 161.269 275.974 161.632C276.614 161.995 277.105 162.496 277.446 163.136C277.798 163.765 277.974 164.48 277.974 165.28ZM276.47 164.976C276.47 164.421 276.348 163.947 276.102 163.552C275.857 163.147 275.521 162.843 275.094 162.64C274.678 162.427 274.214 162.32 273.702 162.32C272.966 162.32 272.337 162.555 271.814 163.024C271.302 163.493 271.009 164.144 270.934 164.976H276.47ZM279.352 165.584C279.352 164.688 279.533 163.904 279.896 163.232C280.259 162.549 280.755 162.021 281.384 161.648C282.024 161.275 282.733 161.088 283.512 161.088C284.28 161.088 284.947 161.253 285.512 161.584C286.077 161.915 286.499 162.331 286.776 162.832V161.232H288.248V170H286.776V168.368C286.488 168.88 286.056 169.307 285.48 169.648C284.915 169.979 284.253 170.144 283.496 170.144C282.717 170.144 282.013 169.952 281.384 169.568C280.755 169.184 280.259 168.645 279.896 167.952C279.533 167.259 279.352 166.469 279.352 165.584ZM286.776 165.6C286.776 164.939 286.643 164.363 286.376 163.872C286.109 163.381 285.747 163.008 285.288 162.752C284.84 162.485 284.344 162.352 283.8 162.352C283.256 162.352 282.76 162.48 282.312 162.736C281.864 162.992 281.507 163.365 281.24 163.856C280.973 164.347 280.84 164.923 280.84 165.584C280.84 166.256 280.973 166.843 281.24 167.344C281.507 167.835 281.864 168.213 282.312 168.48C282.76 168.736 283.256 168.864 283.8 168.864C284.344 168.864 284.84 168.736 285.288 168.48C285.747 168.213 286.109 167.835 286.376 167.344C286.643 166.843 286.776 166.261 286.776 165.6ZM292.165 158.16V170H290.709V158.16H292.165ZM296.422 162.432V167.6C296.422 168.027 296.513 168.331 296.694 168.512C296.875 168.683 297.19 168.768 297.638 168.768H298.71V170H297.398C296.587 170 295.979 169.813 295.574 169.44C295.169 169.067 294.966 168.453 294.966 167.6V162.432H293.83V161.232H294.966V159.024H296.422V161.232H298.71V162.432H296.422ZM304.826 161.072C305.488 161.072 306.085 161.216 306.618 161.504C307.152 161.781 307.568 162.203 307.866 162.768C308.176 163.333 308.33 164.021 308.33 164.832V170H306.89V165.04C306.89 164.165 306.672 163.499 306.234 163.04C305.797 162.571 305.2 162.336 304.442 162.336C303.674 162.336 303.061 162.576 302.602 163.056C302.154 163.536 301.93 164.235 301.93 165.152V170H300.474V158.16H301.93V162.48C302.218 162.032 302.613 161.685 303.114 161.44C303.626 161.195 304.197 161.072 304.826 161.072ZM311.173 170.096C310.895 170.096 310.661 170 310.469 169.808C310.277 169.616 310.181 169.381 310.181 169.104C310.181 168.827 310.277 168.592 310.469 168.4C310.661 168.208 310.895 168.112 311.173 168.112C311.439 168.112 311.663 168.208 311.845 168.4C312.037 168.592 312.133 168.827 312.133 169.104C312.133 169.381 312.037 169.616 311.845 169.808C311.663 170 311.439 170.096 311.173 170.096Z" fill="#FFF4ED"/>
</svg>
