<svg width="335" height="199" viewBox="0 0 335 199" fill="none" xmlns="http://www.w3.org/2000/svg">
<path d="M61.5394 9.248V26H58.1794V9.248H61.5394ZM72.2271 12.512C73.8111 12.512 75.0911 13.016 76.0671 14.024C77.0431 15.016 77.5311 16.408 77.5311 18.2V26H74.1711V18.656C74.1711 17.6 73.9071 16.792 73.3791 16.232C72.8511 15.656 72.1311 15.368 71.2191 15.368C70.2911 15.368 69.5551 15.656 69.0111 16.232C68.4831 16.792 68.2191 17.6 68.2191 18.656V26H64.8591V12.704H68.2191V14.36C68.6671 13.784 69.2351 13.336 69.9231 13.016C70.6271 12.68 71.3951 12.512 72.2271 12.512ZM86.8223 15.464H84.4943V26H81.0863V15.464H79.5743V12.704H81.0863V12.032C81.0863 10.4 81.5503 9.2 82.4783 8.432C83.4063 7.664 84.8063 7.304 86.6783 7.352V10.184C85.8623 10.168 85.2943 10.304 84.9743 10.592C84.6543 10.88 84.4943 11.4 84.4943 12.152V12.704H86.8223V15.464ZM101.36 19.064C101.36 19.544 101.328 19.976 101.264 20.36H91.5438C91.6238 21.32 91.9598 22.072 92.5518 22.616C93.1438 23.16 93.8718 23.432 94.7358 23.432C95.9838 23.432 96.8718 22.896 97.3998 21.824H101.024C100.64 23.104 99.9038 24.16 98.8158 24.992C97.7278 25.808 96.3918 26.216 94.8078 26.216C93.5278 26.216 92.3758 25.936 91.3518 25.376C90.3438 24.8 89.5518 23.992 88.9758 22.952C88.4158 21.912 88.1357 20.712 88.1357 19.352C88.1357 17.976 88.4158 16.768 88.9758 15.728C89.5358 14.688 90.3198 13.888 91.3278 13.328C92.3358 12.768 93.4958 12.488 94.8078 12.488C96.0718 12.488 97.1998 12.76 98.1918 13.304C99.1998 13.848 99.9758 14.624 100.52 15.632C101.08 16.624 101.36 17.768 101.36 19.064ZM97.8798 18.104C97.8638 17.24 97.5518 16.552 96.9438 16.04C96.3358 15.512 95.5918 15.248 94.7118 15.248C93.8798 15.248 93.1758 15.504 92.5998 16.016C92.0398 16.512 91.6958 17.208 91.5678 18.104H97.8798ZM102.948 19.352C102.948 17.976 103.228 16.776 103.788 15.752C104.348 14.712 105.124 13.912 106.116 13.352C107.108 12.776 108.244 12.488 109.524 12.488C111.172 12.488 112.532 12.904 113.604 13.736C114.692 14.552 115.42 15.704 115.788 17.192H112.164C111.972 16.616 111.644 16.168 111.18 15.848C110.732 15.512 110.172 15.344 109.5 15.344C108.54 15.344 107.78 15.696 107.22 16.4C106.66 17.088 106.38 18.072 106.38 19.352C106.38 20.616 106.66 21.6 107.22 22.304C107.78 22.992 108.54 23.336 109.5 23.336C110.86 23.336 111.748 22.728 112.164 21.512H115.788C115.42 22.952 114.692 24.096 113.604 24.944C112.516 25.792 111.156 26.216 109.524 26.216C108.244 26.216 107.108 25.936 106.116 25.376C105.124 24.8 104.348 24 103.788 22.976C103.228 21.936 102.948 20.728 102.948 19.352ZM122.162 15.464V21.896C122.162 22.344 122.266 22.672 122.474 22.88C122.698 23.072 123.066 23.168 123.578 23.168H125.138V26H123.026C120.194 26 118.778 24.624 118.778 21.872V15.464H117.194V12.704H118.778V9.416H122.162V12.704H125.138V15.464H122.162ZM129.258 11.12C128.666 11.12 128.17 10.936 127.77 10.568C127.386 10.184 127.194 9.712 127.194 9.152C127.194 8.592 127.386 8.128 127.77 7.76C128.17 7.376 128.666 7.184 129.258 7.184C129.85 7.184 130.338 7.376 130.722 7.76C131.122 8.128 131.322 8.592 131.322 9.152C131.322 9.712 131.122 10.184 130.722 10.568C130.338 10.936 129.85 11.12 129.258 11.12ZM130.914 12.704V26H127.554V12.704H130.914ZM140.138 26.216C138.858 26.216 137.706 25.936 136.682 25.376C135.658 24.8 134.85 23.992 134.258 22.952C133.682 21.912 133.394 20.712 133.394 19.352C133.394 17.992 133.69 16.792 134.282 15.752C134.89 14.712 135.714 13.912 136.754 13.352C137.794 12.776 138.954 12.488 140.234 12.488C141.514 12.488 142.674 12.776 143.714 13.352C144.754 13.912 145.57 14.712 146.162 15.752C146.77 16.792 147.074 17.992 147.074 19.352C147.074 20.712 146.762 21.912 146.138 22.952C145.53 23.992 144.698 24.8 143.642 25.376C142.602 25.936 141.434 26.216 140.138 26.216ZM140.138 23.288C140.746 23.288 141.314 23.144 141.842 22.856C142.386 22.552 142.818 22.104 143.138 21.512C143.458 20.92 143.618 20.2 143.618 19.352C143.618 18.088 143.282 17.12 142.61 16.448C141.954 15.76 141.146 15.416 140.186 15.416C139.226 15.416 138.418 15.76 137.762 16.448C137.122 17.12 136.802 18.088 136.802 19.352C136.802 20.616 137.114 21.592 137.738 22.28C138.378 22.952 139.178 23.288 140.138 23.288ZM162.091 12.704V26H158.707V24.32C158.275 24.896 157.707 25.352 157.003 25.688C156.315 26.008 155.563 26.168 154.747 26.168C153.707 26.168 152.787 25.952 151.987 25.52C151.187 25.072 150.555 24.424 150.091 23.576C149.643 22.712 149.419 21.688 149.419 20.504V12.704H152.779V20.024C152.779 21.08 153.043 21.896 153.571 22.472C154.099 23.032 154.819 23.312 155.731 23.312C156.659 23.312 157.387 23.032 157.915 22.472C158.443 21.896 158.707 21.08 158.707 20.024V12.704H162.091ZM170.494 26.216C169.406 26.216 168.43 26.024 167.566 25.64C166.702 25.24 166.014 24.704 165.502 24.032C165.006 23.36 164.734 22.616 164.686 21.8H168.07C168.134 22.312 168.382 22.736 168.814 23.072C169.262 23.408 169.814 23.576 170.47 23.576C171.11 23.576 171.606 23.448 171.958 23.192C172.326 22.936 172.51 22.608 172.51 22.208C172.51 21.776 172.286 21.456 171.838 21.248C171.406 21.024 170.71 20.784 169.75 20.528C168.758 20.288 167.942 20.04 167.302 19.784C166.678 19.528 166.134 19.136 165.67 18.608C165.222 18.08 164.998 17.368 164.998 16.472C164.998 15.736 165.206 15.064 165.622 14.456C166.054 13.848 166.662 13.368 167.446 13.016C168.246 12.664 169.182 12.488 170.254 12.488C171.838 12.488 173.102 12.888 174.046 13.688C174.99 14.472 175.51 15.536 175.606 16.88H172.39C172.342 16.352 172.118 15.936 171.718 15.632C171.334 15.312 170.814 15.152 170.158 15.152C169.55 15.152 169.078 15.264 168.742 15.488C168.422 15.712 168.262 16.024 168.262 16.424C168.262 16.872 168.486 17.216 168.934 17.456C169.382 17.68 170.078 17.912 171.022 18.152C171.982 18.392 172.774 18.64 173.398 18.896C174.022 19.152 174.558 19.552 175.006 20.096C175.47 20.624 175.71 21.328 175.726 22.208C175.726 22.976 175.51 23.664 175.078 24.272C174.662 24.88 174.054 25.36 173.254 25.712C172.47 26.048 171.55 26.216 170.494 26.216ZM190.059 9.248C191.819 9.248 193.363 9.592 194.691 10.28C196.035 10.968 197.067 11.952 197.787 13.232C198.523 14.496 198.891 15.968 198.891 17.648C198.891 19.328 198.523 20.8 197.787 22.064C197.067 23.312 196.035 24.28 194.691 24.968C193.363 25.656 191.819 26 190.059 26H184.203V9.248H190.059ZM189.939 23.144C191.699 23.144 193.059 22.664 194.019 21.704C194.979 20.744 195.459 19.392 195.459 17.648C195.459 15.904 194.979 14.544 194.019 13.568C193.059 12.576 191.699 12.08 189.939 12.08H187.563V23.144H189.939ZM204.766 9.248V26H201.406V9.248H204.766ZM213.174 26.216C212.086 26.216 211.11 26.024 210.246 25.64C209.382 25.24 208.694 24.704 208.182 24.032C207.686 23.36 207.414 22.616 207.366 21.8H210.75C210.814 22.312 211.062 22.736 211.494 23.072C211.942 23.408 212.494 23.576 213.15 23.576C213.79 23.576 214.286 23.448 214.638 23.192C215.006 22.936 215.19 22.608 215.19 22.208C215.19 21.776 214.966 21.456 214.518 21.248C214.086 21.024 213.39 20.784 212.43 20.528C211.438 20.288 210.622 20.04 209.982 19.784C209.358 19.528 208.814 19.136 208.35 18.608C207.902 18.08 207.678 17.368 207.678 16.472C207.678 15.736 207.886 15.064 208.302 14.456C208.734 13.848 209.342 13.368 210.126 13.016C210.926 12.664 211.862 12.488 212.934 12.488C214.518 12.488 215.782 12.888 216.726 13.688C217.67 14.472 218.19 15.536 218.286 16.88H215.07C215.022 16.352 214.798 15.936 214.398 15.632C214.014 15.312 213.494 15.152 212.838 15.152C212.23 15.152 211.758 15.264 211.422 15.488C211.102 15.712 210.942 16.024 210.942 16.424C210.942 16.872 211.166 17.216 211.614 17.456C212.062 17.68 212.758 17.912 213.702 18.152C214.662 18.392 215.454 18.64 216.078 18.896C216.702 19.152 217.238 19.552 217.686 20.096C218.15 20.624 218.39 21.328 218.406 22.208C218.406 22.976 218.19 23.664 217.758 24.272C217.342 24.88 216.734 25.36 215.934 25.712C215.15 26.048 214.23 26.216 213.174 26.216ZM233.524 19.064C233.524 19.544 233.492 19.976 233.428 20.36H223.708C223.788 21.32 224.124 22.072 224.716 22.616C225.308 23.16 226.036 23.432 226.9 23.432C228.148 23.432 229.036 22.896 229.564 21.824H233.188C232.804 23.104 232.068 24.16 230.98 24.992C229.892 25.808 228.556 26.216 226.972 26.216C225.692 26.216 224.54 25.936 223.516 25.376C222.508 24.8 221.716 23.992 221.14 22.952C220.58 21.912 220.3 20.712 220.3 19.352C220.3 17.976 220.58 16.768 221.14 15.728C221.7 14.688 222.484 13.888 223.492 13.328C224.5 12.768 225.66 12.488 226.972 12.488C228.236 12.488 229.364 12.76 230.356 13.304C231.364 13.848 232.14 14.624 232.684 15.632C233.244 16.624 233.524 17.768 233.524 19.064ZM230.044 18.104C230.028 17.24 229.716 16.552 229.108 16.04C228.5 15.512 227.756 15.248 226.876 15.248C226.044 15.248 225.34 15.504 224.764 16.016C224.204 16.512 223.86 17.208 223.732 18.104H230.044ZM235.112 19.304C235.112 17.96 235.376 16.768 235.904 15.728C236.448 14.688 237.176 13.888 238.088 13.328C239.016 12.768 240.048 12.488 241.184 12.488C242.176 12.488 243.04 12.688 243.776 13.088C244.528 13.488 245.128 13.992 245.576 14.6V12.704H248.96V26H245.576V24.056C245.144 24.68 244.544 25.2 243.776 25.616C243.024 26.016 242.152 26.216 241.16 26.216C240.04 26.216 239.016 25.928 238.088 25.352C237.176 24.776 236.448 23.968 235.904 22.928C235.376 21.872 235.112 20.664 235.112 19.304ZM245.576 19.352C245.576 18.536 245.416 17.84 245.096 17.264C244.776 16.672 244.344 16.224 243.8 15.92C243.256 15.6 242.672 15.44 242.048 15.44C241.424 15.44 240.848 15.592 240.32 15.896C239.792 16.2 239.36 16.648 239.024 17.24C238.704 17.816 238.544 18.504 238.544 19.304C238.544 20.104 238.704 20.808 239.024 21.416C239.36 22.008 239.792 22.464 240.32 22.784C240.864 23.104 241.44 23.264 242.048 23.264C242.672 23.264 243.256 23.112 243.8 22.808C244.344 22.488 244.776 22.04 245.096 21.464C245.416 20.872 245.576 20.168 245.576 19.352ZM257.33 26.216C256.242 26.216 255.266 26.024 254.402 25.64C253.538 25.24 252.85 24.704 252.338 24.032C251.842 23.36 251.57 22.616 251.522 21.8H254.906C254.97 22.312 255.218 22.736 255.65 23.072C256.098 23.408 256.65 23.576 257.306 23.576C257.946 23.576 258.442 23.448 258.794 23.192C259.162 22.936 259.346 22.608 259.346 22.208C259.346 21.776 259.122 21.456 258.674 21.248C258.242 21.024 257.546 20.784 256.586 20.528C255.594 20.288 254.778 20.04 254.138 19.784C253.514 19.528 252.97 19.136 252.506 18.608C252.058 18.08 251.834 17.368 251.834 16.472C251.834 15.736 252.042 15.064 252.458 14.456C252.89 13.848 253.498 13.368 254.282 13.016C255.082 12.664 256.018 12.488 257.09 12.488C258.674 12.488 259.938 12.888 260.882 13.688C261.826 14.472 262.346 15.536 262.442 16.88H259.226C259.178 16.352 258.954 15.936 258.554 15.632C258.17 15.312 257.65 15.152 256.994 15.152C256.386 15.152 255.914 15.264 255.578 15.488C255.258 15.712 255.098 16.024 255.098 16.424C255.098 16.872 255.322 17.216 255.77 17.456C256.218 17.68 256.914 17.912 257.858 18.152C258.818 18.392 259.61 18.64 260.234 18.896C260.858 19.152 261.394 19.552 261.842 20.096C262.306 20.624 262.546 21.328 262.562 22.208C262.562 22.976 262.346 23.664 261.914 24.272C261.498 24.88 260.89 25.36 260.09 25.712C259.306 26.048 258.386 26.216 257.33 26.216ZM277.68 19.064C277.68 19.544 277.648 19.976 277.584 20.36H267.864C267.944 21.32 268.28 22.072 268.872 22.616C269.464 23.16 270.192 23.432 271.056 23.432C272.304 23.432 273.192 22.896 273.72 21.824H277.344C276.96 23.104 276.224 24.16 275.136 24.992C274.048 25.808 272.712 26.216 271.128 26.216C269.848 26.216 268.696 25.936 267.672 25.376C266.664 24.8 265.872 23.992 265.296 22.952C264.736 21.912 264.456 20.712 264.456 19.352C264.456 17.976 264.736 16.768 265.296 15.728C265.856 14.688 266.64 13.888 267.648 13.328C268.656 12.768 269.816 12.488 271.128 12.488C272.392 12.488 273.52 12.76 274.512 13.304C275.52 13.848 276.296 14.624 276.84 15.632C277.4 16.624 277.68 17.768 277.68 19.064ZM274.2 18.104C274.184 17.24 273.872 16.552 273.264 16.04C272.656 15.512 271.912 15.248 271.032 15.248C270.2 15.248 269.496 15.504 268.92 16.016C268.36 16.512 268.016 17.208 267.888 18.104H274.2Z" fill="#FFF4ED"/>
<g clip-path="url(#clip0_424_4984)">
<path d="M145.944 74.572C147.213 74.0042 148.358 73.1919 149.313 72.1816C150.268 71.1712 151.015 69.9824 151.511 68.6833C152.007 67.3842 152.241 66.0002 152.202 64.6103C152.163 63.2204 151.85 61.8519 151.281 60.5829C150.131 58.0192 148.011 56.0169 145.385 55.0161C142.76 54.0152 139.844 54.0977 137.28 55.2454C136.009 55.8121 134.863 56.6238 133.907 57.634C132.951 58.6443 132.203 59.8332 131.707 61.1328C131.211 62.4324 130.976 63.8171 131.016 65.2076C131.056 66.598 131.369 67.967 131.939 69.2361C133.089 71.8006 135.21 73.8034 137.837 74.804C140.463 75.8047 143.379 75.7212 145.944 74.572Z" fill="#FFF4ED"/>
<path d="M161.109 62.9187C161.321 62.5543 161.421 62.1352 161.395 61.7143C161.369 61.2935 161.219 60.8897 160.964 60.554C160.709 60.2183 160.36 59.9656 159.961 59.8279C159.563 59.6902 159.133 59.6737 158.725 59.7804C158.317 59.887 157.949 60.1121 157.669 60.4273C157.389 60.7424 157.209 61.1335 157.151 61.5511C157.092 61.9687 157.159 62.3942 157.343 62.7738C157.526 63.1535 157.818 63.4703 158.181 63.6843C158.671 63.9695 159.254 64.0489 159.803 63.9051C160.351 63.7613 160.821 63.4061 161.108 62.9172L161.109 62.9187Z" fill="#FFF4ED"/>
<path d="M180.773 51.5641C180.915 51.3221 181.007 51.0547 181.045 50.7772C181.082 50.4996 181.065 50.2173 180.993 49.9464C180.922 49.6756 180.797 49.4215 180.628 49.1988C180.458 48.9761 180.245 48.7891 180.003 48.6485C179.638 48.4359 179.219 48.3362 178.797 48.3622C178.376 48.3881 177.972 48.5385 177.636 48.7942C177.3 49.05 177.047 49.3996 176.91 49.7989C176.773 50.1982 176.757 50.6292 176.865 51.0375C176.973 51.4457 177.199 51.8128 177.516 52.0923C177.832 52.3718 178.224 52.5511 178.643 52.6077C179.061 52.6642 179.487 52.5954 179.866 52.4099C180.245 52.2244 180.561 51.929 180.773 51.5641Z" fill="#FFF4ED"/>
<path d="M174.219 55.3484C174.36 55.1068 174.452 54.8395 174.49 54.5622C174.527 54.2848 174.509 54.0027 174.437 53.7322C174.365 53.4618 174.24 53.2082 174.07 52.9863C173.899 52.7643 173.687 52.5783 173.444 52.439C173.203 52.2977 172.936 52.2052 172.659 52.167C172.382 52.1287 172.1 52.1454 171.83 52.2161C171.559 52.2868 171.306 52.41 171.083 52.5788C170.86 52.7476 170.673 52.9587 170.531 53.1999C170.248 53.6903 170.169 54.2729 170.313 54.8208C170.457 55.3687 170.812 55.8374 171.3 56.1249C171.79 56.4091 172.373 56.4872 172.921 56.3418C173.468 56.1965 173.936 55.8398 174.22 55.3499L174.219 55.3484Z" fill="#FFF4ED"/>
<path d="M187.33 47.7813C187.613 47.2918 187.691 46.7101 187.547 46.1632C187.404 45.6162 187.05 45.1481 186.563 44.861C186.071 44.5787 185.489 44.5018 184.941 44.6469C184.394 44.7921 183.926 45.1475 183.639 45.636C183.498 45.8778 183.406 46.1451 183.369 46.4224C183.332 46.6998 183.349 46.9818 183.421 47.2524C183.493 47.5229 183.617 47.7766 183.787 47.999C183.957 48.2214 184.169 48.4082 184.411 48.5485C184.653 48.6899 184.921 48.7823 185.199 48.8203C185.476 48.8583 185.759 48.8412 186.03 48.77C186.301 48.6987 186.556 48.5747 186.779 48.4051C187.002 48.2355 187.188 48.0235 187.33 47.7813Z" fill="#FFF4ED"/>
<path d="M167.256 59.6343C167.463 59.4459 167.631 59.2186 167.749 58.9653C167.868 58.712 167.936 58.4378 167.948 58.1583C167.961 57.8789 167.918 57.5997 167.822 57.3368C167.726 57.074 167.58 56.8326 167.391 56.6265C167.009 56.2095 166.478 55.9607 165.914 55.9346C165.35 55.9086 164.798 56.1074 164.38 56.4874C164.173 56.6755 164.005 56.9026 163.886 57.1557C163.766 57.4089 163.698 57.683 163.686 57.9625C163.673 58.2419 163.715 58.5212 163.81 58.7842C163.906 59.0472 164.052 59.2889 164.241 59.4953C164.43 59.7024 164.657 59.8704 164.911 59.9895C165.165 60.1086 165.44 60.1765 165.72 60.1895C166 60.2024 166.28 60.16 166.543 60.0647C166.807 59.9695 167.049 59.8232 167.256 59.6343Z" fill="#FFF4ED"/>
<path d="M161.109 66.8689C161.322 67.2337 161.421 67.6532 161.395 68.0745C161.369 68.4957 161.219 68.8999 160.964 69.2359C160.708 69.5719 160.359 69.8247 159.96 69.9624C159.561 70.1001 159.13 70.1164 158.722 70.0095C158.314 69.9025 157.946 69.677 157.666 69.3613C157.386 69.0457 157.205 68.6541 157.148 68.236C157.09 67.8179 157.157 67.3921 157.341 67.0122C157.525 66.6324 157.817 66.3155 158.181 66.1017C158.672 65.8186 159.254 65.7404 159.802 65.884C160.35 66.0277 160.821 66.3816 161.109 66.8689Z" fill="#FFF4ED"/>
<path d="M174.219 74.4454C174.36 74.6873 174.452 74.9547 174.489 75.2323C174.527 75.5099 174.509 75.7921 174.437 76.0628C174.365 76.3335 174.24 76.5872 174.07 76.8095C173.899 77.0317 173.686 77.2181 173.444 77.3579C173.202 77.499 172.935 77.591 172.658 77.6288C172.381 77.6666 172.099 77.6494 171.828 77.5781C171.558 77.5069 171.304 77.383 171.082 77.2135C170.859 77.0441 170.672 76.8325 170.531 76.5907C170.279 76.1037 170.225 75.5384 170.378 75.012C170.531 74.4856 170.881 74.0383 171.355 73.7628C171.829 73.4873 172.391 73.4047 172.925 73.532C173.458 73.6594 173.922 73.987 174.22 74.4469L174.219 74.4454Z" fill="#FFF4ED"/>
<path d="M203.528 78.6282H176.286C168.78 78.6282 162.083 84.7157 162.083 92.2188V125.116C162.083 127.686 164.097 129.777 166.659 129.777C167.893 129.774 169.076 129.282 169.947 128.408C170.819 127.534 171.308 126.35 171.306 125.116V95.4579H175.15V142.927H187.625V130.064H191.592V142.927H204.075V95.4594H207.958V125.117C207.958 127.688 210.036 129.778 212.591 129.778C215.159 129.778 217.188 127.686 217.188 125.117V92.2204C217.189 84.7172 211.031 78.6282 203.528 78.6282ZM181.194 83.5688C180.175 84.1625 178.866 83.8204 178.27 82.8016C178.007 82.3129 177.944 81.7407 178.094 81.2063C178.245 80.6718 178.598 80.2171 179.078 79.9383C179.559 79.6595 180.129 79.5785 180.667 79.7125C181.206 79.8465 181.672 80.185 181.966 80.6563C182.553 81.6719 182.214 82.9813 181.194 83.5688ZM187.75 87.3563C187.26 87.6391 186.679 87.7171 186.132 87.5734C185.585 87.4298 185.117 87.076 184.83 86.5891C184.571 86.1011 184.51 85.5317 184.662 85.0004C184.814 84.4691 185.165 84.0171 185.643 83.7392C186.12 83.4613 186.687 83.3791 187.224 83.5099C187.76 83.6407 188.226 83.9743 188.522 84.4407C189.113 85.4563 188.769 86.7594 187.75 87.3579V87.3563Z" fill="#FFF4ED"/>
<path d="M167.256 70.1562C167.463 70.3451 167.63 70.5728 167.749 70.8264C167.868 71.08 167.935 71.3544 167.948 71.6341C167.96 71.9137 167.917 72.1931 167.822 72.4563C167.727 72.7195 167.58 72.9613 167.391 73.1679C167.203 73.3746 166.975 73.542 166.721 73.6606C166.468 73.7792 166.193 73.8467 165.914 73.8593C165.634 73.8718 165.354 73.8292 165.091 73.7337C164.828 73.6383 164.586 73.492 164.38 73.3031C163.962 72.9216 163.714 72.39 163.688 71.8252C163.663 71.2604 163.863 70.7087 164.245 70.2914C164.626 69.8741 165.158 69.6254 165.722 69.6C166.287 69.5747 166.839 69.7748 167.256 70.1562Z" fill="#FFF4ED"/>
<path d="M169.597 63.1751C169.963 63.385 170.259 63.6988 170.447 64.0767C170.635 64.4545 170.706 64.8796 170.653 65.2983C170.599 65.7169 170.423 66.1103 170.146 66.4289C169.87 66.7475 169.505 66.9769 169.097 67.0882C168.69 67.1995 168.259 67.1877 167.859 67.0543C167.459 66.9209 167.107 66.6719 166.848 66.3386C166.589 66.0054 166.434 65.6029 166.404 65.182C166.373 64.7611 166.468 64.3405 166.677 63.9735C166.959 63.4816 167.425 63.1215 167.972 62.9716C168.519 62.8217 169.103 62.8943 169.597 63.1735V63.1751Z" fill="#FFF4ED"/>
<path d="M189.53 54.3188C188.136 54.3188 186.757 54.5933 185.47 55.1264C184.183 55.6596 183.013 56.4411 182.028 57.4263C181.043 58.4114 180.261 59.581 179.728 60.8682C179.195 62.1554 178.92 63.535 178.92 64.9282C178.92 66.3215 179.195 67.7011 179.728 68.9883C180.261 70.2754 181.043 71.445 182.028 72.4302C183.013 73.4154 184.183 74.1968 185.47 74.73C186.757 75.2632 188.136 75.5376 189.53 75.5376C192.343 75.5372 195.041 74.4195 197.031 72.4304C199.021 70.4412 200.139 67.7433 200.141 64.9298C200.14 62.1158 199.022 59.4174 197.032 57.4276C195.042 55.4379 192.344 54.3197 189.53 54.3188ZM184.253 57.9329C184.535 57.4413 185.001 57.0818 185.548 56.9333C186.095 56.7848 186.678 56.8594 187.17 57.1407C188.191 57.7282 188.544 59.0235 187.961 60.0532C187.679 60.5435 187.214 60.9021 186.668 61.0506C186.122 61.1991 185.54 61.1253 185.048 60.8454C184.558 60.5636 184.199 60.0989 184.05 59.5531C183.901 59.0072 183.973 58.4247 184.253 57.9329ZM181.417 66.8829C180.927 66.6005 180.569 66.1359 180.42 65.5904C180.271 65.0449 180.344 64.4626 180.622 63.9704C180.904 63.4783 181.371 63.1185 181.918 62.9699C182.466 62.8214 183.05 62.8963 183.542 63.1782C184.566 63.7626 184.916 65.0579 184.325 66.0876C184.187 66.3309 184.002 66.5445 183.781 66.7162C183.56 66.8879 183.307 67.0144 183.037 67.0884C182.767 67.1624 182.485 67.1825 182.208 67.1475C181.93 67.1125 181.662 67.0231 181.419 66.8845L181.417 66.8829ZM188.061 71.9673C187.779 72.4578 187.315 72.8168 186.769 72.9661C186.223 73.1154 185.641 73.0428 185.148 72.7642C184.681 72.4706 184.346 72.0076 184.212 71.4723C184.078 70.9369 184.157 70.3705 184.431 69.8917C184.705 69.4129 185.154 69.0588 185.684 68.9034C186.213 68.7479 186.782 68.8033 187.272 69.0579C188.292 69.6423 188.645 70.9407 188.061 71.9673ZM191.898 66.0876C191.617 66.5787 191.153 66.9383 190.607 67.0874C190.061 67.2365 189.478 67.163 188.986 66.8829C188.494 66.6013 188.135 66.136 187.987 65.5894C187.838 65.0428 187.913 64.4595 188.195 63.9681C188.476 63.4766 188.941 63.1171 189.488 62.9687C190.035 62.8203 190.618 62.8951 191.109 63.1767C192.125 63.761 192.489 65.0642 191.898 66.0876Z" fill="#FFF4ED"/>
<path d="M175.964 62.9485C177.114 63.2032 177.839 64.3329 177.589 65.4891C177.465 66.0408 177.127 66.521 176.651 66.8253C176.174 67.1296 175.597 67.2334 175.044 67.1141C174.492 66.9908 174.012 66.6543 173.707 66.178C173.403 65.7017 173.299 65.1244 173.419 64.572C173.542 64.0195 173.879 63.5384 174.356 63.234C174.833 62.9297 175.411 62.827 175.964 62.9485Z" fill="#FFF4ED"/>
<path d="M178.966 71.539C180.113 71.7968 180.841 72.9265 180.591 74.0796C180.466 74.6313 180.129 75.1115 179.652 75.4158C179.176 75.7201 178.598 75.8239 178.045 75.7046C177.493 75.5826 177.012 75.2461 176.707 74.7692C176.403 74.2923 176.301 73.7141 176.423 73.1617C176.545 72.6093 176.881 72.128 177.358 71.8237C177.835 71.5194 178.413 71.417 178.966 71.539Z" fill="#FFF4ED"/>
<path d="M178.388 54.775C178.661 54.8352 178.92 54.9487 179.15 55.1091C179.38 55.2694 179.576 55.4735 179.727 55.7095C179.877 55.9456 179.98 56.2091 180.029 56.4849C180.078 56.7607 180.073 57.0435 180.013 57.3172C179.952 57.5908 179.839 57.8499 179.678 58.0796C179.518 58.3094 179.314 58.5053 179.078 58.6562C178.842 58.8071 178.578 58.91 178.303 58.959C178.027 59.0081 177.744 59.0024 177.47 58.9422C177.197 58.8819 176.938 58.7684 176.708 58.6081C176.478 58.4477 176.282 58.2437 176.131 58.0076C175.98 57.7715 175.878 57.5081 175.828 57.2322C175.779 56.9564 175.785 56.6736 175.845 56.4C175.906 56.1263 176.019 55.8673 176.179 55.6375C176.34 55.4078 176.544 55.2119 176.78 55.061C177.016 54.9101 177.279 54.8071 177.555 54.7581C177.831 54.709 178.114 54.7147 178.388 54.775Z" fill="#FFF4ED"/>
<path d="M144.609 104.644C144.996 105.359 145.57 105.956 146.271 106.37C146.971 106.784 147.771 107 148.584 106.994C150.545 106.994 152.233 105.825 152.909 104.102L160.983 80.4078C161.178 79.8334 161.259 79.2261 161.219 78.6206C161.18 78.0151 161.022 77.4233 160.754 76.8789C160.486 76.3345 160.113 75.8482 159.658 75.4478C159.202 75.0474 158.671 74.7408 158.097 74.5453C157.522 74.3499 156.915 74.2695 156.31 74.3088C155.704 74.348 155.112 74.5061 154.568 74.7741C154.024 75.0421 153.537 75.4147 153.137 75.8706C152.737 76.3265 152.43 76.8568 152.234 77.4313L147.609 91.0344L142.598 82.0578C141.589 80.4672 140.149 79.1954 138.446 78.3897C136.743 77.5841 134.847 77.2777 132.977 77.506C131.107 77.7343 129.34 78.488 127.881 79.6797C126.421 80.8714 125.33 82.4523 124.733 84.2391L118.677 102.361C118.234 103.461 117.947 105.417 117.947 106.442V142.927H136.069V113.067L141.052 98.25L144.609 104.644Z" fill="#FFF4ED"/>
</g>
<path d="M59.7914 170.112C59.0554 170.112 58.3941 169.984 57.8074 169.728C57.2314 169.461 56.7781 169.099 56.4474 168.64C56.1168 168.171 55.9461 167.632 55.9354 167.024H57.4874C57.5408 167.547 57.7541 167.989 58.1274 168.352C58.5114 168.704 59.0661 168.88 59.7914 168.88C60.4848 168.88 61.0288 168.709 61.4234 168.368C61.8288 168.016 62.0314 167.568 62.0314 167.024C62.0314 166.597 61.9141 166.251 61.6794 165.984C61.4448 165.717 61.1514 165.515 60.7994 165.376C60.4474 165.237 59.9728 165.088 59.3754 164.928C58.6394 164.736 58.0474 164.544 57.5994 164.352C57.1621 164.16 56.7834 163.861 56.4634 163.456C56.1541 163.04 55.9994 162.485 55.9994 161.792C55.9994 161.184 56.1541 160.645 56.4634 160.176C56.7728 159.707 57.2048 159.344 57.7594 159.088C58.3248 158.832 58.9701 158.704 59.6954 158.704C60.7408 158.704 61.5941 158.965 62.2554 159.488C62.9274 160.011 63.3061 160.704 63.3914 161.568H61.7914C61.7381 161.141 61.5141 160.768 61.1194 160.448C60.7248 160.117 60.2021 159.952 59.5514 159.952C58.9434 159.952 58.4474 160.112 58.0634 160.432C57.6794 160.741 57.4874 161.179 57.4874 161.744C57.4874 162.149 57.5994 162.48 57.8234 162.736C58.0581 162.992 58.3408 163.189 58.6714 163.328C59.0128 163.456 59.4874 163.605 60.0954 163.776C60.8314 163.979 61.4234 164.181 61.8714 164.384C62.3194 164.576 62.7034 164.88 63.0234 165.296C63.3434 165.701 63.5034 166.256 63.5034 166.96C63.5034 167.504 63.3594 168.016 63.0714 168.496C62.7834 168.976 62.3568 169.365 61.7914 169.664C61.2261 169.963 60.5594 170.112 59.7914 170.112ZM67.1021 162.848C67.3901 162.347 67.8167 161.931 68.3821 161.6C68.9581 161.259 69.6247 161.088 70.3821 161.088C71.1607 161.088 71.8647 161.275 72.4941 161.648C73.1341 162.021 73.6354 162.549 73.9981 163.232C74.3607 163.904 74.5421 164.688 74.5421 165.584C74.5421 166.469 74.3607 167.259 73.9981 167.952C73.6354 168.645 73.1341 169.184 72.4941 169.568C71.8647 169.952 71.1607 170.144 70.3821 170.144C69.6354 170.144 68.9741 169.979 68.3981 169.648C67.8327 169.307 67.4007 168.885 67.1021 168.384V174.16H65.6461V161.232H67.1021V162.848ZM73.0541 165.584C73.0541 164.923 72.9207 164.347 72.6541 163.856C72.3874 163.365 72.0247 162.992 71.5661 162.736C71.1181 162.48 70.6221 162.352 70.0781 162.352C69.5447 162.352 69.0487 162.485 68.5901 162.752C68.1421 163.008 67.7794 163.387 67.5021 163.888C67.2354 164.379 67.1021 164.949 67.1021 165.6C67.1021 166.261 67.2354 166.843 67.5021 167.344C67.7794 167.835 68.1421 168.213 68.5901 168.48C69.0487 168.736 69.5447 168.864 70.0781 168.864C70.6221 168.864 71.1181 168.736 71.5661 168.48C72.0247 168.213 72.3874 167.835 72.6541 167.344C72.9207 166.843 73.0541 166.256 73.0541 165.584ZM84.4586 165.28C84.4586 165.557 84.4426 165.851 84.4106 166.16H77.4026C77.4559 167.024 77.7492 167.701 78.2826 168.192C78.8266 168.672 79.4826 168.912 80.2506 168.912C80.8799 168.912 81.4026 168.768 81.8186 168.48C82.2452 168.181 82.5439 167.787 82.7146 167.296H84.2826C84.0479 168.139 83.5786 168.827 82.8746 169.36C82.1706 169.883 81.2959 170.144 80.2506 170.144C79.4186 170.144 78.6719 169.957 78.0106 169.584C77.3599 169.211 76.8479 168.683 76.4746 168C76.1012 167.307 75.9146 166.507 75.9146 165.6C75.9146 164.693 76.0959 163.899 76.4586 163.216C76.8212 162.533 77.3279 162.011 77.9786 161.648C78.6399 161.275 79.3972 161.088 80.2506 161.088C81.0826 161.088 81.8186 161.269 82.4586 161.632C83.0986 161.995 83.5892 162.496 83.9306 163.136C84.2826 163.765 84.4586 164.48 84.4586 165.28ZM82.9546 164.976C82.9546 164.421 82.8319 163.947 82.5866 163.552C82.3412 163.147 82.0052 162.843 81.5786 162.64C81.1626 162.427 80.6986 162.32 80.1866 162.32C79.4506 162.32 78.8212 162.555 78.2986 163.024C77.7866 163.493 77.4932 164.144 77.4186 164.976H82.9546ZM85.8364 165.6C85.8364 164.693 86.0178 163.904 86.3804 163.232C86.7431 162.549 87.2444 162.021 87.8844 161.648C88.5351 161.275 89.2764 161.088 90.1084 161.088C91.1858 161.088 92.0711 161.349 92.7644 161.872C93.4684 162.395 93.9324 163.12 94.1564 164.048H92.5884C92.4391 163.515 92.1458 163.093 91.7084 162.784C91.2818 162.475 90.7484 162.32 90.1084 162.32C89.2764 162.32 88.6044 162.608 88.0924 163.184C87.5804 163.749 87.3244 164.555 87.3244 165.6C87.3244 166.656 87.5804 167.472 88.0924 168.048C88.6044 168.624 89.2764 168.912 90.1084 168.912C90.7484 168.912 91.2818 168.763 91.7084 168.464C92.1351 168.165 92.4284 167.739 92.5884 167.184H94.1564C93.9218 168.08 93.4524 168.8 92.7484 169.344C92.0444 169.877 91.1644 170.144 90.1084 170.144C89.2764 170.144 88.5351 169.957 87.8844 169.584C87.2444 169.211 86.7431 168.683 86.3804 168C86.0178 167.317 85.8364 166.517 85.8364 165.6ZM96.8512 159.808C96.5739 159.808 96.3392 159.712 96.1472 159.52C95.9552 159.328 95.8592 159.093 95.8592 158.816C95.8592 158.539 95.9552 158.304 96.1472 158.112C96.3392 157.92 96.5739 157.824 96.8512 157.824C97.1179 157.824 97.3419 157.92 97.5232 158.112C97.7152 158.304 97.8112 158.539 97.8112 158.816C97.8112 159.093 97.7152 159.328 97.5232 159.52C97.3419 159.712 97.1179 159.808 96.8512 159.808ZM97.5552 161.232V170H96.0992V161.232H97.5552ZM99.4927 165.584C99.4927 164.688 99.674 163.904 100.037 163.232C100.399 162.549 100.895 162.021 101.525 161.648C102.165 161.275 102.874 161.088 103.653 161.088C104.421 161.088 105.087 161.253 105.653 161.584C106.218 161.915 106.639 162.331 106.917 162.832V161.232H108.389V170H106.917V168.368C106.629 168.88 106.197 169.307 105.621 169.648C105.055 169.979 104.394 170.144 103.637 170.144C102.858 170.144 102.154 169.952 101.525 169.568C100.895 169.184 100.399 168.645 100.037 167.952C99.674 167.259 99.4927 166.469 99.4927 165.584ZM106.917 165.6C106.917 164.939 106.783 164.363 106.517 163.872C106.25 163.381 105.887 163.008 105.429 162.752C104.981 162.485 104.485 162.352 103.941 162.352C103.397 162.352 102.901 162.48 102.453 162.736C102.005 162.992 101.647 163.365 101.381 163.856C101.114 164.347 100.981 164.923 100.981 165.584C100.981 166.256 101.114 166.843 101.381 167.344C101.647 167.835 102.005 168.213 102.453 168.48C102.901 168.736 103.397 168.864 103.941 168.864C104.485 168.864 104.981 168.736 105.429 168.48C105.887 168.213 106.25 167.835 106.517 167.344C106.783 166.843 106.917 166.261 106.917 165.6ZM112.305 158.16V170H110.849V158.16H112.305ZM115.539 159.808C115.261 159.808 115.027 159.712 114.835 159.52C114.643 159.328 114.547 159.093 114.547 158.816C114.547 158.539 114.643 158.304 114.835 158.112C115.027 157.92 115.261 157.824 115.539 157.824C115.805 157.824 116.029 157.92 116.211 158.112C116.403 158.304 116.499 158.539 116.499 158.816C116.499 159.093 116.403 159.328 116.211 159.52C116.029 159.712 115.805 159.808 115.539 159.808ZM116.243 161.232V170H114.787V161.232H116.243ZM119.812 168.8H124.116V170H118.148V168.8L122.404 162.416H118.18V161.232H124.084V162.416L119.812 168.8ZM134.005 165.28C134.005 165.557 133.989 165.851 133.957 166.16H126.949C127.003 167.024 127.296 167.701 127.829 168.192C128.373 168.672 129.029 168.912 129.797 168.912C130.427 168.912 130.949 168.768 131.365 168.48C131.792 168.181 132.091 167.787 132.261 167.296H133.829C133.595 168.139 133.125 168.827 132.421 169.36C131.717 169.883 130.843 170.144 129.797 170.144C128.965 170.144 128.219 169.957 127.557 169.584C126.907 169.211 126.395 168.683 126.021 168C125.648 167.307 125.461 166.507 125.461 165.6C125.461 164.693 125.643 163.899 126.005 163.216C126.368 162.533 126.875 162.011 127.525 161.648C128.187 161.275 128.944 161.088 129.797 161.088C130.629 161.088 131.365 161.269 132.005 161.632C132.645 161.995 133.136 162.496 133.477 163.136C133.829 163.765 134.005 164.48 134.005 165.28ZM132.501 164.976C132.501 164.421 132.379 163.947 132.133 163.552C131.888 163.147 131.552 162.843 131.125 162.64C130.709 162.427 130.245 162.32 129.733 162.32C128.997 162.32 128.368 162.555 127.845 163.024C127.333 163.493 127.04 164.144 126.965 164.976H132.501ZM135.383 165.584C135.383 164.688 135.565 163.904 135.927 163.232C136.29 162.549 136.786 162.021 137.415 161.648C138.055 161.275 138.77 161.088 139.559 161.088C140.242 161.088 140.877 161.248 141.463 161.568C142.05 161.877 142.498 162.288 142.807 162.8V158.16H144.279V170H142.807V168.352C142.519 168.875 142.093 169.307 141.527 169.648C140.962 169.979 140.301 170.144 139.543 170.144C138.765 170.144 138.055 169.952 137.415 169.568C136.786 169.184 136.29 168.645 135.927 167.952C135.565 167.259 135.383 166.469 135.383 165.584ZM142.807 165.6C142.807 164.939 142.674 164.363 142.407 163.872C142.141 163.381 141.778 163.008 141.319 162.752C140.871 162.485 140.375 162.352 139.831 162.352C139.287 162.352 138.791 162.48 138.343 162.736C137.895 162.992 137.538 163.365 137.271 163.856C137.005 164.347 136.871 164.923 136.871 165.584C136.871 166.256 137.005 166.843 137.271 167.344C137.538 167.835 137.895 168.213 138.343 168.48C138.791 168.736 139.287 168.864 139.831 168.864C140.375 168.864 140.871 168.736 141.319 168.48C141.778 168.213 142.141 167.835 142.407 167.344C142.674 166.843 142.807 166.261 142.807 165.6ZM154.109 170.144C153.437 170.144 152.835 170.032 152.301 169.808C151.768 169.573 151.347 169.253 151.037 168.848C150.728 168.432 150.557 167.957 150.525 167.424H152.029C152.072 167.861 152.275 168.219 152.637 168.496C153.011 168.773 153.496 168.912 154.093 168.912C154.648 168.912 155.085 168.789 155.405 168.544C155.725 168.299 155.885 167.989 155.885 167.616C155.885 167.232 155.715 166.949 155.373 166.768C155.032 166.576 154.504 166.389 153.789 166.208C153.139 166.037 152.605 165.867 152.189 165.696C151.784 165.515 151.432 165.253 151.133 164.912C150.845 164.56 150.701 164.101 150.701 163.536C150.701 163.088 150.835 162.677 151.101 162.304C151.368 161.931 151.747 161.637 152.237 161.424C152.728 161.2 153.288 161.088 153.917 161.088C154.888 161.088 155.672 161.333 156.269 161.824C156.867 162.315 157.187 162.987 157.229 163.84H155.773C155.741 163.381 155.555 163.013 155.213 162.736C154.883 162.459 154.435 162.32 153.869 162.32C153.347 162.32 152.931 162.432 152.621 162.656C152.312 162.88 152.157 163.173 152.157 163.536C152.157 163.824 152.248 164.064 152.429 164.256C152.621 164.437 152.856 164.587 153.133 164.704C153.421 164.811 153.816 164.933 154.317 165.072C154.947 165.243 155.459 165.413 155.853 165.584C156.248 165.744 156.584 165.989 156.861 166.32C157.149 166.651 157.299 167.083 157.309 167.616C157.309 168.096 157.176 168.528 156.909 168.912C156.643 169.296 156.264 169.6 155.773 169.824C155.293 170.037 154.739 170.144 154.109 170.144ZM167.141 161.232V170H165.685V168.704C165.407 169.152 165.018 169.504 164.517 169.76C164.026 170.005 163.482 170.128 162.885 170.128C162.202 170.128 161.589 169.989 161.045 169.712C160.501 169.424 160.069 168.997 159.749 168.432C159.439 167.867 159.285 167.179 159.285 166.368V161.232H160.725V166.176C160.725 167.04 160.943 167.707 161.381 168.176C161.818 168.635 162.415 168.864 163.173 168.864C163.951 168.864 164.565 168.624 165.013 168.144C165.461 167.664 165.685 166.965 165.685 166.048V161.232H167.141ZM171.055 162.656C171.311 162.155 171.674 161.765 172.143 161.488C172.623 161.211 173.205 161.072 173.887 161.072V162.576H173.503C171.871 162.576 171.055 163.461 171.055 165.232V170H169.599V161.232H171.055V162.656ZM179.184 161.088C179.941 161.088 180.603 161.253 181.168 161.584C181.744 161.915 182.171 162.331 182.448 162.832V161.232H183.92V170.192C183.92 170.992 183.749 171.701 183.408 172.32C183.067 172.949 182.576 173.44 181.936 173.792C181.307 174.144 180.571 174.32 179.728 174.32C178.576 174.32 177.616 174.048 176.848 173.504C176.08 172.96 175.627 172.219 175.488 171.28H176.928C177.088 171.813 177.419 172.24 177.92 172.56C178.421 172.891 179.024 173.056 179.728 173.056C180.528 173.056 181.179 172.805 181.68 172.304C182.192 171.803 182.448 171.099 182.448 170.192V168.352C182.16 168.864 181.733 169.291 181.168 169.632C180.603 169.973 179.941 170.144 179.184 170.144C178.405 170.144 177.696 169.952 177.056 169.568C176.427 169.184 175.931 168.645 175.568 167.952C175.205 167.259 175.024 166.469 175.024 165.584C175.024 164.688 175.205 163.904 175.568 163.232C175.931 162.549 176.427 162.021 177.056 161.648C177.696 161.275 178.405 161.088 179.184 161.088ZM182.448 165.6C182.448 164.939 182.315 164.363 182.048 163.872C181.781 163.381 181.419 163.008 180.96 162.752C180.512 162.485 180.016 162.352 179.472 162.352C178.928 162.352 178.432 162.48 177.984 162.736C177.536 162.992 177.179 163.365 176.912 163.856C176.645 164.347 176.512 164.923 176.512 165.584C176.512 166.256 176.645 166.843 176.912 167.344C177.179 167.835 177.536 168.213 177.984 168.48C178.432 168.736 178.928 168.864 179.472 168.864C180.016 168.864 180.512 168.736 180.96 168.48C181.419 168.213 181.781 167.835 182.048 167.344C182.315 166.843 182.448 166.261 182.448 165.6ZM187.132 159.808C186.855 159.808 186.62 159.712 186.428 159.52C186.236 159.328 186.14 159.093 186.14 158.816C186.14 158.539 186.236 158.304 186.428 158.112C186.62 157.92 186.855 157.824 187.132 157.824C187.399 157.824 187.623 157.92 187.804 158.112C187.996 158.304 188.092 158.539 188.092 158.816C188.092 159.093 187.996 159.328 187.804 159.52C187.623 159.712 187.399 159.808 187.132 159.808ZM187.836 161.232V170H186.38V161.232H187.836ZM189.774 165.6C189.774 164.693 189.955 163.904 190.318 163.232C190.681 162.549 191.182 162.021 191.822 161.648C192.473 161.275 193.214 161.088 194.046 161.088C195.123 161.088 196.009 161.349 196.702 161.872C197.406 162.395 197.87 163.12 198.094 164.048H196.526C196.377 163.515 196.083 163.093 195.646 162.784C195.219 162.475 194.686 162.32 194.046 162.32C193.214 162.32 192.542 162.608 192.03 163.184C191.518 163.749 191.262 164.555 191.262 165.6C191.262 166.656 191.518 167.472 192.03 168.048C192.542 168.624 193.214 168.912 194.046 168.912C194.686 168.912 195.219 168.763 195.646 168.464C196.073 168.165 196.366 167.739 196.526 167.184H198.094C197.859 168.08 197.39 168.8 196.686 169.344C195.982 169.877 195.102 170.144 194.046 170.144C193.214 170.144 192.473 169.957 191.822 169.584C191.182 169.211 190.681 168.683 190.318 168C189.955 167.317 189.774 166.517 189.774 165.6ZM199.493 165.584C199.493 164.688 199.674 163.904 200.037 163.232C200.399 162.549 200.895 162.021 201.525 161.648C202.165 161.275 202.874 161.088 203.653 161.088C204.421 161.088 205.087 161.253 205.653 161.584C206.218 161.915 206.639 162.331 206.917 162.832V161.232H208.389V170H206.917V168.368C206.629 168.88 206.197 169.307 205.621 169.648C205.055 169.979 204.394 170.144 203.637 170.144C202.858 170.144 202.154 169.952 201.525 169.568C200.895 169.184 200.399 168.645 200.037 167.952C199.674 167.259 199.493 166.469 199.493 165.584ZM206.917 165.6C206.917 164.939 206.783 164.363 206.517 163.872C206.25 163.381 205.887 163.008 205.429 162.752C204.981 162.485 204.485 162.352 203.941 162.352C203.397 162.352 202.901 162.48 202.453 162.736C202.005 162.992 201.647 163.365 201.381 163.856C201.114 164.347 200.981 164.923 200.981 165.584C200.981 166.256 201.114 166.843 201.381 167.344C201.647 167.835 202.005 168.213 202.453 168.48C202.901 168.736 203.397 168.864 203.941 168.864C204.485 168.864 204.981 168.736 205.429 168.48C205.887 168.213 206.25 167.835 206.517 167.344C206.783 166.843 206.917 166.261 206.917 165.6ZM212.305 158.16V170H210.849V158.16H212.305ZM218.508 165.6C218.508 164.693 218.69 163.904 219.052 163.232C219.415 162.549 219.916 162.021 220.556 161.648C221.207 161.275 221.948 161.088 222.78 161.088C223.858 161.088 224.743 161.349 225.436 161.872C226.14 162.395 226.604 163.12 226.828 164.048H225.26C225.111 163.515 224.818 163.093 224.38 162.784C223.954 162.475 223.42 162.32 222.78 162.32C221.948 162.32 221.276 162.608 220.764 163.184C220.252 163.749 219.996 164.555 219.996 165.6C219.996 166.656 220.252 167.472 220.764 168.048C221.276 168.624 221.948 168.912 222.78 168.912C223.42 168.912 223.954 168.763 224.38 168.464C224.807 168.165 225.1 167.739 225.26 167.184H226.828C226.594 168.08 226.124 168.8 225.42 169.344C224.716 169.877 223.836 170.144 222.78 170.144C221.948 170.144 221.207 169.957 220.556 169.584C219.916 169.211 219.415 168.683 219.052 168C218.69 167.317 218.508 166.517 218.508 165.6ZM228.227 165.584C228.227 164.688 228.408 163.904 228.771 163.232C229.134 162.549 229.63 162.021 230.259 161.648C230.899 161.275 231.608 161.088 232.387 161.088C233.155 161.088 233.822 161.253 234.387 161.584C234.952 161.915 235.374 162.331 235.651 162.832V161.232H237.123V170H235.651V168.368C235.363 168.88 234.931 169.307 234.355 169.648C233.79 169.979 233.128 170.144 232.371 170.144C231.592 170.144 230.888 169.952 230.259 169.568C229.63 169.184 229.134 168.645 228.771 167.952C228.408 167.259 228.227 166.469 228.227 165.584ZM235.651 165.6C235.651 164.939 235.518 164.363 235.251 163.872C234.984 163.381 234.622 163.008 234.163 162.752C233.715 162.485 233.219 162.352 232.675 162.352C232.131 162.352 231.635 162.48 231.187 162.736C230.739 162.992 230.382 163.365 230.115 163.856C229.848 164.347 229.715 164.923 229.715 165.584C229.715 166.256 229.848 166.843 230.115 167.344C230.382 167.835 230.739 168.213 231.187 168.48C231.635 168.736 232.131 168.864 232.675 168.864C233.219 168.864 233.715 168.736 234.163 168.48C234.622 168.213 234.984 167.835 235.251 167.344C235.518 166.843 235.651 166.261 235.651 165.6ZM241.04 162.656C241.296 162.155 241.658 161.765 242.128 161.488C242.608 161.211 243.189 161.072 243.872 161.072V162.576H243.488C241.856 162.576 241.04 163.461 241.04 165.232V170H239.584V161.232H241.04V162.656ZM253.552 165.28C253.552 165.557 253.536 165.851 253.504 166.16H246.496C246.55 167.024 246.843 167.701 247.376 168.192C247.92 168.672 248.576 168.912 249.344 168.912C249.974 168.912 250.496 168.768 250.912 168.48C251.339 168.181 251.638 167.787 251.808 167.296H253.376C253.142 168.139 252.672 168.827 251.968 169.36C251.264 169.883 250.39 170.144 249.344 170.144C248.512 170.144 247.766 169.957 247.104 169.584C246.454 169.211 245.942 168.683 245.568 168C245.195 167.307 245.008 166.507 245.008 165.6C245.008 164.693 245.19 163.899 245.552 163.216C245.915 162.533 246.422 162.011 247.072 161.648C247.734 161.275 248.491 161.088 249.344 161.088C250.176 161.088 250.912 161.269 251.552 161.632C252.192 161.995 252.683 162.496 253.024 163.136C253.376 163.765 253.552 164.48 253.552 165.28ZM252.048 164.976C252.048 164.421 251.926 163.947 251.68 163.552C251.435 163.147 251.099 162.843 250.672 162.64C250.256 162.427 249.792 162.32 249.28 162.32C248.544 162.32 247.915 162.555 247.392 163.024C246.88 163.493 246.587 164.144 246.512 164.976H252.048ZM263.308 162.432H261.468V170H260.012V162.432H258.876V161.232H260.012V160.608C260.012 159.627 260.262 158.912 260.764 158.464C261.276 158.005 262.092 157.776 263.212 157.776V158.992C262.572 158.992 262.118 159.12 261.852 159.376C261.596 159.621 261.468 160.032 261.468 160.608V161.232H263.308V162.432ZM268.829 170.144C268.008 170.144 267.261 169.957 266.589 169.584C265.928 169.211 265.405 168.683 265.021 168C264.648 167.307 264.461 166.507 264.461 165.6C264.461 164.704 264.653 163.915 265.037 163.232C265.432 162.539 265.965 162.011 266.637 161.648C267.309 161.275 268.061 161.088 268.893 161.088C269.725 161.088 270.477 161.275 271.149 161.648C271.821 162.011 272.349 162.533 272.733 163.216C273.128 163.899 273.325 164.693 273.325 165.6C273.325 166.507 273.123 167.307 272.717 168C272.323 168.683 271.784 169.211 271.101 169.584C270.419 169.957 269.661 170.144 268.829 170.144ZM268.829 168.864C269.352 168.864 269.843 168.741 270.301 168.496C270.76 168.251 271.128 167.883 271.405 167.392C271.693 166.901 271.837 166.304 271.837 165.6C271.837 164.896 271.699 164.299 271.421 163.808C271.144 163.317 270.781 162.955 270.333 162.72C269.885 162.475 269.4 162.352 268.877 162.352C268.344 162.352 267.853 162.475 267.405 162.72C266.968 162.955 266.616 163.317 266.349 163.808C266.083 164.299 265.949 164.896 265.949 165.6C265.949 166.315 266.077 166.917 266.333 167.408C266.6 167.899 266.952 168.267 267.389 168.512C267.827 168.747 268.307 168.864 268.829 168.864ZM276.696 162.656C276.952 162.155 277.314 161.765 277.784 161.488C278.264 161.211 278.845 161.072 279.528 161.072V162.576H279.144C277.512 162.576 276.696 163.461 276.696 165.232V170H275.24V161.232H276.696V162.656ZM70.3313 186.432H68.4913V194H67.0353V186.432H65.8993V185.232H67.0353V184.608C67.0353 183.627 67.2859 182.912 67.7873 182.464C68.2993 182.005 69.1153 181.776 70.2352 181.776V182.992C69.5953 182.992 69.1419 183.12 68.8753 183.376C68.6193 183.621 68.4913 184.032 68.4913 184.608V185.232H70.3313V186.432ZM71.4849 189.584C71.4849 188.688 71.6662 187.904 72.0289 187.232C72.3915 186.549 72.8875 186.021 73.5169 185.648C74.1569 185.275 74.8662 185.088 75.6449 185.088C76.4129 185.088 77.0795 185.253 77.6449 185.584C78.2102 185.915 78.6315 186.331 78.9089 186.832V185.232H80.3809V194H78.9089V192.368C78.6209 192.88 78.1889 193.307 77.6129 193.648C77.0475 193.979 76.3862 194.144 75.6289 194.144C74.8502 194.144 74.1462 193.952 73.5169 193.568C72.8875 193.184 72.3915 192.645 72.0289 191.952C71.6662 191.259 71.4849 190.469 71.4849 189.584ZM78.9089 189.6C78.9089 188.939 78.7755 188.363 78.5089 187.872C78.2422 187.381 77.8795 187.008 77.4209 186.752C76.9729 186.485 76.4769 186.352 75.9329 186.352C75.3889 186.352 74.8929 186.48 74.4449 186.736C73.9969 186.992 73.6395 187.365 73.3729 187.856C73.1062 188.347 72.9729 188.923 72.9729 189.584C72.9729 190.256 73.1062 190.843 73.3729 191.344C73.6395 191.835 73.9969 192.213 74.4449 192.48C74.8929 192.736 75.3889 192.864 75.9329 192.864C76.4769 192.864 76.9729 192.736 77.4209 192.48C77.8795 192.213 78.2422 191.835 78.5089 191.344C78.7755 190.843 78.9089 190.261 78.9089 189.6ZM82.2974 189.6C82.2974 188.693 82.4787 187.904 82.8414 187.232C83.204 186.549 83.7054 186.021 84.3454 185.648C84.996 185.275 85.7374 185.088 86.5694 185.088C87.6467 185.088 88.532 185.349 89.2254 185.872C89.9294 186.395 90.3934 187.12 90.6174 188.048H89.0494C88.9 187.515 88.6067 187.093 88.1694 186.784C87.7427 186.475 87.2094 186.32 86.5694 186.32C85.7374 186.32 85.0654 186.608 84.5534 187.184C84.0414 187.749 83.7854 188.555 83.7854 189.6C83.7854 190.656 84.0414 191.472 84.5534 192.048C85.0654 192.624 85.7374 192.912 86.5694 192.912C87.2094 192.912 87.7427 192.763 88.1694 192.464C88.596 192.165 88.8894 191.739 89.0494 191.184H90.6174C90.3827 192.08 89.9134 192.8 89.2094 193.344C88.5054 193.877 87.6254 194.144 86.5694 194.144C85.7374 194.144 84.996 193.957 84.3454 193.584C83.7054 193.211 83.204 192.683 82.8414 192C82.4787 191.317 82.2974 190.517 82.2974 189.6ZM93.3121 183.808C93.0348 183.808 92.8001 183.712 92.6081 183.52C92.4161 183.328 92.3201 183.093 92.3201 182.816C92.3201 182.539 92.4161 182.304 92.6081 182.112C92.8001 181.92 93.0348 181.824 93.3121 181.824C93.5788 181.824 93.8028 181.92 93.9841 182.112C94.1761 182.304 94.2721 182.539 94.2721 182.816C94.2721 183.093 94.1761 183.328 93.9841 183.52C93.8028 183.712 93.5788 183.808 93.3121 183.808ZM94.0161 185.232V194H92.5601V185.232H94.0161ZM95.9536 189.584C95.9536 188.688 96.135 187.904 96.4976 187.232C96.8603 186.549 97.3563 186.021 97.9856 185.648C98.6256 185.275 99.335 185.088 100.114 185.088C100.882 185.088 101.548 185.253 102.114 185.584C102.679 185.915 103.1 186.331 103.378 186.832V185.232H104.85V194H103.378V192.368C103.09 192.88 102.658 193.307 102.082 193.648C101.516 193.979 100.855 194.144 100.098 194.144C99.319 194.144 98.615 193.952 97.9856 193.568C97.3563 193.184 96.8603 192.645 96.4976 191.952C96.135 191.259 95.9536 190.469 95.9536 189.584ZM103.378 189.6C103.378 188.939 103.244 188.363 102.978 187.872C102.711 187.381 102.348 187.008 101.89 186.752C101.442 186.485 100.946 186.352 100.402 186.352C99.8576 186.352 99.3616 186.48 98.9136 186.736C98.4656 186.992 98.1083 187.365 97.8416 187.856C97.575 188.347 97.4416 188.923 97.4416 189.584C97.4416 190.256 97.575 190.843 97.8416 191.344C98.1083 191.835 98.4656 192.213 98.9136 192.48C99.3616 192.736 99.8576 192.864 100.402 192.864C100.946 192.864 101.442 192.736 101.89 192.48C102.348 192.213 102.711 191.835 102.978 191.344C103.244 190.843 103.378 190.261 103.378 189.6ZM108.766 182.16V194H107.31V182.16H108.766ZM114.969 189.584C114.969 188.688 115.151 187.904 115.513 187.232C115.876 186.549 116.372 186.021 117.001 185.648C117.641 185.275 118.351 185.088 119.129 185.088C119.897 185.088 120.564 185.253 121.129 185.584C121.695 185.915 122.116 186.331 122.393 186.832V185.232H123.865V194H122.393V192.368C122.105 192.88 121.673 193.307 121.097 193.648C120.532 193.979 119.871 194.144 119.113 194.144C118.335 194.144 117.631 193.952 117.001 193.568C116.372 193.184 115.876 192.645 115.513 191.952C115.151 191.259 114.969 190.469 114.969 189.584ZM122.393 189.6C122.393 188.939 122.26 188.363 121.993 187.872C121.727 187.381 121.364 187.008 120.905 186.752C120.457 186.485 119.961 186.352 119.417 186.352C118.873 186.352 118.377 186.48 117.929 186.736C117.481 186.992 117.124 187.365 116.857 187.856C116.591 188.347 116.457 188.923 116.457 189.584C116.457 190.256 116.591 190.843 116.857 191.344C117.124 191.835 117.481 192.213 117.929 192.48C118.377 192.736 118.873 192.864 119.417 192.864C119.961 192.864 120.457 192.736 120.905 192.48C121.364 192.213 121.727 191.835 121.993 191.344C122.26 190.843 122.393 190.261 122.393 189.6ZM130.598 185.072C131.664 185.072 132.528 185.397 133.19 186.048C133.851 186.688 134.182 187.616 134.182 188.832V194H132.742V189.04C132.742 188.165 132.523 187.499 132.086 187.04C131.648 186.571 131.051 186.336 130.294 186.336C129.526 186.336 128.912 186.576 128.454 187.056C128.006 187.536 127.782 188.235 127.782 189.152V194H126.326V185.232H127.782V186.48C128.07 186.032 128.459 185.685 128.95 185.44C129.451 185.195 130 185.072 130.598 185.072ZM136.016 189.584C136.016 188.688 136.197 187.904 136.56 187.232C136.923 186.549 137.419 186.021 138.048 185.648C138.688 185.275 139.403 185.088 140.192 185.088C140.875 185.088 141.509 185.248 142.096 185.568C142.683 185.877 143.131 186.288 143.44 186.8V182.16H144.912V194H143.44V192.352C143.152 192.875 142.725 193.307 142.16 193.648C141.595 193.979 140.933 194.144 140.176 194.144C139.397 194.144 138.688 193.952 138.048 193.568C137.419 193.184 136.923 192.645 136.56 191.952C136.197 191.259 136.016 190.469 136.016 189.584ZM143.44 189.6C143.44 188.939 143.307 188.363 143.04 187.872C142.773 187.381 142.411 187.008 141.952 186.752C141.504 186.485 141.008 186.352 140.464 186.352C139.92 186.352 139.424 186.48 138.976 186.736C138.528 186.992 138.171 187.365 137.904 187.856C137.637 188.347 137.504 188.923 137.504 189.584C137.504 190.256 137.637 190.843 137.904 191.344C138.171 191.835 138.528 192.213 138.976 192.48C139.424 192.736 139.92 192.864 140.464 192.864C141.008 192.864 141.504 192.736 141.952 192.48C142.411 192.213 142.773 191.835 143.04 191.344C143.307 190.843 143.44 190.261 143.44 189.6ZM152.422 183.808C152.145 183.808 151.91 183.712 151.718 183.52C151.537 183.328 151.446 183.093 151.446 182.816C151.446 182.539 151.537 182.304 151.718 182.112C151.91 181.92 152.145 181.824 152.422 181.824C152.7 181.824 152.929 181.92 153.11 182.112C153.302 182.304 153.398 182.539 153.398 182.816C153.398 183.093 153.302 183.328 153.11 183.52C152.929 183.712 152.7 183.808 152.422 183.808ZM153.142 195.904C153.142 196.683 152.945 197.253 152.55 197.616C152.156 197.979 151.58 198.16 150.822 198.16H149.974V196.928H150.582C150.988 196.928 151.27 196.848 151.43 196.688C151.601 196.528 151.686 196.256 151.686 195.872V185.232H153.142V195.904ZM155.063 189.584C155.063 188.688 155.244 187.904 155.607 187.232C155.97 186.549 156.466 186.021 157.095 185.648C157.735 185.275 158.444 185.088 159.223 185.088C159.991 185.088 160.658 185.253 161.223 185.584C161.788 185.915 162.21 186.331 162.487 186.832V185.232H163.959V194H162.487V192.368C162.199 192.88 161.767 193.307 161.191 193.648C160.626 193.979 159.964 194.144 159.207 194.144C158.428 194.144 157.724 193.952 157.095 193.568C156.466 193.184 155.97 192.645 155.607 191.952C155.244 191.259 155.063 190.469 155.063 189.584ZM162.487 189.6C162.487 188.939 162.354 188.363 162.087 187.872C161.82 187.381 161.458 187.008 160.999 186.752C160.551 186.485 160.055 186.352 159.511 186.352C158.967 186.352 158.471 186.48 158.023 186.736C157.575 186.992 157.218 187.365 156.951 187.856C156.684 188.347 156.551 188.923 156.551 189.584C156.551 190.256 156.684 190.843 156.951 191.344C157.218 191.835 157.575 192.213 158.023 192.48C158.471 192.736 158.967 192.864 159.511 192.864C160.055 192.864 160.551 192.736 160.999 192.48C161.458 192.213 161.82 191.835 162.087 191.344C162.354 190.843 162.487 190.261 162.487 189.6ZM178.1 185.232L175.364 194H173.86L171.748 187.04L169.636 194H168.132L165.38 185.232H166.868L168.884 192.592L171.06 185.232H172.548L174.676 192.608L176.66 185.232H178.1ZM183.266 189.6C183.266 188.693 183.447 187.904 183.81 187.232C184.173 186.549 184.674 186.021 185.314 185.648C185.965 185.275 186.706 185.088 187.538 185.088C188.615 185.088 189.501 185.349 190.194 185.872C190.898 186.395 191.362 187.12 191.586 188.048H190.018C189.869 187.515 189.575 187.093 189.138 186.784C188.711 186.475 188.178 186.32 187.538 186.32C186.706 186.32 186.034 186.608 185.522 187.184C185.01 187.749 184.754 188.555 184.754 189.6C184.754 190.656 185.01 191.472 185.522 192.048C186.034 192.624 186.706 192.912 187.538 192.912C188.178 192.912 188.711 192.763 189.138 192.464C189.565 192.165 189.858 191.739 190.018 191.184H191.586C191.351 192.08 190.882 192.8 190.178 193.344C189.474 193.877 188.594 194.144 187.538 194.144C186.706 194.144 185.965 193.957 185.314 193.584C184.674 193.211 184.173 192.683 183.81 192C183.447 191.317 183.266 190.517 183.266 189.6ZM197.353 194.144C196.532 194.144 195.785 193.957 195.113 193.584C194.452 193.211 193.929 192.683 193.545 192C193.172 191.307 192.985 190.507 192.985 189.6C192.985 188.704 193.177 187.915 193.561 187.232C193.956 186.539 194.489 186.011 195.161 185.648C195.833 185.275 196.585 185.088 197.417 185.088C198.249 185.088 199.001 185.275 199.673 185.648C200.345 186.011 200.873 186.533 201.257 187.216C201.652 187.899 201.849 188.693 201.849 189.6C201.849 190.507 201.646 191.307 201.241 192C200.846 192.683 200.308 193.211 199.625 193.584C198.942 193.957 198.185 194.144 197.353 194.144ZM197.353 192.864C197.876 192.864 198.366 192.741 198.825 192.496C199.284 192.251 199.652 191.883 199.929 191.392C200.217 190.901 200.361 190.304 200.361 189.6C200.361 188.896 200.222 188.299 199.945 187.808C199.668 187.317 199.305 186.955 198.857 186.72C198.409 186.475 197.924 186.352 197.401 186.352C196.868 186.352 196.377 186.475 195.929 186.72C195.492 186.955 195.14 187.317 194.873 187.808C194.606 188.299 194.473 188.896 194.473 189.6C194.473 190.315 194.601 190.917 194.857 191.408C195.124 191.899 195.476 192.267 195.913 192.512C196.35 192.747 196.83 192.864 197.353 192.864ZM208.035 185.072C209.102 185.072 209.966 185.397 210.627 186.048C211.289 186.688 211.619 187.616 211.619 188.832V194H210.179V189.04C210.179 188.165 209.961 187.499 209.523 187.04C209.086 186.571 208.489 186.336 207.731 186.336C206.963 186.336 206.35 186.576 205.891 187.056C205.443 187.536 205.219 188.235 205.219 189.152V194H203.763V185.232H205.219V186.48C205.507 186.032 205.897 185.685 206.387 185.44C206.889 185.195 207.438 185.072 208.035 185.072ZM213.454 189.584C213.454 188.688 213.635 187.904 213.998 187.232C214.36 186.549 214.856 186.021 215.486 185.648C216.126 185.275 216.84 185.088 217.63 185.088C218.312 185.088 218.947 185.248 219.534 185.568C220.12 185.877 220.568 186.288 220.878 186.8V182.16H222.35V194H220.878V192.352C220.59 192.875 220.163 193.307 219.598 193.648C219.032 193.979 218.371 194.144 217.614 194.144C216.835 194.144 216.126 193.952 215.486 193.568C214.856 193.184 214.36 192.645 213.998 191.952C213.635 191.259 213.454 190.469 213.454 189.584ZM220.878 189.6C220.878 188.939 220.744 188.363 220.478 187.872C220.211 187.381 219.848 187.008 219.39 186.752C218.942 186.485 218.446 186.352 217.902 186.352C217.358 186.352 216.862 186.48 216.414 186.736C215.966 186.992 215.608 187.365 215.342 187.856C215.075 188.347 214.942 188.923 214.942 189.584C214.942 190.256 215.075 190.843 215.342 191.344C215.608 191.835 215.966 192.213 216.414 192.48C216.862 192.736 217.358 192.864 217.902 192.864C218.446 192.864 218.942 192.736 219.39 192.48C219.848 192.213 220.211 191.835 220.478 191.344C220.744 190.843 220.878 190.261 220.878 189.6ZM225.562 183.808C225.285 183.808 225.05 183.712 224.858 183.52C224.666 183.328 224.57 183.093 224.57 182.816C224.57 182.539 224.666 182.304 224.858 182.112C225.05 181.92 225.285 181.824 225.562 181.824C225.829 181.824 226.053 181.92 226.234 182.112C226.426 182.304 226.522 182.539 226.522 182.816C226.522 183.093 226.426 183.328 226.234 183.52C226.053 183.712 225.829 183.808 225.562 183.808ZM226.266 185.232V194H224.81V185.232H226.266ZM230.524 186.432V191.6C230.524 192.027 230.614 192.331 230.796 192.512C230.977 192.683 231.292 192.768 231.74 192.768H232.812V194H231.5C230.689 194 230.081 193.813 229.676 193.44C229.27 193.067 229.068 192.453 229.068 191.6V186.432H227.932V185.232H229.068V183.024H230.524V185.232H232.812V186.432H230.524ZM235.328 183.808C235.05 183.808 234.816 183.712 234.624 183.52C234.432 183.328 234.336 183.093 234.336 182.816C234.336 182.539 234.432 182.304 234.624 182.112C234.816 181.92 235.05 181.824 235.328 181.824C235.594 181.824 235.818 181.92 236 182.112C236.192 182.304 236.288 182.539 236.288 182.816C236.288 183.093 236.192 183.328 236 183.52C235.818 183.712 235.594 183.808 235.328 183.808ZM236.032 185.232V194H234.576V185.232H236.032ZM242.337 194.144C241.516 194.144 240.769 193.957 240.097 193.584C239.436 193.211 238.913 192.683 238.529 192C238.156 191.307 237.969 190.507 237.969 189.6C237.969 188.704 238.161 187.915 238.545 187.232C238.94 186.539 239.473 186.011 240.145 185.648C240.817 185.275 241.569 185.088 242.401 185.088C243.233 185.088 243.985 185.275 244.657 185.648C245.329 186.011 245.857 186.533 246.241 187.216C246.636 187.899 246.833 188.693 246.833 189.6C246.833 190.507 246.631 191.307 246.225 192C245.831 192.683 245.292 193.211 244.609 193.584C243.927 193.957 243.169 194.144 242.337 194.144ZM242.337 192.864C242.86 192.864 243.351 192.741 243.809 192.496C244.268 192.251 244.636 191.883 244.913 191.392C245.201 190.901 245.345 190.304 245.345 189.6C245.345 188.896 245.207 188.299 244.929 187.808C244.652 187.317 244.289 186.955 243.841 186.72C243.393 186.475 242.908 186.352 242.385 186.352C241.852 186.352 241.361 186.475 240.913 186.72C240.476 186.955 240.124 187.317 239.857 187.808C239.591 188.299 239.457 188.896 239.457 189.6C239.457 190.315 239.585 190.917 239.841 191.408C240.108 191.899 240.46 192.267 240.897 192.512C241.335 192.747 241.815 192.864 242.337 192.864ZM253.02 185.072C254.086 185.072 254.95 185.397 255.612 186.048C256.273 186.688 256.604 187.616 256.604 188.832V194H255.164V189.04C255.164 188.165 254.945 187.499 254.508 187.04C254.07 186.571 253.473 186.336 252.716 186.336C251.948 186.336 251.334 186.576 250.876 187.056C250.428 187.536 250.204 188.235 250.204 189.152V194H248.748V185.232H250.204V186.48C250.492 186.032 250.881 185.685 251.372 185.44C251.873 185.195 252.422 185.072 253.02 185.072ZM262.086 194.144C261.414 194.144 260.811 194.032 260.278 193.808C259.745 193.573 259.323 193.253 259.014 192.848C258.705 192.432 258.534 191.957 258.502 191.424H260.006C260.049 191.861 260.251 192.219 260.614 192.496C260.987 192.773 261.473 192.912 262.07 192.912C262.625 192.912 263.062 192.789 263.382 192.544C263.702 192.299 263.862 191.989 263.862 191.616C263.862 191.232 263.691 190.949 263.35 190.768C263.009 190.576 262.481 190.389 261.766 190.208C261.115 190.037 260.582 189.867 260.166 189.696C259.761 189.515 259.409 189.253 259.11 188.912C258.822 188.56 258.678 188.101 258.678 187.536C258.678 187.088 258.811 186.677 259.078 186.304C259.345 185.931 259.723 185.637 260.214 185.424C260.705 185.2 261.265 185.088 261.894 185.088C262.865 185.088 263.649 185.333 264.246 185.824C264.843 186.315 265.163 186.987 265.206 187.84H263.75C263.718 187.381 263.531 187.013 263.19 186.736C262.859 186.459 262.411 186.32 261.846 186.32C261.323 186.32 260.907 186.432 260.598 186.656C260.289 186.88 260.134 187.173 260.134 187.536C260.134 187.824 260.225 188.064 260.406 188.256C260.598 188.437 260.833 188.587 261.11 188.704C261.398 188.811 261.793 188.933 262.294 189.072C262.923 189.243 263.435 189.413 263.83 189.584C264.225 189.744 264.561 189.989 264.838 190.32C265.126 190.651 265.275 191.083 265.286 191.616C265.286 192.096 265.153 192.528 264.886 192.912C264.619 193.296 264.241 193.6 263.75 193.824C263.27 194.037 262.715 194.144 262.086 194.144ZM267.805 194.096C267.528 194.096 267.293 194 267.101 193.808C266.909 193.616 266.813 193.381 266.813 193.104C266.813 192.827 266.909 192.592 267.101 192.4C267.293 192.208 267.528 192.112 267.805 192.112C268.072 192.112 268.296 192.208 268.477 192.4C268.669 192.592 268.765 192.827 268.765 193.104C268.765 193.381 268.669 193.616 268.477 193.808C268.296 194 268.072 194.096 267.805 194.096Z" fill="#FFF4ED"/>
<defs>
<clipPath id="clip0_424_4984">
<rect width="100" height="100" fill="white" transform="translate(117.5 44)"/>
</clipPath>
</defs>
</svg>
