<svg width="307" height="176" viewBox="0 0 307 176" fill="none" xmlns="http://www.w3.org/2000/svg">
<path d="M52.266 9.248V26H48.906V9.248H52.266ZM62.9537 12.512C64.5377 12.512 65.8177 13.016 66.7937 14.024C67.7697 15.016 68.2577 16.408 68.2577 18.2V26H64.8977V18.656C64.8977 17.6 64.6337 16.792 64.1057 16.232C63.5777 15.656 62.8577 15.368 61.9457 15.368C61.0177 15.368 60.2817 15.656 59.7377 16.232C59.2097 16.792 58.9457 17.6 58.9457 18.656V26H55.5857V12.704H58.9457V14.36C59.3937 13.784 59.9617 13.336 60.6497 13.016C61.3537 12.68 62.1217 12.512 62.9537 12.512ZM75.3649 15.464V21.896C75.3649 22.344 75.4689 22.672 75.6769 22.88C75.9009 23.072 76.2689 23.168 76.7809 23.168H78.3409V26H76.2289C73.3969 26 71.9809 24.624 71.9809 21.872V15.464H70.3969V12.704H71.9809V9.416H75.3649V12.704H78.3409V15.464H75.3649ZM93.1176 19.064C93.1176 19.544 93.0856 19.976 93.0216 20.36H83.3016C83.3816 21.32 83.7176 22.072 84.3096 22.616C84.9016 23.16 85.6296 23.432 86.4936 23.432C87.7416 23.432 88.6296 22.896 89.1576 21.824H92.7816C92.3976 23.104 91.6616 24.16 90.5736 24.992C89.4856 25.808 88.1496 26.216 86.5656 26.216C85.2856 26.216 84.1336 25.936 83.1096 25.376C82.1016 24.8 81.3096 23.992 80.7336 22.952C80.1736 21.912 79.8936 20.712 79.8936 19.352C79.8936 17.976 80.1736 16.768 80.7336 15.728C81.2936 14.688 82.0776 13.888 83.0856 13.328C84.0936 12.768 85.2536 12.488 86.5656 12.488C87.8296 12.488 88.9576 12.76 89.9496 13.304C90.9576 13.848 91.7336 14.624 92.2776 15.632C92.8376 16.624 93.1176 17.768 93.1176 19.064ZM89.6376 18.104C89.6216 17.24 89.3096 16.552 88.7016 16.04C88.0936 15.512 87.3496 15.248 86.4696 15.248C85.6376 15.248 84.9336 15.504 84.3576 16.016C83.7976 16.512 83.4536 17.208 83.3256 18.104H89.6376ZM98.9301 14.768C99.3621 14.064 99.9221 13.512 100.61 13.112C101.314 12.712 102.114 12.512 103.01 12.512V16.04H102.122C101.066 16.04 100.266 16.288 99.7221 16.784C99.1941 17.28 98.9301 18.144 98.9301 19.376V26H95.5701V12.704H98.9301V14.768ZM112.641 12.512C114.225 12.512 115.505 13.016 116.481 14.024C117.457 15.016 117.945 16.408 117.945 18.2V26H114.585V18.656C114.585 17.6 114.321 16.792 113.793 16.232C113.265 15.656 112.545 15.368 111.633 15.368C110.705 15.368 109.969 15.656 109.425 16.232C108.897 16.792 108.633 17.6 108.633 18.656V26H105.273V12.704H108.633V14.36C109.081 13.784 109.649 13.336 110.337 13.016C111.041 12.68 111.809 12.512 112.641 12.512ZM120.276 19.304C120.276 17.96 120.54 16.768 121.068 15.728C121.612 14.688 122.34 13.888 123.252 13.328C124.18 12.768 125.212 12.488 126.348 12.488C127.34 12.488 128.204 12.688 128.94 13.088C129.692 13.488 130.292 13.992 130.74 14.6V12.704H134.124V26H130.74V24.056C130.308 24.68 129.708 25.2 128.94 25.616C128.188 26.016 127.316 26.216 126.324 26.216C125.204 26.216 124.18 25.928 123.252 25.352C122.34 24.776 121.612 23.968 121.068 22.928C120.54 21.872 120.276 20.664 120.276 19.304ZM130.74 19.352C130.74 18.536 130.58 17.84 130.26 17.264C129.94 16.672 129.508 16.224 128.964 15.92C128.42 15.6 127.836 15.44 127.212 15.44C126.588 15.44 126.012 15.592 125.484 15.896C124.956 16.2 124.524 16.648 124.188 17.24C123.868 17.816 123.708 18.504 123.708 19.304C123.708 20.104 123.868 20.808 124.188 21.416C124.524 22.008 124.956 22.464 125.484 22.784C126.028 23.104 126.604 23.264 127.212 23.264C127.836 23.264 128.42 23.112 128.964 22.808C129.508 22.488 129.94 22.04 130.26 21.464C130.58 20.872 130.74 20.168 130.74 19.352ZM140.766 8.24V26H137.406V8.24H140.766ZM168.068 9.248V26H164.708V15.104L160.22 26H157.676L153.164 15.104V26H149.804V9.248H153.62L158.948 21.704L164.276 9.248H168.068ZM183.75 19.064C183.75 19.544 183.718 19.976 183.654 20.36H173.934C174.014 21.32 174.35 22.072 174.942 22.616C175.534 23.16 176.262 23.432 177.126 23.432C178.374 23.432 179.262 22.896 179.79 21.824H183.414C183.03 23.104 182.294 24.16 181.206 24.992C180.118 25.808 178.782 26.216 177.198 26.216C175.918 26.216 174.766 25.936 173.742 25.376C172.734 24.8 171.942 23.992 171.366 22.952C170.806 21.912 170.526 20.712 170.526 19.352C170.526 17.976 170.806 16.768 171.366 15.728C171.926 14.688 172.71 13.888 173.718 13.328C174.726 12.768 175.886 12.488 177.198 12.488C178.462 12.488 179.59 12.76 180.582 13.304C181.59 13.848 182.366 14.624 182.91 15.632C183.47 16.624 183.75 17.768 183.75 19.064ZM180.27 18.104C180.254 17.24 179.942 16.552 179.334 16.04C178.726 15.512 177.982 15.248 177.102 15.248C176.27 15.248 175.566 15.504 174.99 16.016C174.43 16.512 174.086 17.208 173.958 18.104H180.27ZM185.339 19.304C185.339 17.96 185.603 16.768 186.131 15.728C186.675 14.688 187.411 13.888 188.339 13.328C189.267 12.768 190.299 12.488 191.435 12.488C192.299 12.488 193.123 12.68 193.907 13.064C194.691 13.432 195.315 13.928 195.779 14.552V8.24H199.187V26H195.779V24.032C195.363 24.688 194.779 25.216 194.027 25.616C193.275 26.016 192.403 26.216 191.411 26.216C190.291 26.216 189.267 25.928 188.339 25.352C187.411 24.776 186.675 23.968 186.131 22.928C185.603 21.872 185.339 20.664 185.339 19.304ZM195.803 19.352C195.803 18.536 195.643 17.84 195.323 17.264C195.003 16.672 194.571 16.224 194.027 15.92C193.483 15.6 192.899 15.44 192.275 15.44C191.651 15.44 191.075 15.592 190.547 15.896C190.019 16.2 189.587 16.648 189.251 17.24C188.931 17.816 188.771 18.504 188.771 19.304C188.771 20.104 188.931 20.808 189.251 21.416C189.587 22.008 190.019 22.464 190.547 22.784C191.091 23.104 191.667 23.264 192.275 23.264C192.899 23.264 193.483 23.112 194.027 22.808C194.571 22.488 195.003 22.04 195.323 21.464C195.643 20.872 195.803 20.168 195.803 19.352ZM204.173 11.12C203.581 11.12 203.085 10.936 202.685 10.568C202.301 10.184 202.109 9.712 202.109 9.152C202.109 8.592 202.301 8.128 202.685 7.76C203.085 7.376 203.581 7.184 204.173 7.184C204.765 7.184 205.253 7.376 205.637 7.76C206.037 8.128 206.237 8.592 206.237 9.152C206.237 9.712 206.037 10.184 205.637 10.568C205.253 10.936 204.765 11.12 204.173 11.12ZM205.829 12.704V26H202.469V12.704H205.829ZM208.284 19.352C208.284 17.976 208.564 16.776 209.124 15.752C209.684 14.712 210.46 13.912 211.452 13.352C212.444 12.776 213.58 12.488 214.86 12.488C216.508 12.488 217.868 12.904 218.94 13.736C220.028 14.552 220.756 15.704 221.124 17.192H217.5C217.308 16.616 216.98 16.168 216.516 15.848C216.068 15.512 215.508 15.344 214.836 15.344C213.876 15.344 213.116 15.696 212.556 16.4C211.996 17.088 211.716 18.072 211.716 19.352C211.716 20.616 211.996 21.6 212.556 22.304C213.116 22.992 213.876 23.336 214.836 23.336C216.196 23.336 217.084 22.728 217.5 21.512H221.124C220.756 22.952 220.028 24.096 218.94 24.944C217.852 25.792 216.492 26.216 214.86 26.216C213.58 26.216 212.444 25.936 211.452 25.376C210.46 24.8 209.684 24 209.124 22.976C208.564 21.936 208.284 20.728 208.284 19.352ZM225.29 11.12C224.698 11.12 224.202 10.936 223.802 10.568C223.418 10.184 223.226 9.712 223.226 9.152C223.226 8.592 223.418 8.128 223.802 7.76C224.202 7.376 224.698 7.184 225.29 7.184C225.882 7.184 226.37 7.376 226.754 7.76C227.154 8.128 227.354 8.592 227.354 9.152C227.354 9.712 227.154 10.184 226.754 10.568C226.37 10.936 225.882 11.12 225.29 11.12ZM226.946 12.704V26H223.586V12.704H226.946ZM237.633 12.512C239.217 12.512 240.497 13.016 241.473 14.024C242.449 15.016 242.937 16.408 242.937 18.2V26H239.577V18.656C239.577 17.6 239.313 16.792 238.785 16.232C238.257 15.656 237.537 15.368 236.625 15.368C235.697 15.368 234.961 15.656 234.417 16.232C233.889 16.792 233.625 17.6 233.625 18.656V26H230.265V12.704H233.625V14.36C234.073 13.784 234.641 13.336 235.329 13.016C236.033 12.68 236.801 12.512 237.633 12.512ZM258.493 19.064C258.493 19.544 258.461 19.976 258.397 20.36H248.677C248.757 21.32 249.093 22.072 249.685 22.616C250.277 23.16 251.005 23.432 251.869 23.432C253.117 23.432 254.005 22.896 254.533 21.824H258.157C257.773 23.104 257.037 24.16 255.949 24.992C254.861 25.808 253.525 26.216 251.941 26.216C250.661 26.216 249.509 25.936 248.485 25.376C247.477 24.8 246.685 23.992 246.109 22.952C245.549 21.912 245.269 20.712 245.269 19.352C245.269 17.976 245.549 16.768 246.109 15.728C246.669 14.688 247.453 13.888 248.461 13.328C249.469 12.768 250.629 12.488 251.941 12.488C253.205 12.488 254.333 12.76 255.325 13.304C256.333 13.848 257.109 14.624 257.653 15.632C258.213 16.624 258.493 17.768 258.493 19.064ZM255.013 18.104C254.997 17.24 254.685 16.552 254.077 16.04C253.469 15.512 252.725 15.248 251.845 15.248C251.013 15.248 250.309 15.504 249.733 16.016C249.173 16.512 248.829 17.208 248.701 18.104H255.013Z" fill="#FFF4ED"/>
<path d="M153.633 72.0469C161.033 72.0469 167.031 66.0482 167.031 58.6484C167.031 51.2487 161.033 45.25 153.633 45.25C146.233 45.25 140.234 51.2487 140.234 58.6484C140.234 66.0482 146.233 72.0469 153.633 72.0469Z" fill="#FFF4ED"/>
<path d="M171.289 76.1484C169.102 76.1484 162.461 76.1484 155.508 76.1484V88.6484L158.398 89.3516V86.4609C158.398 84.5859 160.117 82.8672 163.242 84.9766C167.656 87.9453 172.422 104.859 167.266 104.195C164.766 103.883 163.359 102.672 160.625 102.516C158.398 102.398 158.398 101.461 158.398 100.172C158.398 98.9219 158.398 94.8594 158.398 94.8594V92.5938C157.461 92.3594 156.367 92.0859 155.508 91.8906V107.359C155.508 107.359 159.844 104.391 162.969 106.812C164.922 108.336 166.172 112.711 160.078 116.305C158.672 117.164 151.055 119.156 148.672 114.703H145.977C144.766 114.703 143.789 115.68 143.789 116.93C143.789 118.18 144.766 119.117 145.977 119.117H161.953C164.492 119.117 166.523 121.188 166.523 123.688C166.523 126.227 164.453 128.258 161.953 128.258H145.43C144.883 128.258 144.414 128.727 144.414 129.273C144.414 129.859 144.883 130.289 145.43 130.289H161.953C164.492 130.289 166.523 132.359 166.523 134.859C166.523 137.398 164.453 139.43 161.953 139.43H142.656C141.68 139.43 140.898 138.648 140.898 137.672C140.898 136.695 141.68 135.914 142.656 135.914H161.953C162.5 135.914 162.969 135.445 162.969 134.898C162.969 134.312 162.5 133.883 161.953 133.883H145.43C142.891 133.883 140.859 131.812 140.859 129.312C140.859 126.773 142.93 124.742 145.43 124.742H161.953C162.5 124.742 162.969 124.273 162.969 123.727C162.969 123.18 162.5 122.711 161.953 122.711H145.977C142.812 122.711 140.234 120.133 140.234 116.969C140.234 113.805 142.812 111.227 145.977 111.227H149.531C149.57 111.227 149.57 111.227 149.609 111.227H150.82C151.992 111.227 151.953 109.977 151.953 109.977V92.1641C150.938 92.4375 149.805 92.75 149.062 92.9844V94.9375C149.062 94.9375 149.062 98.9609 149.062 100.25C149.062 101.5 149.062 102.477 146.836 102.594C144.102 102.75 142.695 103.961 140.195 104.273C135.039 104.938 139.805 88.0234 144.219 85.0547C147.344 82.9453 149.062 84.6641 149.062 86.5391V89.7031L151.953 88.9219V76.1484C145.234 76.1484 138.945 76.1484 136.875 76.1484C127.383 76.1484 118.945 83.8437 118.945 93.2969C118.945 98.1406 118.945 131.578 118.945 134.82C118.945 138.062 121.484 140.68 124.727 140.68C127.969 140.68 130.586 138.062 130.586 134.82C130.586 131.031 130.586 97.3594 130.586 97.3594H135.43V142.711H171.953V97.3984H176.875C176.875 97.3984 176.875 131.07 176.875 134.859C176.875 138.102 179.492 140.719 182.734 140.719C185.977 140.719 188.516 138.102 188.516 134.859C188.516 131.617 188.516 98.1406 188.516 93.3359C188.555 83.8047 180.781 76.1484 171.289 76.1484Z" fill="#FFF4ED"/>
<path d="M5.30519 164.416C5.30519 163.328 5.55052 162.352 6.04119 161.488C6.53185 160.613 7.19852 159.931 8.04119 159.44C8.89452 158.949 9.83852 158.704 10.8732 158.704C12.0892 158.704 13.1505 158.997 14.0572 159.584C14.9639 160.171 15.6252 161.003 16.0412 162.08H14.2972C13.9879 161.408 13.5399 160.891 12.9532 160.528C12.3772 160.165 11.6839 159.984 10.8732 159.984C10.0945 159.984 9.39585 160.165 8.77719 160.528C8.15852 160.891 7.67319 161.408 7.32119 162.08C6.96919 162.741 6.79319 163.52 6.79319 164.416C6.79319 165.301 6.96919 166.08 7.32119 166.752C7.67319 167.413 8.15852 167.925 8.77719 168.288C9.39585 168.651 10.0945 168.832 10.8732 168.832C11.6839 168.832 12.3772 168.656 12.9532 168.304C13.5399 167.941 13.9879 167.424 14.2972 166.752H16.0412C15.6252 167.819 14.9639 168.645 14.0572 169.232C13.1505 169.808 12.0892 170.096 10.8732 170.096C9.83852 170.096 8.89452 169.856 8.04119 169.376C7.19852 168.885 6.53185 168.208 6.04119 167.344C5.55052 166.48 5.30519 165.504 5.30519 164.416ZM22.0326 170.144C21.2112 170.144 20.4646 169.957 19.7926 169.584C19.1312 169.211 18.6086 168.683 18.2246 168C17.8512 167.307 17.6646 166.507 17.6646 165.6C17.6646 164.704 17.8566 163.915 18.2406 163.232C18.6352 162.539 19.1686 162.011 19.8406 161.648C20.5126 161.275 21.2646 161.088 22.0966 161.088C22.9286 161.088 23.6806 161.275 24.3526 161.648C25.0246 162.011 25.5526 162.533 25.9366 163.216C26.3312 163.899 26.5286 164.693 26.5286 165.6C26.5286 166.507 26.3259 167.307 25.9206 168C25.5259 168.683 24.9872 169.211 24.3046 169.584C23.6219 169.957 22.8646 170.144 22.0326 170.144ZM22.0326 168.864C22.5552 168.864 23.0459 168.741 23.5046 168.496C23.9632 168.251 24.3312 167.883 24.6086 167.392C24.8966 166.901 25.0406 166.304 25.0406 165.6C25.0406 164.896 24.9019 164.299 24.6246 163.808C24.3472 163.317 23.9846 162.955 23.5366 162.72C23.0886 162.475 22.6032 162.352 22.0806 162.352C21.5472 162.352 21.0566 162.475 20.6086 162.72C20.1712 162.955 19.8192 163.317 19.5526 163.808C19.2859 164.299 19.1526 164.896 19.1526 165.6C19.1526 166.315 19.2806 166.917 19.5366 167.408C19.8032 167.899 20.1552 168.267 20.5926 168.512C21.0299 168.747 21.5099 168.864 22.0326 168.864ZM38.9869 161.072C39.6696 161.072 40.2776 161.216 40.8109 161.504C41.3443 161.781 41.7656 162.203 42.0749 162.768C42.3843 163.333 42.5389 164.021 42.5389 164.832V170H41.0989V165.04C41.0989 164.165 40.8803 163.499 40.4429 163.04C40.0163 162.571 39.4349 162.336 38.6989 162.336C37.9416 162.336 37.3389 162.581 36.8909 163.072C36.4429 163.552 36.2189 164.251 36.2189 165.168V170H34.7789V165.04C34.7789 164.165 34.5603 163.499 34.1229 163.04C33.6963 162.571 33.1149 162.336 32.3789 162.336C31.6216 162.336 31.0189 162.581 30.5709 163.072C30.1229 163.552 29.8989 164.251 29.8989 165.168V170H28.4429V161.232H29.8989V162.496C30.1869 162.037 30.5709 161.685 31.0509 161.44C31.5416 161.195 32.0803 161.072 32.6669 161.072C33.4029 161.072 34.0536 161.237 34.6189 161.568C35.1843 161.899 35.6056 162.384 35.8829 163.024C36.1283 162.405 36.5336 161.925 37.0989 161.584C37.6643 161.243 38.2936 161.072 38.9869 161.072ZM46.3833 162.848C46.6713 162.347 47.098 161.931 47.6633 161.6C48.2393 161.259 48.906 161.088 49.6633 161.088C50.442 161.088 51.146 161.275 51.7753 161.648C52.4153 162.021 52.9166 162.549 53.2793 163.232C53.642 163.904 53.8233 164.688 53.8233 165.584C53.8233 166.469 53.642 167.259 53.2793 167.952C52.9166 168.645 52.4153 169.184 51.7753 169.568C51.146 169.952 50.442 170.144 49.6633 170.144C48.9166 170.144 48.2553 169.979 47.6793 169.648C47.114 169.307 46.682 168.885 46.3833 168.384V174.16H44.9273V161.232H46.3833V162.848ZM52.3353 165.584C52.3353 164.923 52.202 164.347 51.9353 163.856C51.6686 163.365 51.306 162.992 50.8473 162.736C50.3993 162.48 49.9033 162.352 49.3593 162.352C48.826 162.352 48.33 162.485 47.8713 162.752C47.4233 163.008 47.0606 163.387 46.7833 163.888C46.5166 164.379 46.3833 164.949 46.3833 165.6C46.3833 166.261 46.5166 166.843 46.7833 167.344C47.0606 167.835 47.4233 168.213 47.8713 168.48C48.33 168.736 48.826 168.864 49.3593 168.864C49.9033 168.864 50.3993 168.736 50.8473 168.48C51.306 168.213 51.6686 167.835 51.9353 167.344C52.202 166.843 52.3353 166.256 52.3353 165.584ZM57.1958 162.656C57.4518 162.155 57.8145 161.765 58.2838 161.488C58.7638 161.211 59.3451 161.072 60.0278 161.072V162.576H59.6438C58.0118 162.576 57.1958 163.461 57.1958 165.232V170H55.7398V161.232H57.1958V162.656ZM69.7086 165.28C69.7086 165.557 69.6926 165.851 69.6606 166.16H62.6526C62.7059 167.024 62.9992 167.701 63.5326 168.192C64.0766 168.672 64.7326 168.912 65.5006 168.912C66.1299 168.912 66.6526 168.768 67.0686 168.48C67.4952 168.181 67.7939 167.787 67.9646 167.296H69.5326C69.2979 168.139 68.8286 168.827 68.1246 169.36C67.4206 169.883 66.5459 170.144 65.5006 170.144C64.6686 170.144 63.9219 169.957 63.2606 169.584C62.6099 169.211 62.0979 168.683 61.7246 168C61.3512 167.307 61.1646 166.507 61.1646 165.6C61.1646 164.693 61.3459 163.899 61.7086 163.216C62.0712 162.533 62.5779 162.011 63.2286 161.648C63.8899 161.275 64.6472 161.088 65.5006 161.088C66.3326 161.088 67.0686 161.269 67.7086 161.632C68.3486 161.995 68.8392 162.496 69.1806 163.136C69.5326 163.765 69.7086 164.48 69.7086 165.28ZM68.2046 164.976C68.2046 164.421 68.0819 163.947 67.8366 163.552C67.5912 163.147 67.2552 162.843 66.8286 162.64C66.4126 162.427 65.9486 162.32 65.4366 162.32C64.7006 162.32 64.0712 162.555 63.5486 163.024C63.0366 163.493 62.7432 164.144 62.6686 164.976H68.2046ZM75.9824 161.072C76.6438 161.072 77.2411 161.216 77.7744 161.504C78.3078 161.781 78.7238 162.203 79.0224 162.768C79.3318 163.333 79.4864 164.021 79.4864 164.832V170H78.0464V165.04C78.0464 164.165 77.8278 163.499 77.3904 163.04C76.9531 162.571 76.3558 162.336 75.5984 162.336C74.8304 162.336 74.2171 162.576 73.7584 163.056C73.3104 163.536 73.0864 164.235 73.0864 165.152V170H71.6304V158.16H73.0864V162.48C73.3744 162.032 73.7691 161.685 74.2704 161.44C74.7824 161.195 75.3531 161.072 75.9824 161.072ZM89.8648 165.28C89.8648 165.557 89.8488 165.851 89.8168 166.16H82.8088C82.8621 167.024 83.1555 167.701 83.6888 168.192C84.2328 168.672 84.8888 168.912 85.6568 168.912C86.2861 168.912 86.8088 168.768 87.2248 168.48C87.6515 168.181 87.9501 167.787 88.1208 167.296H89.6888C89.4541 168.139 88.9848 168.827 88.2808 169.36C87.5768 169.883 86.7021 170.144 85.6568 170.144C84.8248 170.144 84.0781 169.957 83.4168 169.584C82.7661 169.211 82.2541 168.683 81.8808 168C81.5075 167.307 81.3208 166.507 81.3208 165.6C81.3208 164.693 81.5021 163.899 81.8648 163.216C82.2275 162.533 82.7341 162.011 83.3848 161.648C84.0461 161.275 84.8035 161.088 85.6568 161.088C86.4888 161.088 87.2248 161.269 87.8648 161.632C88.5048 161.995 88.9955 162.496 89.3368 163.136C89.6888 163.765 89.8648 164.48 89.8648 165.28ZM88.3608 164.976C88.3608 164.421 88.2381 163.947 87.9928 163.552C87.7475 163.147 87.4115 162.843 86.9848 162.64C86.5688 162.427 86.1048 162.32 85.5928 162.32C84.8568 162.32 84.2275 162.555 83.7048 163.024C83.1928 163.493 82.8995 164.144 82.8248 164.976H88.3608ZM96.0587 161.072C97.1254 161.072 97.9894 161.397 98.6507 162.048C99.312 162.688 99.6427 163.616 99.6427 164.832V170H98.2027V165.04C98.2027 164.165 97.984 163.499 97.5467 163.04C97.1094 162.571 96.512 162.336 95.7547 162.336C94.9867 162.336 94.3734 162.576 93.9147 163.056C93.4667 163.536 93.2427 164.235 93.2427 165.152V170H91.7867V161.232H93.2427V162.48C93.5307 162.032 93.92 161.685 94.4107 161.44C94.912 161.195 95.4614 161.072 96.0587 161.072ZM105.125 170.144C104.453 170.144 103.85 170.032 103.317 169.808C102.784 169.573 102.362 169.253 102.053 168.848C101.744 168.432 101.573 167.957 101.541 167.424H103.045C103.088 167.861 103.29 168.219 103.653 168.496C104.026 168.773 104.512 168.912 105.109 168.912C105.664 168.912 106.101 168.789 106.421 168.544C106.741 168.299 106.901 167.989 106.901 167.616C106.901 167.232 106.73 166.949 106.389 166.768C106.048 166.576 105.52 166.389 104.805 166.208C104.154 166.037 103.621 165.867 103.205 165.696C102.8 165.515 102.448 165.253 102.149 164.912C101.861 164.56 101.717 164.101 101.717 163.536C101.717 163.088 101.85 162.677 102.117 162.304C102.384 161.931 102.762 161.637 103.253 161.424C103.744 161.2 104.304 161.088 104.933 161.088C105.904 161.088 106.688 161.333 107.285 161.824C107.882 162.315 108.202 162.987 108.245 163.84H106.789C106.757 163.381 106.57 163.013 106.229 162.736C105.898 162.459 105.45 162.32 104.885 162.32C104.362 162.32 103.946 162.432 103.637 162.656C103.328 162.88 103.173 163.173 103.173 163.536C103.173 163.824 103.264 164.064 103.445 164.256C103.637 164.437 103.872 164.587 104.149 164.704C104.437 164.811 104.832 164.933 105.333 165.072C105.962 165.243 106.474 165.413 106.869 165.584C107.264 165.744 107.6 165.989 107.877 166.32C108.165 166.651 108.314 167.083 108.325 167.616C108.325 168.096 108.192 168.528 107.925 168.912C107.658 169.296 107.28 169.6 106.789 169.824C106.309 170.037 105.754 170.144 105.125 170.144ZM111.132 159.808C110.855 159.808 110.62 159.712 110.428 159.52C110.236 159.328 110.14 159.093 110.14 158.816C110.14 158.539 110.236 158.304 110.428 158.112C110.62 157.92 110.855 157.824 111.132 157.824C111.399 157.824 111.623 157.92 111.804 158.112C111.996 158.304 112.092 158.539 112.092 158.816C112.092 159.093 111.996 159.328 111.804 159.52C111.623 159.712 111.399 159.808 111.132 159.808ZM111.836 161.232V170H110.38V161.232H111.836ZM117.582 168.656L120.302 161.232H121.854L118.414 170H116.718L113.278 161.232H114.846L117.582 168.656ZM131.287 165.28C131.287 165.557 131.271 165.851 131.239 166.16H124.231C124.284 167.024 124.577 167.701 125.111 168.192C125.655 168.672 126.311 168.912 127.079 168.912C127.708 168.912 128.231 168.768 128.647 168.48C129.073 168.181 129.372 167.787 129.543 167.296H131.111C130.876 168.139 130.407 168.827 129.703 169.36C128.999 169.883 128.124 170.144 127.079 170.144C126.247 170.144 125.5 169.957 124.839 169.584C124.188 169.211 123.676 168.683 123.303 168C122.929 167.307 122.743 166.507 122.743 165.6C122.743 164.693 122.924 163.899 123.287 163.216C123.649 162.533 124.156 162.011 124.807 161.648C125.468 161.275 126.225 161.088 127.079 161.088C127.911 161.088 128.647 161.269 129.287 161.632C129.927 161.995 130.417 162.496 130.759 163.136C131.111 163.765 131.287 164.48 131.287 165.28ZM129.783 164.976C129.783 164.421 129.66 163.947 129.415 163.552C129.169 163.147 128.833 162.843 128.407 162.64C127.991 162.427 127.527 162.32 127.015 162.32C126.279 162.32 125.649 162.555 125.127 163.024C124.615 163.493 124.321 164.144 124.247 164.976H129.783ZM136.93 165.6C136.93 164.693 137.112 163.904 137.474 163.232C137.837 162.549 138.338 162.021 138.978 161.648C139.629 161.275 140.37 161.088 141.202 161.088C142.28 161.088 143.165 161.349 143.858 161.872C144.562 162.395 145.026 163.12 145.25 164.048H143.682C143.533 163.515 143.24 163.093 142.802 162.784C142.376 162.475 141.842 162.32 141.202 162.32C140.37 162.32 139.698 162.608 139.186 163.184C138.674 163.749 138.418 164.555 138.418 165.6C138.418 166.656 138.674 167.472 139.186 168.048C139.698 168.624 140.37 168.912 141.202 168.912C141.842 168.912 142.376 168.763 142.802 168.464C143.229 168.165 143.522 167.739 143.682 167.184H145.25C145.016 168.08 144.546 168.8 143.842 169.344C143.138 169.877 142.258 170.144 141.202 170.144C140.37 170.144 139.629 169.957 138.978 169.584C138.338 169.211 137.837 168.683 137.474 168C137.112 167.317 136.93 166.517 136.93 165.6ZM146.649 165.584C146.649 164.688 146.83 163.904 147.193 163.232C147.556 162.549 148.052 162.021 148.681 161.648C149.321 161.275 150.03 161.088 150.809 161.088C151.577 161.088 152.244 161.253 152.809 161.584C153.374 161.915 153.796 162.331 154.073 162.832V161.232H155.545V170H154.073V168.368C153.785 168.88 153.353 169.307 152.777 169.648C152.212 169.979 151.55 170.144 150.793 170.144C150.014 170.144 149.31 169.952 148.681 169.568C148.052 169.184 147.556 168.645 147.193 167.952C146.83 167.259 146.649 166.469 146.649 165.584ZM154.073 165.6C154.073 164.939 153.94 164.363 153.673 163.872C153.406 163.381 153.044 163.008 152.585 162.752C152.137 162.485 151.641 162.352 151.097 162.352C150.553 162.352 150.057 162.48 149.609 162.736C149.161 162.992 148.804 163.365 148.537 163.856C148.27 164.347 148.137 164.923 148.137 165.584C148.137 166.256 148.27 166.843 148.537 167.344C148.804 167.835 149.161 168.213 149.609 168.48C150.057 168.736 150.553 168.864 151.097 168.864C151.641 168.864 152.137 168.736 152.585 168.48C153.044 168.213 153.406 167.835 153.673 167.344C153.94 166.843 154.073 166.261 154.073 165.6ZM159.461 162.656C159.717 162.155 160.08 161.765 160.549 161.488C161.029 161.211 161.611 161.072 162.293 161.072V162.576H161.909C160.277 162.576 159.461 163.461 159.461 165.232V170H158.005V161.232H159.461V162.656ZM171.974 165.28C171.974 165.557 171.958 165.851 171.926 166.16H164.918C164.972 167.024 165.265 167.701 165.798 168.192C166.342 168.672 166.998 168.912 167.766 168.912C168.396 168.912 168.918 168.768 169.334 168.48C169.761 168.181 170.06 167.787 170.23 167.296H171.798C171.564 168.139 171.094 168.827 170.39 169.36C169.686 169.883 168.812 170.144 167.766 170.144C166.934 170.144 166.188 169.957 165.526 169.584C164.876 169.211 164.364 168.683 163.99 168C163.617 167.307 163.43 166.507 163.43 165.6C163.43 164.693 163.612 163.899 163.974 163.216C164.337 162.533 164.844 162.011 165.494 161.648C166.156 161.275 166.913 161.088 167.766 161.088C168.598 161.088 169.334 161.269 169.974 161.632C170.614 161.995 171.105 162.496 171.446 163.136C171.798 163.765 171.974 164.48 171.974 165.28ZM170.47 164.976C170.47 164.421 170.348 163.947 170.102 163.552C169.857 163.147 169.521 162.843 169.094 162.64C168.678 162.427 168.214 162.32 167.702 162.32C166.966 162.32 166.337 162.555 165.814 163.024C165.302 163.493 165.009 164.144 164.934 164.976H170.47ZM181.73 162.432H179.89V170H178.434V162.432H177.298V161.232H178.434V160.608C178.434 159.627 178.684 158.912 179.186 158.464C179.698 158.005 180.514 157.776 181.634 157.776V158.992C180.994 158.992 180.54 159.12 180.274 159.376C180.018 159.621 179.89 160.032 179.89 160.608V161.232H181.73V162.432ZM187.251 170.144C186.43 170.144 185.683 169.957 185.011 169.584C184.35 169.211 183.827 168.683 183.443 168C183.07 167.307 182.883 166.507 182.883 165.6C182.883 164.704 183.075 163.915 183.459 163.232C183.854 162.539 184.387 162.011 185.059 161.648C185.731 161.275 186.483 161.088 187.315 161.088C188.147 161.088 188.899 161.275 189.571 161.648C190.243 162.011 190.771 162.533 191.155 163.216C191.55 163.899 191.747 164.693 191.747 165.6C191.747 166.507 191.545 167.307 191.139 168C190.745 168.683 190.206 169.211 189.523 169.584C188.841 169.957 188.083 170.144 187.251 170.144ZM187.251 168.864C187.774 168.864 188.265 168.741 188.723 168.496C189.182 168.251 189.55 167.883 189.827 167.392C190.115 166.901 190.259 166.304 190.259 165.6C190.259 164.896 190.121 164.299 189.843 163.808C189.566 163.317 189.203 162.955 188.755 162.72C188.307 162.475 187.822 162.352 187.299 162.352C186.766 162.352 186.275 162.475 185.827 162.72C185.39 162.955 185.038 163.317 184.771 163.808C184.505 164.299 184.371 164.896 184.371 165.6C184.371 166.315 184.499 166.917 184.755 167.408C185.022 167.899 185.374 168.267 185.811 168.512C186.249 168.747 186.729 168.864 187.251 168.864ZM195.118 162.656C195.374 162.155 195.736 161.765 196.206 161.488C196.686 161.211 197.267 161.072 197.95 161.072V162.576H197.566C195.934 162.576 195.118 163.461 195.118 165.232V170H193.662V161.232H195.118V162.656ZM203.352 165.584C203.352 164.688 203.533 163.904 203.896 163.232C204.259 162.549 204.755 162.021 205.384 161.648C206.024 161.275 206.733 161.088 207.512 161.088C208.28 161.088 208.947 161.253 209.512 161.584C210.077 161.915 210.499 162.331 210.776 162.832V161.232H212.248V170H210.776V168.368C210.488 168.88 210.056 169.307 209.48 169.648C208.915 169.979 208.253 170.144 207.496 170.144C206.717 170.144 206.013 169.952 205.384 169.568C204.755 169.184 204.259 168.645 203.896 167.952C203.533 167.259 203.352 166.469 203.352 165.584ZM210.776 165.6C210.776 164.939 210.643 164.363 210.376 163.872C210.109 163.381 209.747 163.008 209.288 162.752C208.84 162.485 208.344 162.352 207.8 162.352C207.256 162.352 206.76 162.48 206.312 162.736C205.864 162.992 205.507 163.365 205.24 163.856C204.973 164.347 204.84 164.923 204.84 165.584C204.84 166.256 204.973 166.843 205.24 167.344C205.507 167.835 205.864 168.213 206.312 168.48C206.76 168.736 207.256 168.864 207.8 168.864C208.344 168.864 208.84 168.736 209.288 168.48C209.747 168.213 210.109 167.835 210.376 167.344C210.643 166.843 210.776 166.261 210.776 165.6ZM214.165 165.584C214.165 164.688 214.346 163.904 214.709 163.232C215.071 162.549 215.567 162.021 216.197 161.648C216.837 161.275 217.551 161.088 218.341 161.088C219.023 161.088 219.658 161.248 220.245 161.568C220.831 161.877 221.279 162.288 221.589 162.8V158.16H223.061V170H221.589V168.352C221.301 168.875 220.874 169.307 220.309 169.648C219.743 169.979 219.082 170.144 218.325 170.144C217.546 170.144 216.837 169.952 216.197 169.568C215.567 169.184 215.071 168.645 214.709 167.952C214.346 167.259 214.165 166.469 214.165 165.584ZM221.589 165.6C221.589 164.939 221.455 164.363 221.189 163.872C220.922 163.381 220.559 163.008 220.101 162.752C219.653 162.485 219.157 162.352 218.613 162.352C218.069 162.352 217.573 162.48 217.125 162.736C216.677 162.992 216.319 163.365 216.053 163.856C215.786 164.347 215.653 164.923 215.653 165.584C215.653 166.256 215.786 166.843 216.053 167.344C216.319 167.835 216.677 168.213 217.125 168.48C217.573 168.736 218.069 168.864 218.613 168.864C219.157 168.864 219.653 168.736 220.101 168.48C220.559 168.213 220.922 167.835 221.189 167.344C221.455 166.843 221.589 166.261 221.589 165.6ZM233.297 161.232V170H231.841V168.704C231.564 169.152 231.174 169.504 230.673 169.76C230.182 170.005 229.638 170.128 229.041 170.128C228.358 170.128 227.745 169.989 227.201 169.712C226.657 169.424 226.225 168.997 225.905 168.432C225.596 167.867 225.441 167.179 225.441 166.368V161.232H226.881V166.176C226.881 167.04 227.1 167.707 227.537 168.176C227.974 168.635 228.572 168.864 229.329 168.864C230.108 168.864 230.721 168.624 231.169 168.144C231.617 167.664 231.841 166.965 231.841 166.048V161.232H233.297ZM237.211 158.16V170H235.755V158.16H237.211ZM241.469 162.432V167.6C241.469 168.027 241.56 168.331 241.741 168.512C241.922 168.683 242.237 168.768 242.685 168.768H243.757V170H242.445C241.634 170 241.026 169.813 240.621 169.44C240.216 169.067 240.013 168.453 240.013 167.6V162.432H238.877V161.232H240.013V159.024H241.469V161.232H243.757V162.432H241.469ZM254.139 161.072C254.8 161.072 255.397 161.216 255.931 161.504C256.464 161.781 256.88 162.203 257.179 162.768C257.488 163.333 257.643 164.021 257.643 164.832V170H256.203V165.04C256.203 164.165 255.984 163.499 255.547 163.04C255.109 162.571 254.512 162.336 253.755 162.336C252.987 162.336 252.373 162.576 251.915 163.056C251.467 163.536 251.243 164.235 251.243 165.152V170H249.787V158.16H251.243V162.48C251.531 162.032 251.925 161.685 252.427 161.44C252.939 161.195 253.509 161.072 254.139 161.072ZM268.021 165.28C268.021 165.557 268.005 165.851 267.973 166.16H260.965C261.018 167.024 261.312 167.701 261.845 168.192C262.389 168.672 263.045 168.912 263.813 168.912C264.442 168.912 264.965 168.768 265.381 168.48C265.808 168.181 266.106 167.787 266.277 167.296H267.845C267.61 168.139 267.141 168.827 266.437 169.36C265.733 169.883 264.858 170.144 263.813 170.144C262.981 170.144 262.234 169.957 261.573 169.584C260.922 169.211 260.41 168.683 260.037 168C259.664 167.307 259.477 166.507 259.477 165.6C259.477 164.693 259.658 163.899 260.021 163.216C260.384 162.533 260.89 162.011 261.541 161.648C262.202 161.275 262.96 161.088 263.813 161.088C264.645 161.088 265.381 161.269 266.021 161.632C266.661 161.995 267.152 162.496 267.493 163.136C267.845 163.765 268.021 164.48 268.021 165.28ZM266.517 164.976C266.517 164.421 266.394 163.947 266.149 163.552C265.904 163.147 265.568 162.843 265.141 162.64C264.725 162.427 264.261 162.32 263.749 162.32C263.013 162.32 262.384 162.555 261.861 163.024C261.349 163.493 261.056 164.144 260.981 164.976H266.517ZM269.399 165.584C269.399 164.688 269.58 163.904 269.943 163.232C270.306 162.549 270.802 162.021 271.431 161.648C272.071 161.275 272.78 161.088 273.559 161.088C274.327 161.088 274.994 161.253 275.559 161.584C276.124 161.915 276.546 162.331 276.823 162.832V161.232H278.295V170H276.823V168.368C276.535 168.88 276.103 169.307 275.527 169.648C274.962 169.979 274.3 170.144 273.543 170.144C272.764 170.144 272.06 169.952 271.431 169.568C270.802 169.184 270.306 168.645 269.943 167.952C269.58 167.259 269.399 166.469 269.399 165.584ZM276.823 165.6C276.823 164.939 276.69 164.363 276.423 163.872C276.156 163.381 275.794 163.008 275.335 162.752C274.887 162.485 274.391 162.352 273.847 162.352C273.303 162.352 272.807 162.48 272.359 162.736C271.911 162.992 271.554 163.365 271.287 163.856C271.02 164.347 270.887 164.923 270.887 165.584C270.887 166.256 271.02 166.843 271.287 167.344C271.554 167.835 271.911 168.213 272.359 168.48C272.807 168.736 273.303 168.864 273.847 168.864C274.391 168.864 274.887 168.736 275.335 168.48C275.794 168.213 276.156 167.835 276.423 167.344C276.69 166.843 276.823 166.261 276.823 165.6ZM282.211 158.16V170H280.755V158.16H282.211ZM286.469 162.432V167.6C286.469 168.027 286.56 168.331 286.741 168.512C286.922 168.683 287.237 168.768 287.685 168.768H288.757V170H287.445C286.634 170 286.026 169.813 285.621 169.44C285.216 169.067 285.013 168.453 285.013 167.6V162.432H283.877V161.232H285.013V159.024H286.469V161.232H288.757V162.432H286.469ZM294.873 161.072C295.534 161.072 296.132 161.216 296.665 161.504C297.198 161.781 297.614 162.203 297.913 162.768C298.222 163.333 298.377 164.021 298.377 164.832V170H296.937V165.04C296.937 164.165 296.718 163.499 296.281 163.04C295.844 162.571 295.246 162.336 294.489 162.336C293.721 162.336 293.108 162.576 292.649 163.056C292.201 163.536 291.977 164.235 291.977 165.152V170H290.521V158.16H291.977V162.48C292.265 162.032 292.66 161.685 293.161 161.44C293.673 161.195 294.244 161.072 294.873 161.072ZM301.219 170.096C300.942 170.096 300.707 170 300.515 169.808C300.323 169.616 300.227 169.381 300.227 169.104C300.227 168.827 300.323 168.592 300.515 168.4C300.707 168.208 300.942 168.112 301.219 168.112C301.486 168.112 301.71 168.208 301.891 168.4C302.083 168.592 302.179 168.827 302.179 169.104C302.179 169.381 302.083 169.616 301.891 169.808C301.71 170 301.486 170.096 301.219 170.096Z" fill="#FFF4ED"/>
</svg>
