<svg width="307" height="199" viewBox="0 0 307 199" fill="none" xmlns="http://www.w3.org/2000/svg">
<path d="M45.6778 9.248V26H42.3178V15.104L37.8298 26H35.2858L30.7738 15.104V26H27.4138V9.248H31.2298L36.5578 21.704L41.8858 9.248H45.6778ZM48.1357 19.304C48.1357 17.96 48.3997 16.768 48.9277 15.728C49.4718 14.688 50.1998 13.888 51.1118 13.328C52.0398 12.768 53.0718 12.488 54.2078 12.488C55.1998 12.488 56.0638 12.688 56.7998 13.088C57.5518 13.488 58.1518 13.992 58.5998 14.6V12.704H61.9838V26H58.5998V24.056C58.1678 24.68 57.5678 25.2 56.7998 25.616C56.0478 26.016 55.1758 26.216 54.1838 26.216C53.0638 26.216 52.0398 25.928 51.1118 25.352C50.1998 24.776 49.4718 23.968 48.9277 22.928C48.3997 21.872 48.1357 20.664 48.1357 19.304ZM58.5998 19.352C58.5998 18.536 58.4398 17.84 58.1198 17.264C57.7998 16.672 57.3678 16.224 56.8238 15.92C56.2798 15.6 55.6958 15.44 55.0718 15.44C54.4478 15.44 53.8718 15.592 53.3438 15.896C52.8158 16.2 52.3838 16.648 52.0478 17.24C51.7278 17.816 51.5678 18.504 51.5678 19.304C51.5678 20.104 51.7278 20.808 52.0478 21.416C52.3838 22.008 52.8158 22.464 53.3438 22.784C53.8878 23.104 54.4638 23.264 55.0718 23.264C55.6958 23.264 56.2798 23.112 56.8238 22.808C57.3678 22.488 57.7998 22.04 58.1198 21.464C58.4398 20.872 58.5998 20.168 58.5998 19.352ZM72.6094 26L69.8734 21.872L67.4494 26H63.8494L68.1934 19.328L63.8014 12.704H67.5934L70.3054 16.808L72.7534 12.704H76.3534L71.9854 19.328L76.4014 26H72.6094ZM79.9303 11.12C79.3383 11.12 78.8423 10.936 78.4423 10.568C78.0583 10.184 77.8663 9.712 77.8663 9.152C77.8663 8.592 78.0583 8.128 78.4423 7.76C78.8423 7.376 79.3383 7.184 79.9303 7.184C80.5223 7.184 81.0103 7.376 81.3943 7.76C81.7943 8.128 81.9943 8.592 81.9943 9.152C81.9943 9.712 81.7943 10.184 81.3943 10.568C81.0103 10.936 80.5223 11.12 79.9303 11.12ZM81.5863 12.704V26H78.2263V12.704H81.5863ZM88.266 8.24V26H84.906V8.24H88.266ZM94.9457 8.24V26H91.5857V8.24H94.9457ZM104.169 26.216C102.889 26.216 101.737 25.936 100.713 25.376C99.6894 24.8 98.8814 23.992 98.2894 22.952C97.7134 21.912 97.4254 20.712 97.4254 19.352C97.4254 17.992 97.7214 16.792 98.3134 15.752C98.9214 14.712 99.7454 13.912 100.785 13.352C101.825 12.776 102.985 12.488 104.265 12.488C105.545 12.488 106.705 12.776 107.745 13.352C108.785 13.912 109.601 14.712 110.193 15.752C110.801 16.792 111.105 17.992 111.105 19.352C111.105 20.712 110.793 21.912 110.169 22.952C109.561 23.992 108.729 24.8 107.673 25.376C106.633 25.936 105.465 26.216 104.169 26.216ZM104.169 23.288C104.777 23.288 105.345 23.144 105.873 22.856C106.417 22.552 106.849 22.104 107.169 21.512C107.489 20.92 107.649 20.2 107.649 19.352C107.649 18.088 107.313 17.12 106.641 16.448C105.985 15.76 105.177 15.416 104.217 15.416C103.257 15.416 102.449 15.76 101.793 16.448C101.153 17.12 100.833 18.088 100.833 19.352C100.833 20.616 101.145 21.592 101.769 22.28C102.409 22.952 103.209 23.288 104.169 23.288ZM119.666 15.464H117.338V26H113.93V15.464H112.418V12.704H113.93V12.032C113.93 10.4 114.394 9.2 115.322 8.432C116.25 7.664 117.65 7.304 119.522 7.352V10.184C118.706 10.168 118.138 10.304 117.818 10.592C117.498 10.88 117.338 11.4 117.338 12.152V12.704H119.666V15.464ZM120.979 19.304C120.979 17.96 121.243 16.768 121.771 15.728C122.316 14.688 123.044 13.888 123.956 13.328C124.884 12.768 125.916 12.488 127.052 12.488C128.044 12.488 128.908 12.688 129.644 13.088C130.396 13.488 130.996 13.992 131.444 14.6V12.704H134.828V26H131.444V24.056C131.012 24.68 130.412 25.2 129.644 25.616C128.892 26.016 128.02 26.216 127.028 26.216C125.908 26.216 124.884 25.928 123.956 25.352C123.044 24.776 122.316 23.968 121.771 22.928C121.243 21.872 120.979 20.664 120.979 19.304ZM131.444 19.352C131.444 18.536 131.284 17.84 130.964 17.264C130.644 16.672 130.212 16.224 129.668 15.92C129.124 15.6 128.54 15.44 127.916 15.44C127.292 15.44 126.716 15.592 126.188 15.896C125.66 16.2 125.228 16.648 124.892 17.24C124.572 17.816 124.412 18.504 124.412 19.304C124.412 20.104 124.572 20.808 124.892 21.416C125.228 22.008 125.66 22.464 126.188 22.784C126.732 23.104 127.308 23.264 127.916 23.264C128.54 23.264 129.124 23.112 129.668 22.808C130.212 22.488 130.644 22.04 130.964 21.464C131.284 20.872 131.444 20.168 131.444 19.352ZM137.245 19.352C137.245 17.976 137.525 16.776 138.085 15.752C138.645 14.712 139.421 13.912 140.413 13.352C141.405 12.776 142.541 12.488 143.821 12.488C145.469 12.488 146.829 12.904 147.901 13.736C148.989 14.552 149.717 15.704 150.085 17.192H146.461C146.269 16.616 145.941 16.168 145.477 15.848C145.029 15.512 144.469 15.344 143.797 15.344C142.837 15.344 142.077 15.696 141.517 16.4C140.957 17.088 140.677 18.072 140.677 19.352C140.677 20.616 140.957 21.6 141.517 22.304C142.077 22.992 142.837 23.336 143.797 23.336C145.157 23.336 146.045 22.728 146.461 21.512H150.085C149.717 22.952 148.989 24.096 147.901 24.944C146.813 25.792 145.453 26.216 143.821 26.216C142.541 26.216 141.405 25.936 140.413 25.376C139.421 24.8 138.645 24 138.085 22.976C137.525 21.936 137.245 20.728 137.245 19.352ZM154.251 11.12C153.659 11.12 153.163 10.936 152.763 10.568C152.379 10.184 152.187 9.712 152.187 9.152C152.187 8.592 152.379 8.128 152.763 7.76C153.163 7.376 153.659 7.184 154.251 7.184C154.843 7.184 155.331 7.376 155.715 7.76C156.115 8.128 156.315 8.592 156.315 9.152C156.315 9.712 156.115 10.184 155.715 10.568C155.331 10.936 154.843 11.12 154.251 11.12ZM155.907 12.704V26H152.547V12.704H155.907ZM158.362 19.304C158.362 17.96 158.626 16.768 159.154 15.728C159.698 14.688 160.426 13.888 161.338 13.328C162.266 12.768 163.298 12.488 164.434 12.488C165.426 12.488 166.29 12.688 167.026 13.088C167.778 13.488 168.378 13.992 168.826 14.6V12.704H172.21V26H168.826V24.056C168.394 24.68 167.794 25.2 167.026 25.616C166.274 26.016 165.402 26.216 164.41 26.216C163.29 26.216 162.266 25.928 161.338 25.352C160.426 24.776 159.698 23.968 159.154 22.928C158.626 21.872 158.362 20.664 158.362 19.304ZM168.826 19.352C168.826 18.536 168.666 17.84 168.346 17.264C168.026 16.672 167.594 16.224 167.05 15.92C166.506 15.6 165.922 15.44 165.298 15.44C164.674 15.44 164.098 15.592 163.57 15.896C163.042 16.2 162.61 16.648 162.274 17.24C161.954 17.816 161.794 18.504 161.794 19.304C161.794 20.104 161.954 20.808 162.274 21.416C162.61 22.008 163.042 22.464 163.57 22.784C164.114 23.104 164.69 23.264 165.298 23.264C165.922 23.264 166.506 23.112 167.05 22.808C167.594 22.488 168.026 22.04 168.346 21.464C168.666 20.872 168.826 20.168 168.826 19.352ZM178.852 8.24V26H175.492V8.24H178.852ZM193.674 26.168C192.506 26.168 191.45 25.968 190.506 25.568C189.578 25.168 188.842 24.592 188.298 23.84C187.754 23.088 187.474 22.2 187.458 21.176H191.058C191.106 21.864 191.346 22.408 191.778 22.808C192.226 23.208 192.834 23.408 193.602 23.408C194.386 23.408 195.002 23.224 195.45 22.856C195.898 22.472 196.122 21.976 196.122 21.368C196.122 20.872 195.97 20.464 195.666 20.144C195.362 19.824 194.978 19.576 194.514 19.4C194.066 19.208 193.442 19 192.642 18.776C191.554 18.456 190.666 18.144 189.978 17.84C189.306 17.52 188.722 17.048 188.226 16.424C187.746 15.784 187.506 14.936 187.506 13.88C187.506 12.888 187.754 12.024 188.25 11.288C188.746 10.552 189.442 9.992 190.338 9.608C191.234 9.208 192.258 9.008 193.41 9.008C195.138 9.008 196.538 9.432 197.61 10.28C198.698 11.112 199.298 12.28 199.41 13.784H195.714C195.682 13.208 195.434 12.736 194.97 12.368C194.522 11.984 193.922 11.792 193.17 11.792C192.514 11.792 191.986 11.96 191.586 12.296C191.202 12.632 191.01 13.12 191.01 13.76C191.01 14.208 191.154 14.584 191.442 14.888C191.746 15.176 192.114 15.416 192.546 15.608C192.994 15.784 193.618 15.992 194.418 16.232C195.506 16.552 196.394 16.872 197.082 17.192C197.77 17.512 198.362 17.992 198.858 18.632C199.354 19.272 199.602 20.112 199.602 21.152C199.602 22.048 199.37 22.88 198.906 23.648C198.442 24.416 197.762 25.032 196.866 25.496C195.97 25.944 194.906 26.168 193.674 26.168ZM215.067 12.704V26H211.683V24.32C211.251 24.896 210.683 25.352 209.979 25.688C209.291 26.008 208.539 26.168 207.723 26.168C206.683 26.168 205.763 25.952 204.963 25.52C204.163 25.072 203.531 24.424 203.067 23.576C202.619 22.712 202.395 21.688 202.395 20.504V12.704H205.755V20.024C205.755 21.08 206.019 21.896 206.547 22.472C207.075 23.032 207.795 23.312 208.707 23.312C209.635 23.312 210.363 23.032 210.891 22.472C211.419 21.896 211.683 21.08 211.683 20.024V12.704H215.067ZM221.743 14.768C222.175 14.064 222.735 13.512 223.423 13.112C224.127 12.712 224.927 12.512 225.823 12.512V16.04H224.935C223.879 16.04 223.079 16.288 222.535 16.784C222.007 17.28 221.743 18.144 221.743 19.376V26H218.383V12.704H221.743V14.768ZM233.294 12.488C234.286 12.488 235.158 12.688 235.91 13.088C236.662 13.472 237.254 13.976 237.686 14.6V12.704H241.07V26.096C241.07 27.328 240.822 28.424 240.326 29.384C239.83 30.36 239.086 31.128 238.094 31.688C237.102 32.264 235.902 32.552 234.494 32.552C232.606 32.552 231.054 32.112 229.838 31.232C228.638 30.352 227.958 29.152 227.798 27.632H231.134C231.31 28.24 231.686 28.72 232.262 29.072C232.854 29.44 233.566 29.624 234.398 29.624C235.374 29.624 236.166 29.328 236.774 28.736C237.382 28.16 237.686 27.28 237.686 26.096V24.032C237.254 24.656 236.654 25.176 235.886 25.592C235.134 26.008 234.27 26.216 233.294 26.216C232.174 26.216 231.15 25.928 230.222 25.352C229.294 24.776 228.558 23.968 228.014 22.928C227.486 21.872 227.222 20.664 227.222 19.304C227.222 17.96 227.486 16.768 228.014 15.728C228.558 14.688 229.286 13.888 230.198 13.328C231.126 12.768 232.158 12.488 233.294 12.488ZM237.686 19.352C237.686 18.536 237.526 17.84 237.206 17.264C236.886 16.672 236.454 16.224 235.91 15.92C235.366 15.6 234.782 15.44 234.158 15.44C233.534 15.44 232.958 15.592 232.43 15.896C231.902 16.2 231.47 16.648 231.134 17.24C230.814 17.816 230.654 18.504 230.654 19.304C230.654 20.104 230.814 20.808 231.134 21.416C231.47 22.008 231.902 22.464 232.43 22.784C232.974 23.104 233.55 23.264 234.158 23.264C234.782 23.264 235.366 23.112 235.91 22.808C236.454 22.488 236.886 22.04 237.206 21.464C237.526 20.872 237.686 20.168 237.686 19.352ZM256.711 19.064C256.711 19.544 256.679 19.976 256.615 20.36H246.895C246.975 21.32 247.311 22.072 247.903 22.616C248.495 23.16 249.223 23.432 250.087 23.432C251.335 23.432 252.223 22.896 252.751 21.824H256.375C255.991 23.104 255.255 24.16 254.167 24.992C253.079 25.808 251.743 26.216 250.159 26.216C248.879 26.216 247.727 25.936 246.703 25.376C245.695 24.8 244.903 23.992 244.327 22.952C243.767 21.912 243.487 20.712 243.487 19.352C243.487 17.976 243.767 16.768 244.327 15.728C244.887 14.688 245.671 13.888 246.679 13.328C247.687 12.768 248.847 12.488 250.159 12.488C251.423 12.488 252.551 12.76 253.543 13.304C254.551 13.848 255.327 14.624 255.871 15.632C256.431 16.624 256.711 17.768 256.711 19.064ZM253.231 18.104C253.215 17.24 252.903 16.552 252.295 16.04C251.687 15.512 250.943 15.248 250.063 15.248C249.231 15.248 248.527 15.504 247.951 16.016C247.391 16.512 247.047 17.208 246.919 18.104H253.231ZM262.524 14.768C262.956 14.064 263.516 13.512 264.204 13.112C264.908 12.712 265.708 12.512 266.604 12.512V16.04H265.716C264.66 16.04 263.86 16.288 263.316 16.784C262.788 17.28 262.524 18.144 262.524 19.376V26H259.164V12.704H262.524V14.768ZM281.587 12.704L273.355 32.288H269.779L272.659 25.664L267.331 12.704H271.099L274.531 21.992L278.011 12.704H281.587Z" fill="#FFF4ED"/>
<path d="M169.564 49.451C169.564 46.4383 167.126 44 164.113 44H143.387C140.376 44 137.934 46.4383 137.934 49.451V63.232H169.564V49.451Z" fill="#FFF4ED"/>
<path d="M153.751 88.364C162.95 88.364 170.534 81.5074 171.705 72.6361H166.174L171.513 65.5191L169.975 64.365L163.77 72.6361H143.733L137.53 64.365L135.991 65.5191L141.329 72.6361H135.797C136.966 81.5074 144.551 88.364 153.751 88.364Z" fill="#FFF4ED"/>
<path d="M133.108 113.458V84.4646C133.108 83.4806 132.308 82.6824 131.326 82.6824C130.342 82.6824 129.545 83.4806 129.545 84.4646V93.265C129.186 93.1765 128.801 93.0931 128.396 93.0099V81.9449C128.396 80.9609 127.596 80.1644 126.616 80.1644C125.632 80.1644 124.833 80.9609 124.833 81.9449V92.2689C124.45 92.1855 124.066 92.1056 123.686 92.031V81.3027C123.686 80.3222 122.888 79.5222 121.907 79.5222C120.92 79.5222 120.125 80.3222 120.125 81.3027V91.5972C119.721 91.5972 119.344 91.6318 118.978 91.6908V84.5009C118.978 83.5187 118.178 82.722 117.196 82.722C116.212 82.722 115.415 83.5187 115.415 84.5009C115.415 84.5009 115.403 96.8779 115.408 97.1521C115.204 98.8736 112.103 95.3906 109.383 94.6513C106.504 93.8654 105.775 96.6021 108.599 98.839C113.369 102.624 115.459 107.145 115.459 110.286V113.458H133.108Z" fill="#FFF4ED"/>
<path d="M198.118 94.6515C195.403 95.3908 192.296 98.8738 192.093 97.1523C192.098 96.8781 192.088 84.5011 192.088 84.5011C192.088 83.5189 191.289 82.7222 190.306 82.7222C189.323 82.7222 188.527 83.5189 188.527 84.5011V91.691C188.161 91.632 187.777 91.5974 187.376 91.5974V81.3027C187.376 80.3222 186.581 79.5222 185.597 79.5222C184.613 79.5222 183.817 80.3222 183.817 81.3027V92.031C183.435 92.1056 183.055 92.1855 182.668 92.2689V81.9449C182.668 80.9609 181.868 80.1644 180.887 80.1644C179.902 80.1644 179.105 80.9609 179.105 81.9449V93.0099C178.701 93.0933 178.314 93.1765 177.956 93.265V84.4646C177.956 83.4806 177.16 82.6824 176.176 82.6824C175.192 82.6824 174.397 83.4806 174.397 84.4646V113.458H192.043V110.286C192.043 107.145 194.136 102.624 198.903 98.839C201.723 96.6023 200.997 93.8656 198.118 94.6515Z" fill="#FFF4ED"/>
<path d="M174.4 119.454H171.842V99.0196C171.842 98.0739 170.563 96.9475 169.618 96.9475H164.654L153.751 107.849L142.847 96.9475H137.884C136.971 96.9475 135.659 98.0739 135.659 99.0196V119.454H133.101V115.586H115.469L115.561 123.716V133.584C115.561 136.172 117.786 139.403 120.07 140.588C122.353 141.808 127.346 143.179 133.042 138.367V144H174.459V138.367C180.155 143.179 185.148 141.808 187.433 140.588C189.717 139.403 191.942 136.172 191.942 133.584V123.716L192.034 115.586H174.4V119.454Z" fill="#FFF4ED"/>
<path d="M21.6664 170.112C20.9304 170.112 20.2691 169.984 19.6824 169.728C19.1064 169.461 18.6531 169.099 18.3224 168.64C17.9918 168.171 17.8211 167.632 17.8104 167.024H19.3624C19.4158 167.547 19.6291 167.989 20.0024 168.352C20.3864 168.704 20.9411 168.88 21.6664 168.88C22.3598 168.88 22.9038 168.709 23.2984 168.368C23.7038 168.016 23.9064 167.568 23.9064 167.024C23.9064 166.597 23.7891 166.251 23.5544 165.984C23.3198 165.717 23.0264 165.515 22.6744 165.376C22.3224 165.237 21.8478 165.088 21.2504 164.928C20.5144 164.736 19.9224 164.544 19.4744 164.352C19.0371 164.16 18.6584 163.861 18.3384 163.456C18.0291 163.04 17.8744 162.485 17.8744 161.792C17.8744 161.184 18.0291 160.645 18.3384 160.176C18.6478 159.707 19.0798 159.344 19.6344 159.088C20.1998 158.832 20.8451 158.704 21.5704 158.704C22.6158 158.704 23.4691 158.965 24.1304 159.488C24.8024 160.011 25.1811 160.704 25.2664 161.568H23.6664C23.6131 161.141 23.3891 160.768 22.9944 160.448C22.5998 160.117 22.0771 159.952 21.4264 159.952C20.8184 159.952 20.3224 160.112 19.9384 160.432C19.5544 160.741 19.3624 161.179 19.3624 161.744C19.3624 162.149 19.4744 162.48 19.6984 162.736C19.9331 162.992 20.2158 163.189 20.5464 163.328C20.8878 163.456 21.3624 163.605 21.9704 163.776C22.7064 163.979 23.2984 164.181 23.7464 164.384C24.1944 164.576 24.5784 164.88 24.8984 165.296C25.2184 165.701 25.3784 166.256 25.3784 166.96C25.3784 167.504 25.2344 168.016 24.9464 168.496C24.6584 168.976 24.2318 169.365 23.6664 169.664C23.1011 169.963 22.4344 170.112 21.6664 170.112ZM28.9771 162.848C29.2651 162.347 29.6917 161.931 30.2571 161.6C30.8331 161.259 31.4997 161.088 32.2571 161.088C33.0357 161.088 33.7397 161.275 34.3691 161.648C35.0091 162.021 35.5104 162.549 35.8731 163.232C36.2357 163.904 36.4171 164.688 36.4171 165.584C36.4171 166.469 36.2357 167.259 35.8731 167.952C35.5104 168.645 35.0091 169.184 34.3691 169.568C33.7397 169.952 33.0357 170.144 32.2571 170.144C31.5104 170.144 30.8491 169.979 30.2731 169.648C29.7077 169.307 29.2757 168.885 28.9771 168.384V174.16H27.5211V161.232H28.9771V162.848ZM34.9291 165.584C34.9291 164.923 34.7957 164.347 34.5291 163.856C34.2624 163.365 33.8997 162.992 33.4411 162.736C32.9931 162.48 32.4971 162.352 31.9531 162.352C31.4197 162.352 30.9237 162.485 30.4651 162.752C30.0171 163.008 29.6544 163.387 29.3771 163.888C29.1104 164.379 28.9771 164.949 28.9771 165.6C28.9771 166.261 29.1104 166.843 29.3771 167.344C29.6544 167.835 30.0171 168.213 30.4651 168.48C30.9237 168.736 31.4197 168.864 31.9531 168.864C32.4971 168.864 32.9931 168.736 33.4411 168.48C33.8997 168.213 34.2624 167.835 34.5291 167.344C34.7957 166.843 34.9291 166.256 34.9291 165.584ZM46.3336 165.28C46.3336 165.557 46.3176 165.851 46.2856 166.16H39.2776C39.3309 167.024 39.6242 167.701 40.1576 168.192C40.7016 168.672 41.3576 168.912 42.1256 168.912C42.7549 168.912 43.2776 168.768 43.6936 168.48C44.1202 168.181 44.4189 167.787 44.5896 167.296H46.1576C45.9229 168.139 45.4536 168.827 44.7496 169.36C44.0456 169.883 43.1709 170.144 42.1256 170.144C41.2936 170.144 40.5469 169.957 39.8856 169.584C39.2349 169.211 38.7229 168.683 38.3496 168C37.9762 167.307 37.7896 166.507 37.7896 165.6C37.7896 164.693 37.9709 163.899 38.3336 163.216C38.6962 162.533 39.2029 162.011 39.8536 161.648C40.5149 161.275 41.2722 161.088 42.1256 161.088C42.9576 161.088 43.6936 161.269 44.3336 161.632C44.9736 161.995 45.4642 162.496 45.8056 163.136C46.1576 163.765 46.3336 164.48 46.3336 165.28ZM44.8296 164.976C44.8296 164.421 44.7069 163.947 44.4616 163.552C44.2162 163.147 43.8802 162.843 43.4536 162.64C43.0376 162.427 42.5736 162.32 42.0616 162.32C41.3256 162.32 40.6962 162.555 40.1736 163.024C39.6616 163.493 39.3682 164.144 39.2936 164.976H44.8296ZM47.7114 165.6C47.7114 164.693 47.8928 163.904 48.2554 163.232C48.6181 162.549 49.1194 162.021 49.7594 161.648C50.4101 161.275 51.1514 161.088 51.9834 161.088C53.0608 161.088 53.9461 161.349 54.6394 161.872C55.3434 162.395 55.8074 163.12 56.0314 164.048H54.4634C54.3141 163.515 54.0208 163.093 53.5834 162.784C53.1568 162.475 52.6234 162.32 51.9834 162.32C51.1514 162.32 50.4794 162.608 49.9674 163.184C49.4554 163.749 49.1994 164.555 49.1994 165.6C49.1994 166.656 49.4554 167.472 49.9674 168.048C50.4794 168.624 51.1514 168.912 51.9834 168.912C52.6234 168.912 53.1568 168.763 53.5834 168.464C54.0101 168.165 54.3034 167.739 54.4634 167.184H56.0314C55.7968 168.08 55.3274 168.8 54.6234 169.344C53.9194 169.877 53.0394 170.144 51.9834 170.144C51.1514 170.144 50.4101 169.957 49.7594 169.584C49.1194 169.211 48.6181 168.683 48.2554 168C47.8928 167.317 47.7114 166.517 47.7114 165.6ZM58.7262 159.808C58.4489 159.808 58.2142 159.712 58.0222 159.52C57.8302 159.328 57.7342 159.093 57.7342 158.816C57.7342 158.539 57.8302 158.304 58.0222 158.112C58.2142 157.92 58.4489 157.824 58.7262 157.824C58.9929 157.824 59.2169 157.92 59.3982 158.112C59.5902 158.304 59.6862 158.539 59.6862 158.816C59.6862 159.093 59.5902 159.328 59.3982 159.52C59.2169 159.712 58.9929 159.808 58.7262 159.808ZM59.4302 161.232V170H57.9742V161.232H59.4302ZM61.3677 165.584C61.3677 164.688 61.549 163.904 61.9117 163.232C62.2744 162.549 62.7704 162.021 63.3997 161.648C64.0397 161.275 64.749 161.088 65.5277 161.088C66.2957 161.088 66.9624 161.253 67.5277 161.584C68.093 161.915 68.5144 162.331 68.7917 162.832V161.232H70.2637V170H68.7917V168.368C68.5037 168.88 68.0717 169.307 67.4957 169.648C66.9304 169.979 66.269 170.144 65.5117 170.144C64.733 170.144 64.029 169.952 63.3997 169.568C62.7704 169.184 62.2744 168.645 61.9117 167.952C61.549 167.259 61.3677 166.469 61.3677 165.584ZM68.7917 165.6C68.7917 164.939 68.6584 164.363 68.3917 163.872C68.125 163.381 67.7624 163.008 67.3037 162.752C66.8557 162.485 66.3597 162.352 65.8157 162.352C65.2717 162.352 64.7757 162.48 64.3277 162.736C63.8797 162.992 63.5224 163.365 63.2557 163.856C62.989 164.347 62.8557 164.923 62.8557 165.584C62.8557 166.256 62.989 166.843 63.2557 167.344C63.5224 167.835 63.8797 168.213 64.3277 168.48C64.7757 168.736 65.2717 168.864 65.8157 168.864C66.3597 168.864 66.8557 168.736 67.3037 168.48C67.7624 168.213 68.125 167.835 68.3917 167.344C68.6584 166.843 68.7917 166.261 68.7917 165.6ZM74.1802 158.16V170H72.7242V158.16H74.1802ZM77.4137 159.808C77.1364 159.808 76.9017 159.712 76.7097 159.52C76.5177 159.328 76.4217 159.093 76.4217 158.816C76.4217 158.539 76.5177 158.304 76.7097 158.112C76.9017 157.92 77.1364 157.824 77.4137 157.824C77.6804 157.824 77.9044 157.92 78.0857 158.112C78.2777 158.304 78.3737 158.539 78.3737 158.816C78.3737 159.093 78.2777 159.328 78.0857 159.52C77.9044 159.712 77.6804 159.808 77.4137 159.808ZM78.1177 161.232V170H76.6617V161.232H78.1177ZM81.6872 168.8H85.9912V170H80.0232V168.8L84.2792 162.416H80.0552V161.232H85.9592V162.416L81.6872 168.8ZM95.8804 165.28C95.8804 165.557 95.8644 165.851 95.8324 166.16H88.8244C88.8778 167.024 89.1711 167.701 89.7044 168.192C90.2484 168.672 90.9044 168.912 91.6724 168.912C92.3018 168.912 92.8244 168.768 93.2404 168.48C93.6671 168.181 93.9658 167.787 94.1364 167.296H95.7044C95.4698 168.139 95.0004 168.827 94.2964 169.36C93.5924 169.883 92.7178 170.144 91.6724 170.144C90.8404 170.144 90.0938 169.957 89.4324 169.584C88.7818 169.211 88.2698 168.683 87.8964 168C87.5231 167.307 87.3364 166.507 87.3364 165.6C87.3364 164.693 87.5178 163.899 87.8804 163.216C88.2431 162.533 88.7498 162.011 89.4004 161.648C90.0618 161.275 90.8191 161.088 91.6724 161.088C92.5044 161.088 93.2404 161.269 93.8804 161.632C94.5204 161.995 95.0111 162.496 95.3524 163.136C95.7044 163.765 95.8804 164.48 95.8804 165.28ZM94.3764 164.976C94.3764 164.421 94.2538 163.947 94.0084 163.552C93.7631 163.147 93.4271 162.843 93.0004 162.64C92.5844 162.427 92.1204 162.32 91.6084 162.32C90.8724 162.32 90.2431 162.555 89.7204 163.024C89.2084 163.493 88.9151 164.144 88.8404 164.976H94.3764ZM97.2583 165.584C97.2583 164.688 97.4396 163.904 97.8023 163.232C98.165 162.549 98.661 162.021 99.2903 161.648C99.9303 161.275 100.645 161.088 101.434 161.088C102.117 161.088 102.752 161.248 103.338 161.568C103.925 161.877 104.373 162.288 104.682 162.8V158.16H106.154V170H104.682V168.352C104.394 168.875 103.968 169.307 103.402 169.648C102.837 169.979 102.176 170.144 101.418 170.144C100.64 170.144 99.9303 169.952 99.2903 169.568C98.661 169.184 98.165 168.645 97.8023 167.952C97.4396 167.259 97.2583 166.469 97.2583 165.584ZM104.682 165.6C104.682 164.939 104.549 164.363 104.282 163.872C104.016 163.381 103.653 163.008 103.194 162.752C102.746 162.485 102.25 162.352 101.706 162.352C101.162 162.352 100.666 162.48 100.218 162.736C99.7703 162.992 99.413 163.365 99.1463 163.856C98.8796 164.347 98.7463 164.923 98.7463 165.584C98.7463 166.256 98.8796 166.843 99.1463 167.344C99.413 167.835 99.7703 168.213 100.218 168.48C100.666 168.736 101.162 168.864 101.706 168.864C102.25 168.864 102.746 168.736 103.194 168.48C103.653 168.213 104.016 167.835 104.282 167.344C104.549 166.843 104.682 166.261 104.682 165.6ZM115.984 170.144C115.312 170.144 114.71 170.032 114.176 169.808C113.643 169.573 113.222 169.253 112.912 168.848C112.603 168.432 112.432 167.957 112.4 167.424H113.904C113.947 167.861 114.15 168.219 114.512 168.496C114.886 168.773 115.371 168.912 115.968 168.912C116.523 168.912 116.96 168.789 117.28 168.544C117.6 168.299 117.76 167.989 117.76 167.616C117.76 167.232 117.59 166.949 117.248 166.768C116.907 166.576 116.379 166.389 115.664 166.208C115.014 166.037 114.48 165.867 114.064 165.696C113.659 165.515 113.307 165.253 113.008 164.912C112.72 164.56 112.576 164.101 112.576 163.536C112.576 163.088 112.71 162.677 112.976 162.304C113.243 161.931 113.622 161.637 114.112 161.424C114.603 161.2 115.163 161.088 115.792 161.088C116.763 161.088 117.547 161.333 118.144 161.824C118.742 162.315 119.062 162.987 119.104 163.84H117.648C117.616 163.381 117.43 163.013 117.088 162.736C116.758 162.459 116.31 162.32 115.744 162.32C115.222 162.32 114.806 162.432 114.496 162.656C114.187 162.88 114.032 163.173 114.032 163.536C114.032 163.824 114.123 164.064 114.304 164.256C114.496 164.437 114.731 164.587 115.008 164.704C115.296 164.811 115.691 164.933 116.192 165.072C116.822 165.243 117.334 165.413 117.728 165.584C118.123 165.744 118.459 165.989 118.736 166.32C119.024 166.651 119.174 167.083 119.184 167.616C119.184 168.096 119.051 168.528 118.784 168.912C118.518 169.296 118.139 169.6 117.648 169.824C117.168 170.037 116.614 170.144 115.984 170.144ZM129.016 161.232V170H127.56V168.704C127.282 169.152 126.893 169.504 126.392 169.76C125.901 170.005 125.357 170.128 124.76 170.128C124.077 170.128 123.464 169.989 122.92 169.712C122.376 169.424 121.944 168.997 121.624 168.432C121.314 167.867 121.16 167.179 121.16 166.368V161.232H122.6V166.176C122.6 167.04 122.818 167.707 123.256 168.176C123.693 168.635 124.29 168.864 125.048 168.864C125.826 168.864 126.44 168.624 126.888 168.144C127.336 167.664 127.56 166.965 127.56 166.048V161.232H129.016ZM132.93 162.656C133.186 162.155 133.549 161.765 134.018 161.488C134.498 161.211 135.08 161.072 135.762 161.072V162.576H135.378C133.746 162.576 132.93 163.461 132.93 165.232V170H131.474V161.232H132.93V162.656ZM141.059 161.088C141.816 161.088 142.478 161.253 143.043 161.584C143.619 161.915 144.046 162.331 144.323 162.832V161.232H145.795V170.192C145.795 170.992 145.624 171.701 145.283 172.32C144.942 172.949 144.451 173.44 143.811 173.792C143.182 174.144 142.446 174.32 141.603 174.32C140.451 174.32 139.491 174.048 138.723 173.504C137.955 172.96 137.502 172.219 137.363 171.28H138.803C138.963 171.813 139.294 172.24 139.795 172.56C140.296 172.891 140.899 173.056 141.603 173.056C142.403 173.056 143.054 172.805 143.555 172.304C144.067 171.803 144.323 171.099 144.323 170.192V168.352C144.035 168.864 143.608 169.291 143.043 169.632C142.478 169.973 141.816 170.144 141.059 170.144C140.28 170.144 139.571 169.952 138.931 169.568C138.302 169.184 137.806 168.645 137.443 167.952C137.08 167.259 136.899 166.469 136.899 165.584C136.899 164.688 137.08 163.904 137.443 163.232C137.806 162.549 138.302 162.021 138.931 161.648C139.571 161.275 140.28 161.088 141.059 161.088ZM144.323 165.6C144.323 164.939 144.19 164.363 143.923 163.872C143.656 163.381 143.294 163.008 142.835 162.752C142.387 162.485 141.891 162.352 141.347 162.352C140.803 162.352 140.307 162.48 139.859 162.736C139.411 162.992 139.054 163.365 138.787 163.856C138.52 164.347 138.387 164.923 138.387 165.584C138.387 166.256 138.52 166.843 138.787 167.344C139.054 167.835 139.411 168.213 139.859 168.48C140.307 168.736 140.803 168.864 141.347 168.864C141.891 168.864 142.387 168.736 142.835 168.48C143.294 168.213 143.656 167.835 143.923 167.344C144.19 166.843 144.323 166.261 144.323 165.6ZM149.007 159.808C148.73 159.808 148.495 159.712 148.303 159.52C148.111 159.328 148.015 159.093 148.015 158.816C148.015 158.539 148.111 158.304 148.303 158.112C148.495 157.92 148.73 157.824 149.007 157.824C149.274 157.824 149.498 157.92 149.679 158.112C149.871 158.304 149.967 158.539 149.967 158.816C149.967 159.093 149.871 159.328 149.679 159.52C149.498 159.712 149.274 159.808 149.007 159.808ZM149.711 161.232V170H148.255V161.232H149.711ZM151.649 165.6C151.649 164.693 151.83 163.904 152.193 163.232C152.556 162.549 153.057 162.021 153.697 161.648C154.348 161.275 155.089 161.088 155.921 161.088C156.998 161.088 157.884 161.349 158.577 161.872C159.281 162.395 159.745 163.12 159.969 164.048H158.401C158.252 163.515 157.958 163.093 157.521 162.784C157.094 162.475 156.561 162.32 155.921 162.32C155.089 162.32 154.417 162.608 153.905 163.184C153.393 163.749 153.137 164.555 153.137 165.6C153.137 166.656 153.393 167.472 153.905 168.048C154.417 168.624 155.089 168.912 155.921 168.912C156.561 168.912 157.094 168.763 157.521 168.464C157.948 168.165 158.241 167.739 158.401 167.184H159.969C159.734 168.08 159.265 168.8 158.561 169.344C157.857 169.877 156.977 170.144 155.921 170.144C155.089 170.144 154.348 169.957 153.697 169.584C153.057 169.211 152.556 168.683 152.193 168C151.83 167.317 151.649 166.517 151.649 165.6ZM161.368 165.584C161.368 164.688 161.549 163.904 161.912 163.232C162.274 162.549 162.77 162.021 163.4 161.648C164.04 161.275 164.749 161.088 165.528 161.088C166.296 161.088 166.962 161.253 167.528 161.584C168.093 161.915 168.514 162.331 168.792 162.832V161.232H170.264V170H168.792V168.368C168.504 168.88 168.072 169.307 167.496 169.648C166.93 169.979 166.269 170.144 165.512 170.144C164.733 170.144 164.029 169.952 163.4 169.568C162.77 169.184 162.274 168.645 161.912 167.952C161.549 167.259 161.368 166.469 161.368 165.584ZM168.792 165.6C168.792 164.939 168.658 164.363 168.392 163.872C168.125 163.381 167.762 163.008 167.304 162.752C166.856 162.485 166.36 162.352 165.816 162.352C165.272 162.352 164.776 162.48 164.328 162.736C163.88 162.992 163.522 163.365 163.256 163.856C162.989 164.347 162.856 164.923 162.856 165.584C162.856 166.256 162.989 166.843 163.256 167.344C163.522 167.835 163.88 168.213 164.328 168.48C164.776 168.736 165.272 168.864 165.816 168.864C166.36 168.864 166.856 168.736 167.304 168.48C167.762 168.213 168.125 167.835 168.392 167.344C168.658 166.843 168.792 166.261 168.792 165.6ZM174.18 158.16V170H172.724V158.16H174.18ZM180.383 165.6C180.383 164.693 180.565 163.904 180.927 163.232C181.29 162.549 181.791 162.021 182.431 161.648C183.082 161.275 183.823 161.088 184.655 161.088C185.733 161.088 186.618 161.349 187.311 161.872C188.015 162.395 188.479 163.12 188.703 164.048H187.135C186.986 163.515 186.693 163.093 186.255 162.784C185.829 162.475 185.295 162.32 184.655 162.32C183.823 162.32 183.151 162.608 182.639 163.184C182.127 163.749 181.871 164.555 181.871 165.6C181.871 166.656 182.127 167.472 182.639 168.048C183.151 168.624 183.823 168.912 184.655 168.912C185.295 168.912 185.829 168.763 186.255 168.464C186.682 168.165 186.975 167.739 187.135 167.184H188.703C188.469 168.08 187.999 168.8 187.295 169.344C186.591 169.877 185.711 170.144 184.655 170.144C183.823 170.144 183.082 169.957 182.431 169.584C181.791 169.211 181.29 168.683 180.927 168C180.565 167.317 180.383 166.517 180.383 165.6ZM190.102 165.584C190.102 164.688 190.283 163.904 190.646 163.232C191.009 162.549 191.505 162.021 192.134 161.648C192.774 161.275 193.483 161.088 194.262 161.088C195.03 161.088 195.697 161.253 196.262 161.584C196.827 161.915 197.249 162.331 197.526 162.832V161.232H198.998V170H197.526V168.368C197.238 168.88 196.806 169.307 196.23 169.648C195.665 169.979 195.003 170.144 194.246 170.144C193.467 170.144 192.763 169.952 192.134 169.568C191.505 169.184 191.009 168.645 190.646 167.952C190.283 167.259 190.102 166.469 190.102 165.584ZM197.526 165.6C197.526 164.939 197.393 164.363 197.126 163.872C196.859 163.381 196.497 163.008 196.038 162.752C195.59 162.485 195.094 162.352 194.55 162.352C194.006 162.352 193.51 162.48 193.062 162.736C192.614 162.992 192.257 163.365 191.99 163.856C191.723 164.347 191.59 164.923 191.59 165.584C191.59 166.256 191.723 166.843 191.99 167.344C192.257 167.835 192.614 168.213 193.062 168.48C193.51 168.736 194.006 168.864 194.55 168.864C195.094 168.864 195.59 168.736 196.038 168.48C196.497 168.213 196.859 167.835 197.126 167.344C197.393 166.843 197.526 166.261 197.526 165.6ZM202.915 162.656C203.171 162.155 203.533 161.765 204.003 161.488C204.483 161.211 205.064 161.072 205.747 161.072V162.576H205.363C203.731 162.576 202.915 163.461 202.915 165.232V170H201.459V161.232H202.915V162.656ZM215.427 165.28C215.427 165.557 215.411 165.851 215.379 166.16H208.371C208.425 167.024 208.718 167.701 209.251 168.192C209.795 168.672 210.451 168.912 211.219 168.912C211.849 168.912 212.371 168.768 212.787 168.48C213.214 168.181 213.513 167.787 213.683 167.296H215.251C215.017 168.139 214.547 168.827 213.843 169.36C213.139 169.883 212.265 170.144 211.219 170.144C210.387 170.144 209.641 169.957 208.979 169.584C208.329 169.211 207.817 168.683 207.443 168C207.07 167.307 206.883 166.507 206.883 165.6C206.883 164.693 207.065 163.899 207.427 163.216C207.79 162.533 208.297 162.011 208.947 161.648C209.609 161.275 210.366 161.088 211.219 161.088C212.051 161.088 212.787 161.269 213.427 161.632C214.067 161.995 214.558 162.496 214.899 163.136C215.251 163.765 215.427 164.48 215.427 165.28ZM213.923 164.976C213.923 164.421 213.801 163.947 213.555 163.552C213.31 163.147 212.974 162.843 212.547 162.64C212.131 162.427 211.667 162.32 211.155 162.32C210.419 162.32 209.79 162.555 209.267 163.024C208.755 163.493 208.462 164.144 208.387 164.976H213.923ZM225.183 162.432H223.343V170H221.887V162.432H220.751V161.232H221.887V160.608C221.887 159.627 222.137 158.912 222.639 158.464C223.151 158.005 223.967 157.776 225.087 157.776V158.992C224.447 158.992 223.993 159.12 223.727 159.376C223.471 159.621 223.343 160.032 223.343 160.608V161.232H225.183V162.432ZM230.704 170.144C229.883 170.144 229.136 169.957 228.464 169.584C227.803 169.211 227.28 168.683 226.896 168C226.523 167.307 226.336 166.507 226.336 165.6C226.336 164.704 226.528 163.915 226.912 163.232C227.307 162.539 227.84 162.011 228.512 161.648C229.184 161.275 229.936 161.088 230.768 161.088C231.6 161.088 232.352 161.275 233.024 161.648C233.696 162.011 234.224 162.533 234.608 163.216C235.003 163.899 235.2 164.693 235.2 165.6C235.2 166.507 234.998 167.307 234.592 168C234.198 168.683 233.659 169.211 232.976 169.584C232.294 169.957 231.536 170.144 230.704 170.144ZM230.704 168.864C231.227 168.864 231.718 168.741 232.176 168.496C232.635 168.251 233.003 167.883 233.28 167.392C233.568 166.901 233.712 166.304 233.712 165.6C233.712 164.896 233.574 164.299 233.296 163.808C233.019 163.317 232.656 162.955 232.208 162.72C231.76 162.475 231.275 162.352 230.752 162.352C230.219 162.352 229.728 162.475 229.28 162.72C228.843 162.955 228.491 163.317 228.224 163.808C227.958 164.299 227.824 164.896 227.824 165.6C227.824 166.315 227.952 166.917 228.208 167.408C228.475 167.899 228.827 168.267 229.264 168.512C229.702 168.747 230.182 168.864 230.704 168.864ZM238.571 162.656C238.827 162.155 239.189 161.765 239.659 161.488C240.139 161.211 240.72 161.072 241.403 161.072V162.576H241.019C239.387 162.576 238.571 163.461 238.571 165.232V170H237.115V161.232H238.571V162.656ZM250.917 162.432H249.077V170H247.621V162.432H246.485V161.232H247.621V160.608C247.621 159.627 247.872 158.912 248.373 158.464C248.885 158.005 249.701 157.776 250.821 157.776V158.992C250.181 158.992 249.728 159.12 249.461 159.376C249.205 159.621 249.077 160.032 249.077 160.608V161.232H250.917V162.432ZM252.071 165.584C252.071 164.688 252.252 163.904 252.615 163.232C252.977 162.549 253.473 162.021 254.103 161.648C254.743 161.275 255.452 161.088 256.231 161.088C256.999 161.088 257.665 161.253 258.231 161.584C258.796 161.915 259.217 162.331 259.495 162.832V161.232H260.967V170H259.495V168.368C259.207 168.88 258.775 169.307 258.199 169.648C257.633 169.979 256.972 170.144 256.215 170.144C255.436 170.144 254.732 169.952 254.103 169.568C253.473 169.184 252.977 168.645 252.615 167.952C252.252 167.259 252.071 166.469 252.071 165.584ZM259.495 165.6C259.495 164.939 259.361 164.363 259.095 163.872C258.828 163.381 258.465 163.008 258.007 162.752C257.559 162.485 257.063 162.352 256.519 162.352C255.975 162.352 255.479 162.48 255.031 162.736C254.583 162.992 254.225 163.365 253.959 163.856C253.692 164.347 253.559 164.923 253.559 165.584C253.559 166.256 253.692 166.843 253.959 167.344C254.225 167.835 254.583 168.213 255.031 168.48C255.479 168.736 255.975 168.864 256.519 168.864C257.063 168.864 257.559 168.736 258.007 168.48C258.465 168.213 258.828 167.835 259.095 167.344C259.361 166.843 259.495 166.261 259.495 165.6ZM262.883 165.6C262.883 164.693 263.065 163.904 263.427 163.232C263.79 162.549 264.291 162.021 264.931 161.648C265.582 161.275 266.323 161.088 267.155 161.088C268.233 161.088 269.118 161.349 269.811 161.872C270.515 162.395 270.979 163.12 271.203 164.048H269.635C269.486 163.515 269.193 163.093 268.755 162.784C268.329 162.475 267.795 162.32 267.155 162.32C266.323 162.32 265.651 162.608 265.139 163.184C264.627 163.749 264.371 164.555 264.371 165.6C264.371 166.656 264.627 167.472 265.139 168.048C265.651 168.624 266.323 168.912 267.155 168.912C267.795 168.912 268.329 168.763 268.755 168.464C269.182 168.165 269.475 167.739 269.635 167.184H271.203C270.969 168.08 270.499 168.8 269.795 169.344C269.091 169.877 268.211 170.144 267.155 170.144C266.323 170.144 265.582 169.957 264.931 169.584C264.291 169.211 263.79 168.683 263.427 168C263.065 167.317 262.883 166.517 262.883 165.6ZM273.898 159.808C273.621 159.808 273.386 159.712 273.194 159.52C273.002 159.328 272.906 159.093 272.906 158.816C272.906 158.539 273.002 158.304 273.194 158.112C273.386 157.92 273.621 157.824 273.898 157.824C274.165 157.824 274.389 157.92 274.57 158.112C274.762 158.304 274.858 158.539 274.858 158.816C274.858 159.093 274.762 159.328 274.57 159.52C274.389 159.712 274.165 159.808 273.898 159.808ZM274.602 161.232V170H273.146V161.232H274.602ZM276.54 165.584C276.54 164.688 276.721 163.904 277.084 163.232C277.446 162.549 277.942 162.021 278.572 161.648C279.212 161.275 279.921 161.088 280.7 161.088C281.468 161.088 282.134 161.253 282.7 161.584C283.265 161.915 283.686 162.331 283.964 162.832V161.232H285.436V170H283.964V168.368C283.676 168.88 283.244 169.307 282.668 169.648C282.102 169.979 281.441 170.144 280.684 170.144C279.905 170.144 279.201 169.952 278.572 169.568C277.942 169.184 277.446 168.645 277.084 167.952C276.721 167.259 276.54 166.469 276.54 165.584ZM283.964 165.6C283.964 164.939 283.83 164.363 283.564 163.872C283.297 163.381 282.934 163.008 282.476 162.752C282.028 162.485 281.532 162.352 280.988 162.352C280.444 162.352 279.948 162.48 279.5 162.736C279.052 162.992 278.694 163.365 278.428 163.856C278.161 164.347 278.028 164.923 278.028 165.584C278.028 166.256 278.161 166.843 278.428 167.344C278.694 167.835 279.052 168.213 279.5 168.48C279.948 168.736 280.444 168.864 280.988 168.864C281.532 168.864 282.028 168.736 282.476 168.48C282.934 168.213 283.297 167.835 283.564 167.344C283.83 166.843 283.964 166.261 283.964 165.6ZM289.352 158.16V170H287.896V158.16H289.352ZM76.8443 189.584C76.8443 188.688 77.0256 187.904 77.3883 187.232C77.7509 186.549 78.2469 186.021 78.8763 185.648C79.5163 185.275 80.2256 185.088 81.0043 185.088C81.7723 185.088 82.4389 185.253 83.0043 185.584C83.5696 185.915 83.9909 186.331 84.2683 186.832V185.232H85.7403V194H84.2683V192.368C83.9803 192.88 83.5483 193.307 82.9723 193.648C82.4069 193.979 81.7456 194.144 80.9883 194.144C80.2096 194.144 79.5056 193.952 78.8763 193.568C78.2469 193.184 77.7509 192.645 77.3883 191.952C77.0256 191.259 76.8443 190.469 76.8443 189.584ZM84.2683 189.6C84.2683 188.939 84.1349 188.363 83.8683 187.872C83.6016 187.381 83.2389 187.008 82.7803 186.752C82.3323 186.485 81.8363 186.352 81.2923 186.352C80.7483 186.352 80.2523 186.48 79.8043 186.736C79.3563 186.992 78.9989 187.365 78.7323 187.856C78.4656 188.347 78.3323 188.923 78.3323 189.584C78.3323 190.256 78.4656 190.843 78.7323 191.344C78.9989 191.835 79.3563 192.213 79.8043 192.48C80.2523 192.736 80.7483 192.864 81.2923 192.864C81.8363 192.864 82.3323 192.736 82.7803 192.48C83.2389 192.213 83.6016 191.835 83.8683 191.344C84.1349 190.843 84.2683 190.261 84.2683 189.6ZM92.4728 185.072C93.5394 185.072 94.4034 185.397 95.0648 186.048C95.7261 186.688 96.0568 187.616 96.0568 188.832V194H94.6168V189.04C94.6168 188.165 94.3981 187.499 93.9608 187.04C93.5234 186.571 92.9261 186.336 92.1688 186.336C91.4008 186.336 90.7874 186.576 90.3288 187.056C89.8808 187.536 89.6568 188.235 89.6568 189.152V194H88.2008V185.232H89.6568V186.48C89.9448 186.032 90.3341 185.685 90.8248 185.44C91.3261 185.195 91.8754 185.072 92.4728 185.072ZM97.8911 189.584C97.8911 188.688 98.0725 187.904 98.4351 187.232C98.7978 186.549 99.2938 186.021 99.9231 185.648C100.563 185.275 101.278 185.088 102.067 185.088C102.75 185.088 103.384 185.248 103.971 185.568C104.558 185.877 105.006 186.288 105.315 186.8V182.16H106.787V194H105.315V192.352C105.027 192.875 104.6 193.307 104.035 193.648C103.47 193.979 102.808 194.144 102.051 194.144C101.272 194.144 100.563 193.952 99.9231 193.568C99.2938 193.184 98.7978 192.645 98.4351 191.952C98.0725 191.259 97.8911 190.469 97.8911 189.584ZM105.315 189.6C105.315 188.939 105.182 188.363 104.915 187.872C104.648 187.381 104.286 187.008 103.827 186.752C103.379 186.485 102.883 186.352 102.339 186.352C101.795 186.352 101.299 186.48 100.851 186.736C100.403 186.992 100.046 187.365 99.7791 187.856C99.5125 188.347 99.3791 188.923 99.3791 189.584C99.3791 190.256 99.5125 190.843 99.7791 191.344C100.046 191.835 100.403 192.213 100.851 192.48C101.299 192.736 101.795 192.864 102.339 192.864C102.883 192.864 103.379 192.736 103.827 192.48C104.286 192.213 104.648 191.835 104.915 191.344C105.182 190.843 105.315 190.261 105.315 189.6ZM114.297 183.808C114.02 183.808 113.785 183.712 113.593 183.52C113.412 183.328 113.321 183.093 113.321 182.816C113.321 182.539 113.412 182.304 113.593 182.112C113.785 181.92 114.02 181.824 114.297 181.824C114.575 181.824 114.804 181.92 114.985 182.112C115.177 182.304 115.273 182.539 115.273 182.816C115.273 183.093 115.177 183.328 114.985 183.52C114.804 183.712 114.575 183.808 114.297 183.808ZM115.017 195.904C115.017 196.683 114.82 197.253 114.425 197.616C114.031 197.979 113.455 198.16 112.697 198.16H111.849V196.928H112.457C112.863 196.928 113.145 196.848 113.305 196.688C113.476 196.528 113.561 196.256 113.561 195.872V185.232H115.017V195.904ZM116.938 189.584C116.938 188.688 117.119 187.904 117.482 187.232C117.845 186.549 118.341 186.021 118.97 185.648C119.61 185.275 120.319 185.088 121.098 185.088C121.866 185.088 122.533 185.253 123.098 185.584C123.663 185.915 124.085 186.331 124.362 186.832V185.232H125.834V194H124.362V192.368C124.074 192.88 123.642 193.307 123.066 193.648C122.501 193.979 121.839 194.144 121.082 194.144C120.303 194.144 119.599 193.952 118.97 193.568C118.341 193.184 117.845 192.645 117.482 191.952C117.119 191.259 116.938 190.469 116.938 189.584ZM124.362 189.6C124.362 188.939 124.229 188.363 123.962 187.872C123.695 187.381 123.333 187.008 122.874 186.752C122.426 186.485 121.93 186.352 121.386 186.352C120.842 186.352 120.346 186.48 119.898 186.736C119.45 186.992 119.093 187.365 118.826 187.856C118.559 188.347 118.426 188.923 118.426 189.584C118.426 190.256 118.559 190.843 118.826 191.344C119.093 191.835 119.45 192.213 119.898 192.48C120.346 192.736 120.842 192.864 121.386 192.864C121.93 192.864 122.426 192.736 122.874 192.48C123.333 192.213 123.695 191.835 123.962 191.344C124.229 190.843 124.362 190.261 124.362 189.6ZM139.975 185.232L137.239 194H135.735L133.623 187.04L131.511 194H130.007L127.255 185.232H128.743L130.759 192.592L132.935 185.232H134.423L136.551 192.608L138.535 185.232H139.975ZM145.141 189.6C145.141 188.693 145.322 187.904 145.685 187.232C146.048 186.549 146.549 186.021 147.189 185.648C147.84 185.275 148.581 185.088 149.413 185.088C150.49 185.088 151.376 185.349 152.069 185.872C152.773 186.395 153.237 187.12 153.461 188.048H151.893C151.744 187.515 151.45 187.093 151.013 186.784C150.586 186.475 150.053 186.32 149.413 186.32C148.581 186.32 147.909 186.608 147.397 187.184C146.885 187.749 146.629 188.555 146.629 189.6C146.629 190.656 146.885 191.472 147.397 192.048C147.909 192.624 148.581 192.912 149.413 192.912C150.053 192.912 150.586 192.763 151.013 192.464C151.44 192.165 151.733 191.739 151.893 191.184H153.461C153.226 192.08 152.757 192.8 152.053 193.344C151.349 193.877 150.469 194.144 149.413 194.144C148.581 194.144 147.84 193.957 147.189 193.584C146.549 193.211 146.048 192.683 145.685 192C145.322 191.317 145.141 190.517 145.141 189.6ZM159.228 194.144C158.407 194.144 157.66 193.957 156.988 193.584C156.327 193.211 155.804 192.683 155.42 192C155.047 191.307 154.86 190.507 154.86 189.6C154.86 188.704 155.052 187.915 155.436 187.232C155.831 186.539 156.364 186.011 157.036 185.648C157.708 185.275 158.46 185.088 159.292 185.088C160.124 185.088 160.876 185.275 161.548 185.648C162.22 186.011 162.748 186.533 163.132 187.216C163.527 187.899 163.724 188.693 163.724 189.6C163.724 190.507 163.521 191.307 163.116 192C162.721 192.683 162.183 193.211 161.5 193.584C160.817 193.957 160.06 194.144 159.228 194.144ZM159.228 192.864C159.751 192.864 160.241 192.741 160.7 192.496C161.159 192.251 161.527 191.883 161.804 191.392C162.092 190.901 162.236 190.304 162.236 189.6C162.236 188.896 162.097 188.299 161.82 187.808C161.543 187.317 161.18 186.955 160.732 186.72C160.284 186.475 159.799 186.352 159.276 186.352C158.743 186.352 158.252 186.475 157.804 186.72C157.367 186.955 157.015 187.317 156.748 187.808C156.481 188.299 156.348 188.896 156.348 189.6C156.348 190.315 156.476 190.917 156.732 191.408C156.999 191.899 157.351 192.267 157.788 192.512C158.225 192.747 158.705 192.864 159.228 192.864ZM169.91 185.072C170.977 185.072 171.841 185.397 172.502 186.048C173.164 186.688 173.494 187.616 173.494 188.832V194H172.054V189.04C172.054 188.165 171.836 187.499 171.398 187.04C170.961 186.571 170.364 186.336 169.606 186.336C168.838 186.336 168.225 186.576 167.766 187.056C167.318 187.536 167.094 188.235 167.094 189.152V194H165.638V185.232H167.094V186.48C167.382 186.032 167.772 185.685 168.262 185.44C168.764 185.195 169.313 185.072 169.91 185.072ZM175.329 189.584C175.329 188.688 175.51 187.904 175.873 187.232C176.235 186.549 176.731 186.021 177.361 185.648C178.001 185.275 178.715 185.088 179.505 185.088C180.187 185.088 180.822 185.248 181.409 185.568C181.995 185.877 182.443 186.288 182.753 186.8V182.16H184.225V194H182.753V192.352C182.465 192.875 182.038 193.307 181.473 193.648C180.907 193.979 180.246 194.144 179.489 194.144C178.71 194.144 178.001 193.952 177.361 193.568C176.731 193.184 176.235 192.645 175.873 191.952C175.51 191.259 175.329 190.469 175.329 189.584ZM182.753 189.6C182.753 188.939 182.619 188.363 182.353 187.872C182.086 187.381 181.723 187.008 181.265 186.752C180.817 186.485 180.321 186.352 179.777 186.352C179.233 186.352 178.737 186.48 178.289 186.736C177.841 186.992 177.483 187.365 177.217 187.856C176.95 188.347 176.817 188.923 176.817 189.584C176.817 190.256 176.95 190.843 177.217 191.344C177.483 191.835 177.841 192.213 178.289 192.48C178.737 192.736 179.233 192.864 179.777 192.864C180.321 192.864 180.817 192.736 181.265 192.48C181.723 192.213 182.086 191.835 182.353 191.344C182.619 190.843 182.753 190.261 182.753 189.6ZM187.437 183.808C187.16 183.808 186.925 183.712 186.733 183.52C186.541 183.328 186.445 183.093 186.445 182.816C186.445 182.539 186.541 182.304 186.733 182.112C186.925 181.92 187.16 181.824 187.437 181.824C187.704 181.824 187.928 181.92 188.109 182.112C188.301 182.304 188.397 182.539 188.397 182.816C188.397 183.093 188.301 183.328 188.109 183.52C187.928 183.712 187.704 183.808 187.437 183.808ZM188.141 185.232V194H186.685V185.232H188.141ZM192.399 186.432V191.6C192.399 192.027 192.489 192.331 192.671 192.512C192.852 192.683 193.167 192.768 193.615 192.768H194.687V194H193.375C192.564 194 191.956 193.813 191.551 193.44C191.145 193.067 190.943 192.453 190.943 191.6V186.432H189.807V185.232H190.943V183.024H192.399V185.232H194.687V186.432H192.399ZM197.203 183.808C196.925 183.808 196.691 183.712 196.499 183.52C196.307 183.328 196.211 183.093 196.211 182.816C196.211 182.539 196.307 182.304 196.499 182.112C196.691 181.92 196.925 181.824 197.203 181.824C197.469 181.824 197.693 181.92 197.875 182.112C198.067 182.304 198.163 182.539 198.163 182.816C198.163 183.093 198.067 183.328 197.875 183.52C197.693 183.712 197.469 183.808 197.203 183.808ZM197.907 185.232V194H196.451V185.232H197.907ZM204.212 194.144C203.391 194.144 202.644 193.957 201.972 193.584C201.311 193.211 200.788 192.683 200.404 192C200.031 191.307 199.844 190.507 199.844 189.6C199.844 188.704 200.036 187.915 200.42 187.232C200.815 186.539 201.348 186.011 202.02 185.648C202.692 185.275 203.444 185.088 204.276 185.088C205.108 185.088 205.86 185.275 206.532 185.648C207.204 186.011 207.732 186.533 208.116 187.216C208.511 187.899 208.708 188.693 208.708 189.6C208.708 190.507 208.506 191.307 208.1 192C207.706 192.683 207.167 193.211 206.484 193.584C205.802 193.957 205.044 194.144 204.212 194.144ZM204.212 192.864C204.735 192.864 205.226 192.741 205.684 192.496C206.143 192.251 206.511 191.883 206.788 191.392C207.076 190.901 207.22 190.304 207.22 189.6C207.22 188.896 207.082 188.299 206.804 187.808C206.527 187.317 206.164 186.955 205.716 186.72C205.268 186.475 204.783 186.352 204.26 186.352C203.727 186.352 203.236 186.475 202.788 186.72C202.351 186.955 201.999 187.317 201.732 187.808C201.466 188.299 201.332 188.896 201.332 189.6C201.332 190.315 201.46 190.917 201.716 191.408C201.983 191.899 202.335 192.267 202.772 192.512C203.21 192.747 203.69 192.864 204.212 192.864ZM214.895 185.072C215.961 185.072 216.825 185.397 217.487 186.048C218.148 186.688 218.479 187.616 218.479 188.832V194H217.039V189.04C217.039 188.165 216.82 187.499 216.383 187.04C215.945 186.571 215.348 186.336 214.591 186.336C213.823 186.336 213.209 186.576 212.751 187.056C212.303 187.536 212.079 188.235 212.079 189.152V194H210.623V185.232H212.079V186.48C212.367 186.032 212.756 185.685 213.247 185.44C213.748 185.195 214.297 185.072 214.895 185.072ZM223.961 194.144C223.289 194.144 222.686 194.032 222.153 193.808C221.62 193.573 221.198 193.253 220.889 192.848C220.58 192.432 220.409 191.957 220.377 191.424H221.881C221.924 191.861 222.126 192.219 222.489 192.496C222.862 192.773 223.348 192.912 223.945 192.912C224.5 192.912 224.937 192.789 225.257 192.544C225.577 192.299 225.737 191.989 225.737 191.616C225.737 191.232 225.566 190.949 225.225 190.768C224.884 190.576 224.356 190.389 223.641 190.208C222.99 190.037 222.457 189.867 222.041 189.696C221.636 189.515 221.284 189.253 220.985 188.912C220.697 188.56 220.553 188.101 220.553 187.536C220.553 187.088 220.686 186.677 220.953 186.304C221.22 185.931 221.598 185.637 222.089 185.424C222.58 185.2 223.14 185.088 223.769 185.088C224.74 185.088 225.524 185.333 226.121 185.824C226.718 186.315 227.038 186.987 227.081 187.84H225.625C225.593 187.381 225.406 187.013 225.065 186.736C224.734 186.459 224.286 186.32 223.721 186.32C223.198 186.32 222.782 186.432 222.473 186.656C222.164 186.88 222.009 187.173 222.009 187.536C222.009 187.824 222.1 188.064 222.281 188.256C222.473 188.437 222.708 188.587 222.985 188.704C223.273 188.811 223.668 188.933 224.169 189.072C224.798 189.243 225.31 189.413 225.705 189.584C226.1 189.744 226.436 189.989 226.713 190.32C227.001 190.651 227.15 191.083 227.161 191.616C227.161 192.096 227.028 192.528 226.761 192.912C226.494 193.296 226.116 193.6 225.625 193.824C225.145 194.037 224.59 194.144 223.961 194.144ZM229.68 194.096C229.403 194.096 229.168 194 228.976 193.808C228.784 193.616 228.688 193.381 228.688 193.104C228.688 192.827 228.784 192.592 228.976 192.4C229.168 192.208 229.403 192.112 229.68 192.112C229.947 192.112 230.171 192.208 230.352 192.4C230.544 192.592 230.64 192.827 230.64 193.104C230.64 193.381 230.544 193.616 230.352 193.808C230.171 194 229.947 194.096 229.68 194.096Z" fill="#FFF4ED"/>
</svg>
