<svg width="307" height="176" viewBox="0 0 307 176" fill="none" xmlns="http://www.w3.org/2000/svg">
<path d="M54.07 14.288C53.686 13.584 53.158 13.048 52.486 12.68C51.814 12.312 51.03 12.128 50.134 12.128C49.142 12.128 48.262 12.352 47.494 12.8C46.726 13.248 46.126 13.888 45.694 14.72C45.262 15.552 45.046 16.512 45.046 17.6C45.046 18.72 45.262 19.696 45.694 20.528C46.142 21.36 46.758 22 47.542 22.448C48.326 22.896 49.238 23.12 50.278 23.12C51.558 23.12 52.606 22.784 53.422 22.112C54.238 21.424 54.774 20.472 55.03 19.256H49.27V16.688H58.342V19.616C58.118 20.784 57.638 21.864 56.902 22.856C56.166 23.848 55.214 24.648 54.046 25.256C52.894 25.848 51.598 26.144 50.158 26.144C48.542 26.144 47.078 25.784 45.766 25.064C44.47 24.328 43.446 23.312 42.694 22.016C41.958 20.72 41.59 19.248 41.59 17.6C41.59 15.952 41.958 14.48 42.694 13.184C43.446 11.872 44.47 10.856 45.766 10.136C47.078 9.4 48.534 9.032 50.134 9.032C52.022 9.032 53.662 9.496 55.054 10.424C56.446 11.336 57.406 12.624 57.934 14.288H54.07ZM73.1879 19.064C73.1879 19.544 73.1559 19.976 73.0919 20.36H63.3719C63.4519 21.32 63.7879 22.072 64.3799 22.616C64.9719 23.16 65.6999 23.432 66.5639 23.432C67.8119 23.432 68.6999 22.896 69.2279 21.824H72.8519C72.4679 23.104 71.7319 24.16 70.6439 24.992C69.5559 25.808 68.2199 26.216 66.6359 26.216C65.3559 26.216 64.2039 25.936 63.1799 25.376C62.1719 24.8 61.3799 23.992 60.8039 22.952C60.2439 21.912 59.9639 20.712 59.9639 19.352C59.9639 17.976 60.2439 16.768 60.8039 15.728C61.3639 14.688 62.1479 13.888 63.1559 13.328C64.1639 12.768 65.3239 12.488 66.6359 12.488C67.8999 12.488 69.0279 12.76 70.0199 13.304C71.0279 13.848 71.8039 14.624 72.3479 15.632C72.9079 16.624 73.1879 17.768 73.1879 19.064ZM69.7079 18.104C69.6919 17.24 69.3799 16.552 68.7719 16.04C68.1639 15.512 67.4199 15.248 66.5399 15.248C65.7079 15.248 65.0039 15.504 64.4279 16.016C63.8679 16.512 63.5239 17.208 63.3959 18.104H69.7079ZM83.0084 12.512C84.5924 12.512 85.8724 13.016 86.8484 14.024C87.8244 15.016 88.3124 16.408 88.3124 18.2V26H84.9524V18.656C84.9524 17.6 84.6884 16.792 84.1604 16.232C83.6324 15.656 82.9124 15.368 82.0004 15.368C81.0724 15.368 80.3364 15.656 79.7924 16.232C79.2644 16.792 79.0004 17.6 79.0004 18.656V26H75.6404V12.704H79.0004V14.36C79.4484 13.784 80.0164 13.336 80.7044 13.016C81.4084 12.68 82.1764 12.512 83.0084 12.512ZM103.868 19.064C103.868 19.544 103.836 19.976 103.772 20.36H94.0516C94.1316 21.32 94.4676 22.072 95.0596 22.616C95.6516 23.16 96.3796 23.432 97.2436 23.432C98.4916 23.432 99.3796 22.896 99.9076 21.824H103.532C103.148 23.104 102.412 24.16 101.324 24.992C100.236 25.808 98.8996 26.216 97.3156 26.216C96.0356 26.216 94.8836 25.936 93.8596 25.376C92.8516 24.8 92.0596 23.992 91.4836 22.952C90.9236 21.912 90.6436 20.712 90.6436 19.352C90.6436 17.976 90.9236 16.768 91.4836 15.728C92.0436 14.688 92.8276 13.888 93.8356 13.328C94.8436 12.768 96.0036 12.488 97.3156 12.488C98.5796 12.488 99.7076 12.76 100.7 13.304C101.708 13.848 102.484 14.624 103.028 15.632C103.588 16.624 103.868 17.768 103.868 19.064ZM100.388 18.104C100.372 17.24 100.06 16.552 99.4516 16.04C98.8436 15.512 98.0996 15.248 97.2196 15.248C96.3876 15.248 95.6836 15.504 95.1076 16.016C94.5476 16.512 94.2036 17.208 94.0756 18.104H100.388ZM109.68 14.768C110.112 14.064 110.672 13.512 111.36 13.112C112.064 12.712 112.864 12.512 113.76 12.512V16.04H112.872C111.816 16.04 111.016 16.288 110.472 16.784C109.944 17.28 109.68 18.144 109.68 19.376V26H106.32V12.704H109.68V14.768ZM115.159 19.304C115.159 17.96 115.423 16.768 115.951 15.728C116.495 14.688 117.223 13.888 118.135 13.328C119.063 12.768 120.095 12.488 121.231 12.488C122.223 12.488 123.087 12.688 123.823 13.088C124.575 13.488 125.175 13.992 125.623 14.6V12.704H129.007V26H125.623V24.056C125.191 24.68 124.591 25.2 123.823 25.616C123.071 26.016 122.199 26.216 121.207 26.216C120.087 26.216 119.063 25.928 118.135 25.352C117.223 24.776 116.495 23.968 115.951 22.928C115.423 21.872 115.159 20.664 115.159 19.304ZM125.623 19.352C125.623 18.536 125.463 17.84 125.143 17.264C124.823 16.672 124.391 16.224 123.847 15.92C123.303 15.6 122.719 15.44 122.095 15.44C121.471 15.44 120.895 15.592 120.367 15.896C119.839 16.2 119.407 16.648 119.071 17.24C118.751 17.816 118.591 18.504 118.591 19.304C118.591 20.104 118.751 20.808 119.071 21.416C119.407 22.008 119.839 22.464 120.367 22.784C120.911 23.104 121.487 23.264 122.095 23.264C122.719 23.264 123.303 23.112 123.847 22.808C124.391 22.488 124.823 22.04 125.143 21.464C125.463 20.872 125.623 20.168 125.623 19.352ZM135.649 8.24V26H132.289V8.24H135.649ZM156.903 14.432C156.903 15.328 156.687 16.168 156.255 16.952C155.839 17.736 155.175 18.368 154.263 18.848C153.367 19.328 152.231 19.568 150.855 19.568H148.047V26H144.687V9.248H150.855C152.151 9.248 153.255 9.472 154.167 9.92C155.079 10.368 155.759 10.984 156.207 11.768C156.671 12.552 156.903 13.44 156.903 14.432ZM150.711 16.856C151.639 16.856 152.327 16.648 152.775 16.232C153.223 15.8 153.447 15.2 153.447 14.432C153.447 12.8 152.535 11.984 150.711 11.984H148.047V16.856H150.711ZM171.649 19.064C171.649 19.544 171.617 19.976 171.553 20.36H161.833C161.913 21.32 162.249 22.072 162.841 22.616C163.433 23.16 164.161 23.432 165.025 23.432C166.273 23.432 167.161 22.896 167.689 21.824H171.313C170.929 23.104 170.193 24.16 169.105 24.992C168.017 25.808 166.681 26.216 165.097 26.216C163.817 26.216 162.665 25.936 161.641 25.376C160.633 24.8 159.841 23.992 159.265 22.952C158.705 21.912 158.425 20.712 158.425 19.352C158.425 17.976 158.705 16.768 159.265 15.728C159.825 14.688 160.609 13.888 161.617 13.328C162.625 12.768 163.785 12.488 165.097 12.488C166.361 12.488 167.489 12.76 168.481 13.304C169.489 13.848 170.265 14.624 170.809 15.632C171.369 16.624 171.649 17.768 171.649 19.064ZM168.169 18.104C168.153 17.24 167.841 16.552 167.233 16.04C166.625 15.512 165.881 15.248 165.001 15.248C164.169 15.248 163.465 15.504 162.889 16.016C162.329 16.512 161.985 17.208 161.857 18.104H168.169ZM173.237 19.304C173.237 17.96 173.501 16.768 174.029 15.728C174.573 14.688 175.309 13.888 176.237 13.328C177.165 12.768 178.197 12.488 179.333 12.488C180.197 12.488 181.021 12.68 181.805 13.064C182.589 13.432 183.213 13.928 183.677 14.552V8.24H187.085V26H183.677V24.032C183.261 24.688 182.677 25.216 181.925 25.616C181.173 26.016 180.301 26.216 179.309 26.216C178.189 26.216 177.165 25.928 176.237 25.352C175.309 24.776 174.573 23.968 174.029 22.928C173.501 21.872 173.237 20.664 173.237 19.304ZM183.701 19.352C183.701 18.536 183.541 17.84 183.221 17.264C182.901 16.672 182.469 16.224 181.925 15.92C181.381 15.6 180.797 15.44 180.173 15.44C179.549 15.44 178.973 15.592 178.445 15.896C177.917 16.2 177.485 16.648 177.149 17.24C176.829 17.816 176.669 18.504 176.669 19.304C176.669 20.104 176.829 20.808 177.149 21.416C177.485 22.008 177.917 22.464 178.445 22.784C178.989 23.104 179.565 23.264 180.173 23.264C180.797 23.264 181.381 23.112 181.925 22.808C182.469 22.488 182.901 22.04 183.221 21.464C183.541 20.872 183.701 20.168 183.701 19.352ZM192.071 11.12C191.479 11.12 190.983 10.936 190.583 10.568C190.199 10.184 190.007 9.712 190.007 9.152C190.007 8.592 190.199 8.128 190.583 7.76C190.983 7.376 191.479 7.184 192.071 7.184C192.663 7.184 193.151 7.376 193.535 7.76C193.935 8.128 194.135 8.592 194.135 9.152C194.135 9.712 193.935 10.184 193.535 10.568C193.151 10.936 192.663 11.12 192.071 11.12ZM193.727 12.704V26H190.367V12.704H193.727ZM196.183 19.304C196.183 17.96 196.447 16.768 196.975 15.728C197.519 14.688 198.247 13.888 199.159 13.328C200.087 12.768 201.119 12.488 202.255 12.488C203.247 12.488 204.111 12.688 204.847 13.088C205.599 13.488 206.199 13.992 206.647 14.6V12.704H210.031V26H206.647V24.056C206.215 24.68 205.615 25.2 204.847 25.616C204.095 26.016 203.223 26.216 202.231 26.216C201.111 26.216 200.087 25.928 199.159 25.352C198.247 24.776 197.519 23.968 196.975 22.928C196.447 21.872 196.183 20.664 196.183 19.304ZM206.647 19.352C206.647 18.536 206.487 17.84 206.167 17.264C205.847 16.672 205.415 16.224 204.871 15.92C204.327 15.6 203.743 15.44 203.119 15.44C202.495 15.44 201.919 15.592 201.391 15.896C200.863 16.2 200.431 16.648 200.095 17.24C199.775 17.816 199.615 18.504 199.615 19.304C199.615 20.104 199.775 20.808 200.095 21.416C200.431 22.008 200.863 22.464 201.391 22.784C201.935 23.104 202.511 23.264 203.119 23.264C203.743 23.264 204.327 23.112 204.871 22.808C205.415 22.488 205.847 22.04 206.167 21.464C206.487 20.872 206.647 20.168 206.647 19.352ZM217.224 15.464V21.896C217.224 22.344 217.328 22.672 217.536 22.88C217.76 23.072 218.128 23.168 218.64 23.168H220.2V26H218.088C215.256 26 213.84 24.624 213.84 21.872V15.464H212.256V12.704H213.84V9.416H217.224V12.704H220.2V15.464H217.224ZM225.977 14.768C226.409 14.064 226.969 13.512 227.657 13.112C228.361 12.712 229.161 12.512 230.057 12.512V16.04H229.169C228.113 16.04 227.313 16.288 226.769 16.784C226.241 17.28 225.977 18.144 225.977 19.376V26H222.617V12.704H225.977V14.768ZM234.024 11.12C233.432 11.12 232.936 10.936 232.536 10.568C232.152 10.184 231.96 9.712 231.96 9.152C231.96 8.592 232.152 8.128 232.536 7.76C232.936 7.376 233.432 7.184 234.024 7.184C234.616 7.184 235.104 7.376 235.488 7.76C235.888 8.128 236.088 8.592 236.088 9.152C236.088 9.712 235.888 10.184 235.488 10.568C235.104 10.936 234.616 11.12 234.024 11.12ZM235.68 12.704V26H232.32V12.704H235.68ZM238.136 19.352C238.136 17.976 238.416 16.776 238.976 15.752C239.536 14.712 240.312 13.912 241.304 13.352C242.296 12.776 243.432 12.488 244.712 12.488C246.36 12.488 247.72 12.904 248.792 13.736C249.88 14.552 250.608 15.704 250.976 17.192H247.352C247.16 16.616 246.832 16.168 246.368 15.848C245.92 15.512 245.36 15.344 244.688 15.344C243.728 15.344 242.968 15.696 242.408 16.4C241.848 17.088 241.568 18.072 241.568 19.352C241.568 20.616 241.848 21.6 242.408 22.304C242.968 22.992 243.728 23.336 244.688 23.336C246.048 23.336 246.936 22.728 247.352 21.512H250.976C250.608 22.952 249.88 24.096 248.792 24.944C247.704 25.792 246.344 26.216 244.712 26.216C243.432 26.216 242.296 25.936 241.304 25.376C240.312 24.8 239.536 24 238.976 22.976C238.416 21.936 238.136 20.728 238.136 19.352ZM258.525 26.216C257.437 26.216 256.461 26.024 255.597 25.64C254.733 25.24 254.045 24.704 253.533 24.032C253.037 23.36 252.765 22.616 252.717 21.8H256.101C256.165 22.312 256.413 22.736 256.845 23.072C257.293 23.408 257.845 23.576 258.501 23.576C259.141 23.576 259.637 23.448 259.989 23.192C260.357 22.936 260.541 22.608 260.541 22.208C260.541 21.776 260.317 21.456 259.869 21.248C259.437 21.024 258.741 20.784 257.781 20.528C256.789 20.288 255.973 20.04 255.333 19.784C254.709 19.528 254.165 19.136 253.701 18.608C253.253 18.08 253.029 17.368 253.029 16.472C253.029 15.736 253.237 15.064 253.653 14.456C254.085 13.848 254.693 13.368 255.477 13.016C256.277 12.664 257.213 12.488 258.285 12.488C259.869 12.488 261.133 12.888 262.077 13.688C263.021 14.472 263.541 15.536 263.637 16.88H260.421C260.373 16.352 260.149 15.936 259.749 15.632C259.365 15.312 258.845 15.152 258.189 15.152C257.581 15.152 257.109 15.264 256.773 15.488C256.453 15.712 256.293 16.024 256.293 16.424C256.293 16.872 256.517 17.216 256.965 17.456C257.413 17.68 258.109 17.912 259.053 18.152C260.013 18.392 260.805 18.64 261.429 18.896C262.053 19.152 262.589 19.552 263.037 20.096C263.501 20.624 263.741 21.328 263.757 22.208C263.757 22.976 263.541 23.664 263.109 24.272C262.693 24.88 262.085 25.36 261.285 25.712C260.501 26.048 259.581 26.216 258.525 26.216Z" fill="#FFF4ED"/>
<path d="M136.395 94.5518C150.059 94.5518 160.501 82.7248 158.377 69.6743V69.6739C158.377 69.6739 158.377 69.6735 158.377 69.6731C158.376 69.6712 158.376 69.6694 158.376 69.6675C158.375 69.6661 158.375 69.6647 158.375 69.6634C157.44 63.8864 154.165 58.8152 149.276 55.4673C148.727 49.0556 143.161 44 136.395 44C129.628 44 124.063 49.0556 123.513 55.4675C118.625 58.8152 115.349 63.8864 114.415 69.6634C114.415 69.6647 114.414 69.6661 114.414 69.6675C114.414 69.6694 114.413 69.6712 114.413 69.6731C114.413 69.6731 114.413 69.6735 114.413 69.6739V69.6743C112.287 82.7332 122.741 94.5518 136.395 94.5518ZM136.395 50.9894C139.541 50.9894 142.102 53.4662 142.102 56.5107C142.102 58.8734 140.54 60.9572 138.273 61.7238C137.079 62.0931 135.763 62.0984 134.566 61.7396C132.278 60.9884 130.688 58.8956 130.688 56.5107C130.688 53.4662 133.248 50.9894 136.395 50.9894ZM151.408 73.7071C151.034 81.4317 144.434 87.5623 136.395 87.5623C128.35 87.5623 121.757 81.4266 121.381 73.7071H151.408Z" fill="#FFF4ED"/>
<path d="M152.944 101.6C142.728 95.8802 130.08 95.8699 119.846 101.6C119.157 101.986 119.024 102.893 119.587 103.438L135.543 118.877C136.014 119.332 136.776 119.332 137.246 118.877L153.203 103.438C153.766 102.893 153.633 101.986 152.944 101.6Z" fill="#FFF4ED"/>
<path d="M115.43 106.007C114.971 105.562 114.229 105.549 113.755 105.978C107.294 111.834 103.25 120.157 103.25 129.378V140.462C103.25 142.392 104.867 143.957 106.862 143.957H132.783C133.447 143.957 133.987 143.435 133.987 142.792V124.444C133.987 124.135 133.86 123.838 133.634 123.62L115.43 106.007Z" fill="#FFF4ED"/>
<path d="M182.783 112.027C190.64 112.027 197.033 105.842 197.033 98.2396C197.033 90.6373 190.64 84.4521 182.783 84.4521C174.925 84.4521 168.533 90.6373 168.533 98.2396C168.533 105.842 174.925 112.027 182.783 112.027Z" fill="#FFF4ED"/>
<path d="M168.19 120.312C166.496 114.763 163.29 109.835 159.035 105.978C158.56 105.549 157.818 105.562 157.359 106.007L139.155 123.62C138.929 123.839 138.803 124.135 138.803 124.444V142.792C138.803 143.435 139.342 143.957 140.007 143.957C149.117 143.957 179.151 144 199.638 144C201.633 144 203.25 142.435 203.25 140.505V134.179C203.25 116.51 180.991 107.703 168.19 120.312Z" fill="#FFF4ED"/>
<path d="M29.2661 160.032V163.76H33.3301V164.96H29.2661V168.8H33.8101V170H27.8101V158.832H33.8101V160.032H29.2661ZM40.5893 170L38.5093 166.736L36.5093 170H34.9893L37.8213 165.648L34.9893 161.232H36.6373L38.7173 164.48L40.7013 161.232H42.2213L39.4053 165.568L42.2373 170H40.5893ZM45.1255 162.848C45.4135 162.347 45.8402 161.931 46.4055 161.6C46.9815 161.259 47.6482 161.088 48.4055 161.088C49.1842 161.088 49.8882 161.275 50.5175 161.648C51.1575 162.021 51.6588 162.549 52.0215 163.232C52.3842 163.904 52.5655 164.688 52.5655 165.584C52.5655 166.469 52.3842 167.259 52.0215 167.952C51.6588 168.645 51.1575 169.184 50.5175 169.568C49.8882 169.952 49.1842 170.144 48.4055 170.144C47.6588 170.144 46.9975 169.979 46.4215 169.648C45.8562 169.307 45.4242 168.885 45.1255 168.384V174.16H43.6695V161.232H45.1255V162.848ZM51.0775 165.584C51.0775 164.923 50.9442 164.347 50.6775 163.856C50.4108 163.365 50.0482 162.992 49.5895 162.736C49.1415 162.48 48.6455 162.352 48.1015 162.352C47.5682 162.352 47.0722 162.485 46.6135 162.752C46.1655 163.008 45.8028 163.387 45.5255 163.888C45.2588 164.379 45.1255 164.949 45.1255 165.6C45.1255 166.261 45.2588 166.843 45.5255 167.344C45.8028 167.835 46.1655 168.213 46.6135 168.48C47.0722 168.736 47.5682 168.864 48.1015 168.864C48.6455 168.864 49.1415 168.736 49.5895 168.48C50.0482 168.213 50.4108 167.835 50.6775 167.344C50.9442 166.843 51.0775 166.256 51.0775 165.584ZM62.482 165.28C62.482 165.557 62.466 165.851 62.434 166.16H55.426C55.4793 167.024 55.7727 167.701 56.306 168.192C56.85 168.672 57.506 168.912 58.274 168.912C58.9033 168.912 59.426 168.768 59.842 168.48C60.2687 168.181 60.5673 167.787 60.738 167.296H62.306C62.0713 168.139 61.602 168.827 60.898 169.36C60.194 169.883 59.3193 170.144 58.274 170.144C57.442 170.144 56.6953 169.957 56.034 169.584C55.3833 169.211 54.8713 168.683 54.498 168C54.1247 167.307 53.938 166.507 53.938 165.6C53.938 164.693 54.1193 163.899 54.482 163.216C54.8447 162.533 55.3513 162.011 56.002 161.648C56.6633 161.275 57.4207 161.088 58.274 161.088C59.106 161.088 59.842 161.269 60.482 161.632C61.122 161.995 61.6127 162.496 61.954 163.136C62.306 163.765 62.482 164.48 62.482 165.28ZM60.978 164.976C60.978 164.421 60.8553 163.947 60.61 163.552C60.3647 163.147 60.0287 162.843 59.602 162.64C59.186 162.427 58.722 162.32 58.21 162.32C57.474 162.32 56.8447 162.555 56.322 163.024C55.81 163.493 55.5167 164.144 55.442 164.976H60.978ZM65.8599 162.656C66.1159 162.155 66.4785 161.765 66.9479 161.488C67.4279 161.211 68.0092 161.072 68.6919 161.072V162.576H68.3079C66.6759 162.576 65.8599 163.461 65.8599 165.232V170H64.4039V161.232H65.8599V162.656ZM72.1486 162.432V167.6C72.1486 168.027 72.2393 168.331 72.4206 168.512C72.602 168.683 72.9166 168.768 73.3646 168.768H74.4366V170H73.1246C72.314 170 71.706 169.813 71.3006 169.44C70.8953 169.067 70.6926 168.453 70.6926 167.6V162.432H69.5566V161.232H70.6926V159.024H72.1486V161.232H74.4366V162.432H72.1486ZM79.9224 165.6C79.9224 164.693 80.1037 163.904 80.4664 163.232C80.829 162.549 81.3304 162.021 81.9704 161.648C82.621 161.275 83.3624 161.088 84.1944 161.088C85.2717 161.088 86.157 161.349 86.8504 161.872C87.5544 162.395 88.0184 163.12 88.2424 164.048H86.6744C86.525 163.515 86.2317 163.093 85.7944 162.784C85.3677 162.475 84.8344 162.32 84.1944 162.32C83.3624 162.32 82.6904 162.608 82.1784 163.184C81.6664 163.749 81.4104 164.555 81.4104 165.6C81.4104 166.656 81.6664 167.472 82.1784 168.048C82.6904 168.624 83.3624 168.912 84.1944 168.912C84.8344 168.912 85.3677 168.763 85.7944 168.464C86.221 168.165 86.5144 167.739 86.6744 167.184H88.2424C88.0077 168.08 87.5384 168.8 86.8344 169.344C86.1304 169.877 85.2504 170.144 84.1944 170.144C83.3624 170.144 82.621 169.957 81.9704 169.584C81.3304 169.211 80.829 168.683 80.4664 168C80.1037 167.317 79.9224 166.517 79.9224 165.6ZM89.6411 165.584C89.6411 164.688 89.8225 163.904 90.1851 163.232C90.5478 162.549 91.0438 162.021 91.6731 161.648C92.3131 161.275 93.0225 161.088 93.8011 161.088C94.5691 161.088 95.2358 161.253 95.8011 161.584C96.3665 161.915 96.7878 162.331 97.0651 162.832V161.232H98.5371V170H97.0651V168.368C96.7771 168.88 96.3451 169.307 95.7691 169.648C95.2038 169.979 94.5425 170.144 93.7851 170.144C93.0065 170.144 92.3025 169.952 91.6731 169.568C91.0438 169.184 90.5478 168.645 90.1851 167.952C89.8225 167.259 89.6411 166.469 89.6411 165.584ZM97.0651 165.6C97.0651 164.939 96.9318 164.363 96.6651 163.872C96.3985 163.381 96.0358 163.008 95.5771 162.752C95.1291 162.485 94.6331 162.352 94.0891 162.352C93.5451 162.352 93.0491 162.48 92.6011 162.736C92.1531 162.992 91.7958 163.365 91.5291 163.856C91.2625 164.347 91.1291 164.923 91.1291 165.584C91.1291 166.256 91.2625 166.843 91.5291 167.344C91.7958 167.835 92.1531 168.213 92.6011 168.48C93.0491 168.736 93.5451 168.864 94.0891 168.864C94.6331 168.864 95.1291 168.736 95.5771 168.48C96.0358 168.213 96.3985 167.835 96.6651 167.344C96.9318 166.843 97.0651 166.261 97.0651 165.6ZM102.454 162.656C102.71 162.155 103.072 161.765 103.542 161.488C104.022 161.211 104.603 161.072 105.286 161.072V162.576H104.902C103.27 162.576 102.454 163.461 102.454 165.232V170H100.998V161.232H102.454V162.656ZM114.966 165.28C114.966 165.557 114.95 165.851 114.918 166.16H107.91C107.964 167.024 108.257 167.701 108.79 168.192C109.334 168.672 109.99 168.912 110.758 168.912C111.388 168.912 111.91 168.768 112.326 168.48C112.753 168.181 113.052 167.787 113.222 167.296H114.79C114.556 168.139 114.086 168.827 113.382 169.36C112.678 169.883 111.804 170.144 110.758 170.144C109.926 170.144 109.18 169.957 108.518 169.584C107.868 169.211 107.356 168.683 106.982 168C106.609 167.307 106.422 166.507 106.422 165.6C106.422 164.693 106.604 163.899 106.966 163.216C107.329 162.533 107.836 162.011 108.486 161.648C109.148 161.275 109.905 161.088 110.758 161.088C111.59 161.088 112.326 161.269 112.966 161.632C113.606 161.995 114.097 162.496 114.438 163.136C114.79 163.765 114.966 164.48 114.966 165.28ZM113.462 164.976C113.462 164.421 113.34 163.947 113.094 163.552C112.849 163.147 112.513 162.843 112.086 162.64C111.67 162.427 111.206 162.32 110.694 162.32C109.958 162.32 109.329 162.555 108.806 163.024C108.294 163.493 108.001 164.144 107.926 164.976H113.462ZM124.722 162.432H122.882V170H121.426V162.432H120.29V161.232H121.426V160.608C121.426 159.627 121.677 158.912 122.178 158.464C122.69 158.005 123.506 157.776 124.626 157.776V158.992C123.986 158.992 123.533 159.12 123.266 159.376C123.01 159.621 122.882 160.032 122.882 160.608V161.232H124.722V162.432ZM130.244 170.144C129.422 170.144 128.676 169.957 128.004 169.584C127.342 169.211 126.82 168.683 126.436 168C126.062 167.307 125.876 166.507 125.876 165.6C125.876 164.704 126.068 163.915 126.452 163.232C126.846 162.539 127.38 162.011 128.052 161.648C128.724 161.275 129.476 161.088 130.308 161.088C131.14 161.088 131.892 161.275 132.564 161.648C133.236 162.011 133.764 162.533 134.148 163.216C134.542 163.899 134.74 164.693 134.74 165.6C134.74 166.507 134.537 167.307 134.132 168C133.737 168.683 133.198 169.211 132.516 169.584C131.833 169.957 131.076 170.144 130.244 170.144ZM130.244 168.864C130.766 168.864 131.257 168.741 131.716 168.496C132.174 168.251 132.542 167.883 132.82 167.392C133.108 166.901 133.252 166.304 133.252 165.6C133.252 164.896 133.113 164.299 132.836 163.808C132.558 163.317 132.196 162.955 131.748 162.72C131.3 162.475 130.814 162.352 130.292 162.352C129.758 162.352 129.268 162.475 128.82 162.72C128.382 162.955 128.03 163.317 127.764 163.808C127.497 164.299 127.364 164.896 127.364 165.6C127.364 166.315 127.492 166.917 127.748 167.408C128.014 167.899 128.366 168.267 128.804 168.512C129.241 168.747 129.721 168.864 130.244 168.864ZM138.11 162.656C138.366 162.155 138.729 161.765 139.198 161.488C139.678 161.211 140.259 161.072 140.942 161.072V162.576H140.558C138.926 162.576 138.11 163.461 138.11 165.232V170H136.654V161.232H138.11V162.656ZM146.344 165.6C146.344 164.693 146.526 163.904 146.888 163.232C147.251 162.549 147.752 162.021 148.392 161.648C149.043 161.275 149.784 161.088 150.616 161.088C151.694 161.088 152.579 161.349 153.272 161.872C153.976 162.395 154.44 163.12 154.664 164.048H153.096C152.947 163.515 152.654 163.093 152.216 162.784C151.79 162.475 151.256 162.32 150.616 162.32C149.784 162.32 149.112 162.608 148.6 163.184C148.088 163.749 147.832 164.555 147.832 165.6C147.832 166.656 148.088 167.472 148.6 168.048C149.112 168.624 149.784 168.912 150.616 168.912C151.256 168.912 151.79 168.763 152.216 168.464C152.643 168.165 152.936 167.739 153.096 167.184H154.664C154.43 168.08 153.96 168.8 153.256 169.344C152.552 169.877 151.672 170.144 150.616 170.144C149.784 170.144 149.043 169.957 148.392 169.584C147.752 169.211 147.251 168.683 146.888 168C146.526 167.317 146.344 166.517 146.344 165.6ZM160.959 161.072C161.62 161.072 162.218 161.216 162.751 161.504C163.284 161.781 163.7 162.203 163.999 162.768C164.308 163.333 164.463 164.021 164.463 164.832V170H163.023V165.04C163.023 164.165 162.804 163.499 162.367 163.04C161.93 162.571 161.332 162.336 160.575 162.336C159.807 162.336 159.194 162.576 158.735 163.056C158.287 163.536 158.063 164.235 158.063 165.152V170H156.607V158.16H158.063V162.48C158.351 162.032 158.746 161.685 159.247 161.44C159.759 161.195 160.33 161.072 160.959 161.072ZM167.593 159.808C167.316 159.808 167.081 159.712 166.889 159.52C166.697 159.328 166.601 159.093 166.601 158.816C166.601 158.539 166.697 158.304 166.889 158.112C167.081 157.92 167.316 157.824 167.593 157.824C167.86 157.824 168.084 157.92 168.265 158.112C168.457 158.304 168.553 158.539 168.553 158.816C168.553 159.093 168.457 159.328 168.265 159.52C168.084 159.712 167.86 159.808 167.593 159.808ZM168.297 161.232V170H166.841V161.232H168.297ZM172.235 158.16V170H170.779V158.16H172.235ZM174.172 165.584C174.172 164.688 174.354 163.904 174.716 163.232C175.079 162.549 175.575 162.021 176.204 161.648C176.844 161.275 177.559 161.088 178.348 161.088C179.031 161.088 179.666 161.248 180.252 161.568C180.839 161.877 181.287 162.288 181.596 162.8V158.16H183.068V170H181.596V168.352C181.308 168.875 180.882 169.307 180.316 169.648C179.751 169.979 179.09 170.144 178.332 170.144C177.554 170.144 176.844 169.952 176.204 169.568C175.575 169.184 175.079 168.645 174.716 167.952C174.354 167.259 174.172 166.469 174.172 165.584ZM181.596 165.6C181.596 164.939 181.463 164.363 181.196 163.872C180.93 163.381 180.567 163.008 180.108 162.752C179.66 162.485 179.164 162.352 178.62 162.352C178.076 162.352 177.58 162.48 177.132 162.736C176.684 162.992 176.327 163.365 176.06 163.856C175.794 164.347 175.66 164.923 175.66 165.584C175.66 166.256 175.794 166.843 176.06 167.344C176.327 167.835 176.684 168.213 177.132 168.48C177.58 168.736 178.076 168.864 178.62 168.864C179.164 168.864 179.66 168.736 180.108 168.48C180.567 168.213 180.93 167.835 181.196 167.344C181.463 166.843 181.596 166.261 181.596 165.6ZM186.985 162.656C187.241 162.155 187.604 161.765 188.073 161.488C188.553 161.211 189.134 161.072 189.817 161.072V162.576H189.433C187.801 162.576 186.985 163.461 186.985 165.232V170H185.529V161.232H186.985V162.656ZM199.498 165.28C199.498 165.557 199.482 165.851 199.45 166.16H192.442C192.495 167.024 192.788 167.701 193.322 168.192C193.866 168.672 194.522 168.912 195.29 168.912C195.919 168.912 196.442 168.768 196.858 168.48C197.284 168.181 197.583 167.787 197.754 167.296H199.322C199.087 168.139 198.618 168.827 197.914 169.36C197.21 169.883 196.335 170.144 195.29 170.144C194.458 170.144 193.711 169.957 193.05 169.584C192.399 169.211 191.887 168.683 191.514 168C191.14 167.307 190.954 166.507 190.954 165.6C190.954 164.693 191.135 163.899 191.498 163.216C191.86 162.533 192.367 162.011 193.018 161.648C193.679 161.275 194.436 161.088 195.29 161.088C196.122 161.088 196.858 161.269 197.498 161.632C198.138 161.995 198.628 162.496 198.97 163.136C199.322 163.765 199.498 164.48 199.498 165.28ZM197.994 164.976C197.994 164.421 197.871 163.947 197.626 163.552C197.38 163.147 197.044 162.843 196.618 162.64C196.202 162.427 195.738 162.32 195.226 162.32C194.49 162.32 193.86 162.555 193.338 163.024C192.826 163.493 192.532 164.144 192.458 164.976H197.994ZM205.692 161.072C206.758 161.072 207.622 161.397 208.284 162.048C208.945 162.688 209.276 163.616 209.276 164.832V170H207.836V165.04C207.836 164.165 207.617 163.499 207.18 163.04C206.742 162.571 206.145 162.336 205.388 162.336C204.62 162.336 204.006 162.576 203.548 163.056C203.1 163.536 202.876 164.235 202.876 165.152V170H201.42V161.232H202.876V162.48C203.164 162.032 203.553 161.685 204.044 161.44C204.545 161.195 205.094 161.072 205.692 161.072ZM212.39 157.264L212.198 160.448H211.19L210.982 157.264H212.39ZM217.305 170.144C216.633 170.144 216.03 170.032 215.497 169.808C214.963 169.573 214.542 169.253 214.233 168.848C213.923 168.432 213.753 167.957 213.721 167.424H215.225C215.267 167.861 215.47 168.219 215.833 168.496C216.206 168.773 216.691 168.912 217.289 168.912C217.843 168.912 218.281 168.789 218.601 168.544C218.921 168.299 219.081 167.989 219.081 167.616C219.081 167.232 218.91 166.949 218.569 166.768C218.227 166.576 217.699 166.389 216.985 166.208C216.334 166.037 215.801 165.867 215.385 165.696C214.979 165.515 214.627 165.253 214.329 164.912C214.041 164.56 213.897 164.101 213.897 163.536C213.897 163.088 214.03 162.677 214.297 162.304C214.563 161.931 214.942 161.637 215.433 161.424C215.923 161.2 216.483 161.088 217.113 161.088C218.083 161.088 218.867 161.333 219.465 161.824C220.062 162.315 220.382 162.987 220.425 163.84H218.969C218.937 163.381 218.75 163.013 218.409 162.736C218.078 162.459 217.63 162.32 217.065 162.32C216.542 162.32 216.126 162.432 215.817 162.656C215.507 162.88 215.353 163.173 215.353 163.536C215.353 163.824 215.443 164.064 215.625 164.256C215.817 164.437 216.051 164.587 216.329 164.704C216.617 164.811 217.011 164.933 217.513 165.072C218.142 165.243 218.654 165.413 219.049 165.584C219.443 165.744 219.779 165.989 220.057 166.32C220.345 166.651 220.494 167.083 220.505 167.616C220.505 168.096 220.371 168.528 220.105 168.912C219.838 169.296 219.459 169.6 218.969 169.824C218.489 170.037 217.934 170.144 217.305 170.144ZM231.178 161.072C231.839 161.072 232.436 161.216 232.97 161.504C233.503 161.781 233.919 162.203 234.218 162.768C234.527 163.333 234.682 164.021 234.682 164.832V170H233.242V165.04C233.242 164.165 233.023 163.499 232.586 163.04C232.148 162.571 231.551 162.336 230.794 162.336C230.026 162.336 229.412 162.576 228.954 163.056C228.506 163.536 228.282 164.235 228.282 165.152V170H226.826V158.16H228.282V162.48C228.57 162.032 228.964 161.685 229.466 161.44C229.978 161.195 230.548 161.072 231.178 161.072ZM245.06 165.28C245.06 165.557 245.044 165.851 245.012 166.16H238.004C238.057 167.024 238.351 167.701 238.884 168.192C239.428 168.672 240.084 168.912 240.852 168.912C241.481 168.912 242.004 168.768 242.42 168.48C242.847 168.181 243.145 167.787 243.316 167.296H244.884C244.649 168.139 244.18 168.827 243.476 169.36C242.772 169.883 241.897 170.144 240.852 170.144C240.02 170.144 239.273 169.957 238.612 169.584C237.961 169.211 237.449 168.683 237.076 168C236.703 167.307 236.516 166.507 236.516 165.6C236.516 164.693 236.697 163.899 237.06 163.216C237.423 162.533 237.929 162.011 238.58 161.648C239.241 161.275 239.999 161.088 240.852 161.088C241.684 161.088 242.42 161.269 243.06 161.632C243.7 161.995 244.191 162.496 244.532 163.136C244.884 163.765 245.06 164.48 245.06 165.28ZM243.556 164.976C243.556 164.421 243.433 163.947 243.188 163.552C242.943 163.147 242.607 162.843 242.18 162.64C241.764 162.427 241.3 162.32 240.788 162.32C240.052 162.32 239.423 162.555 238.9 163.024C238.388 163.493 238.095 164.144 238.02 164.976H243.556ZM246.438 165.584C246.438 164.688 246.619 163.904 246.982 163.232C247.345 162.549 247.841 162.021 248.47 161.648C249.11 161.275 249.819 161.088 250.598 161.088C251.366 161.088 252.033 161.253 252.598 161.584C253.163 161.915 253.585 162.331 253.862 162.832V161.232H255.334V170H253.862V168.368C253.574 168.88 253.142 169.307 252.566 169.648C252.001 169.979 251.339 170.144 250.582 170.144C249.803 170.144 249.099 169.952 248.47 169.568C247.841 169.184 247.345 168.645 246.982 167.952C246.619 167.259 246.438 166.469 246.438 165.584ZM253.862 165.6C253.862 164.939 253.729 164.363 253.462 163.872C253.195 163.381 252.833 163.008 252.374 162.752C251.926 162.485 251.43 162.352 250.886 162.352C250.342 162.352 249.846 162.48 249.398 162.736C248.95 162.992 248.593 163.365 248.326 163.856C248.059 164.347 247.926 164.923 247.926 165.584C247.926 166.256 248.059 166.843 248.326 167.344C248.593 167.835 248.95 168.213 249.398 168.48C249.846 168.736 250.342 168.864 250.886 168.864C251.43 168.864 251.926 168.736 252.374 168.48C252.833 168.213 253.195 167.835 253.462 167.344C253.729 166.843 253.862 166.261 253.862 165.6ZM259.251 158.16V170H257.795V158.16H259.251ZM263.508 162.432V167.6C263.508 168.027 263.599 168.331 263.78 168.512C263.961 168.683 264.276 168.768 264.724 168.768H265.796V170H264.484C263.673 170 263.065 169.813 262.66 169.44C262.255 169.067 262.052 168.453 262.052 167.6V162.432H260.916V161.232H262.052V159.024H263.508V161.232H265.796V162.432H263.508ZM271.912 161.072C272.573 161.072 273.171 161.216 273.704 161.504C274.237 161.781 274.653 162.203 274.952 162.768C275.261 163.333 275.416 164.021 275.416 164.832V170H273.976V165.04C273.976 164.165 273.757 163.499 273.32 163.04C272.883 162.571 272.285 162.336 271.528 162.336C270.76 162.336 270.147 162.576 269.688 163.056C269.24 163.536 269.016 164.235 269.016 165.152V170H267.56V158.16H269.016V162.48C269.304 162.032 269.699 161.685 270.2 161.44C270.712 161.195 271.283 161.072 271.912 161.072ZM278.259 170.096C277.981 170.096 277.747 170 277.555 169.808C277.363 169.616 277.267 169.381 277.267 169.104C277.267 168.827 277.363 168.592 277.555 168.4C277.747 168.208 277.981 168.112 278.259 168.112C278.525 168.112 278.749 168.208 278.931 168.4C279.123 168.592 279.219 168.827 279.219 169.104C279.219 169.381 279.123 169.616 278.931 169.808C278.749 170 278.525 170.096 278.259 170.096Z" fill="#FFF4ED"/>
</svg>
